<?xml version="1.0" encoding="UTF-8" standalone="no"?>
<svg
   xmlns:dc="http://purl.org/dc/elements/1.1/"
   xmlns:cc="http://creativecommons.org/ns#"
   xmlns:rdf="http://www.w3.org/1999/02/22-rdf-syntax-ns#"
   xmlns:svg="http://www.w3.org/2000/svg"
   xmlns="http://www.w3.org/2000/svg"
   xmlns:sodipodi="http://sodipodi.sourceforge.net/DTD/sodipodi-0.dtd"
   xmlns:inkscape="http://www.inkscape.org/namespaces/inkscape"
   width="48"
   viewBox="0 0 48 48"
   height="48"
   id="svg2"
   version="1.1"
   inkscape:version="0.48.4 r9939"
   sodipodi:docname="application-x-tha.svg">
  <metadata
     id="metadata30">
    <rdf:RDF>
      <cc:Work
         rdf:about="">
        <dc:format>image/svg+xml</dc:format>
        <dc:type
           rdf:resource="http://purl.org/dc/dcmitype/StillImage" />
      </cc:Work>
    </rdf:RDF>
  </metadata>
  <defs
     id="defs28" />
  <sodipodi:namedview
     pagecolor="#ffffff"
     bordercolor="#666666"
     borderopacity="1"
     objecttolerance="10"
     gridtolerance="10"
     guidetolerance="10"
     inkscape:pageopacity="0"
     inkscape:pageshadow="2"
     inkscape:window-width="765"
     inkscape:window-height="480"
     id="namedview26"
     showgrid="false"
     inkscape:zoom="4.9166667"
     inkscape:cx="24"
     inkscape:cy="24"
     inkscape:window-x="59"
     inkscape:window-y="34"
     inkscape:window-maximized="0"
     inkscape:current-layer="svg2" />
  <path
     style="fill:#45606e;fill-opacity:1"
     d="M 8,1 C 6.9714285,1 6,1.9714285 6,3 l 0,42 c 0,0.971429 1.0285714,2 2,2 l 32,0 c 0.971429,0 2,-1.028571 2,-2 L 42,14 29,1 z"
     id="path4" />
  <path
     style="fill-opacity:.196"
     d="M 29,12 29.0625,12.0625 29.21875,12 29,12 z m 2,2 11,11 0,-11 -11,0 z"
     id="path6" />
  <path
     style="fill:#fff;fill-opacity:.392"
     d="m 29,1 13,13 -11,0 c -0.971429,0 -2,-1.028571 -2,-2 L 29,1 z"
     id="path8" />
  <path
     style="fill-opacity:.196"
     d="m 6,35 0,10 c 0,0.971429 1.0285714,2 2,2 l 32,0 c 0.971429,0 2,-1.028571 2,-2 l 0,-10 z"
     id="path10" />
  <g
     style="fill:#fff"
     id="g12">
    <g
       id="g14">
      <path
         d="m 18,1 0,4 4,0 0,-4 -4,0 z m 0,4 -4,0 0,4 4,0 0,-4 z m 0,4 0,4 4,0 0,-4 -4,0 z m 0,4 -4,0 0,4 4,0 0,-4 z m 0,4 0,4 4,0 0,-4 -4,0 z m -4,6 0,8 8,0 0,-8 -4,0 -4,0 z"
         id="path16" />
    </g>
    <g
       style="word-spacing:0;line-height:125%;letter-spacing:0"
       transform="scale(1.02742 .97331)"
       id="g18">
      <path
         d="m 19.601661,38.014574 0,1.354403 -2.164389,0 0,6.864963 -1.646529,0 0,-6.864963 -2.164389,0 0,-1.354403 5.975307,0"
         id="path20" />
      <path
         d="m 25.975321,38.014574 0,8.219366 -1.63325,0 0,-3.625019 -2.177667,0 0,3.625019 -1.633251,0 0,-8.219366 1.633251,0 0,3.239944 2.177667,0 0,-3.239944 1.63325,0"
         id="path22" />
      <path
         d="m 31.339819,46.23394 -0.385075,-1.89882 -2.190946,0 -0.371797,1.89882 -1.699643,0 c 0.389501,-1.61997 0.783428,-3.093878 1.181783,-4.421727 0.398352,-1.336692 0.783427,-2.602571 1.155226,-3.797639 l 1.779314,0 c 0.389497,1.20392 0.774572,2.483077 1.155226,3.837474 0.389495,1.345554 0.765718,2.806183 1.128669,4.381892 l -1.752757,0 m -1.46063,-6.625951 c -0.08853,0.309837 -0.172624,0.606389 -0.252291,0.889657 -0.07082,0.274427 -0.14164,0.548848 -0.212456,0.823264 -0.06197,0.265574 -0.123935,0.535569 -0.185898,0.809986 -0.05312,0.274425 -0.10623,0.557699 -0.159341,0.849822 l 1.606693,0 c -0.05312,-0.292123 -0.106232,-0.575397 -0.159341,-0.849822 -0.05312,-0.274417 -0.115084,-0.544412 -0.185899,-0.809986 -0.06197,-0.274416 -0.132788,-0.548837 -0.212455,-0.823264 -0.07082,-0.283268 -0.150493,-0.57982 -0.239012,-0.889657"
         id="path24" />
    </g>
  </g>
</svg>
