<?xml version="1.0" encoding="UTF-8" standalone="no"?>
<svg
   xmlns:dc="http://purl.org/dc/elements/1.1/"
   xmlns:cc="http://creativecommons.org/ns#"
   xmlns:rdf="http://www.w3.org/1999/02/22-rdf-syntax-ns#"
   xmlns:svg="http://www.w3.org/2000/svg"
   xmlns="http://www.w3.org/2000/svg"
   xmlns:sodipodi="http://sodipodi.sourceforge.net/DTD/sodipodi-0.dtd"
   xmlns:inkscape="http://www.inkscape.org/namespaces/inkscape"
   width="48"
   viewBox="0 0 48 48"
   height="48"
   id="svg2"
   version="1.1"
   inkscape:version="0.48.4 r9939"
   sodipodi:docname="application-x-zoo.svg">
  <metadata
     id="metadata30">
    <rdf:RDF>
      <cc:Work
         rdf:about="">
        <dc:format>image/svg+xml</dc:format>
        <dc:type
           rdf:resource="http://purl.org/dc/dcmitype/StillImage" />
      </cc:Work>
    </rdf:RDF>
  </metadata>
  <defs
     id="defs28" />
  <sodipodi:namedview
     pagecolor="#ffffff"
     bordercolor="#666666"
     borderopacity="1"
     objecttolerance="10"
     gridtolerance="10"
     guidetolerance="10"
     inkscape:pageopacity="0"
     inkscape:pageshadow="2"
     inkscape:window-width="765"
     inkscape:window-height="480"
     id="namedview26"
     showgrid="false"
     inkscape:zoom="4.9166667"
     inkscape:cx="24"
     inkscape:cy="24"
     inkscape:window-x="59"
     inkscape:window-y="34"
     inkscape:window-maximized="0"
     inkscape:current-layer="svg2" />
  <path
     style="fill:#45606e;fill-opacity:1"
     d="M 8,1 C 6.9714285,1 6,1.9714285 6,3 l 0,42 c 0,0.971429 1.0285714,2 2,2 l 32,0 c 0.971429,0 2,-1.028571 2,-2 L 42,14 29,1 z"
     id="path4" />
  <path
     style="fill-opacity:.196"
     d="M 29,12 29.0625,12.0625 29.21875,12 29,12 z m 2,2 11,11 0,-11 -11,0 z"
     id="path6" />
  <path
     style="fill:#fff;fill-opacity:.392"
     d="m 29,1 13,13 -11,0 c -0.971429,0 -2,-1.028571 -2,-2 L 29,1 z"
     id="path8" />
  <path
     style="fill-opacity:.196"
     d="m 6,35 0,10 c 0,0.971429 1.0285714,2 2,2 l 32,0 c 0.971429,0 2,-1.028571 2,-2 l 0,-10 z"
     id="path10" />
  <g
     style="fill:#fff"
     id="g12">
    <g
       id="g14">
      <path
         d="m 18,1 0,4 4,0 0,-4 -4,0 z m 0,4 -4,0 0,4 4,0 0,-4 z m 0,4 0,4 4,0 0,-4 -4,0 z m 0,4 -4,0 0,4 4,0 0,-4 z m 0,4 0,4 4,0 0,-4 -4,0 z m -4,6 0,8 8,0 0,-8 -4,0 -4,0 z"
         id="path16" />
    </g>
    <g
       style="word-spacing:0;line-height:125%;letter-spacing:0"
       transform="matrix(1.0011 0 0 .88456 -5.98802 6.15806)"
       id="g18">
      <path
         d="m 25.552035,36.266813 c -0.401339,0.616007 -0.770006,1.194673 -1.106,1.736 -0.336005,0.541339 -0.648671,1.059338 -0.938,1.554 -0.289337,0.485337 -0.56467,0.95667 -0.826,1.414 -0.252003,0.448002 -0.49467,0.891335 -0.728,1.33 l 3.724,0 0,1.428 -5.712,0 0,-0.994 c 0.205332,-0.401332 0.424665,-0.821331 0.658,-1.26 0.233332,-0.447997 0.494665,-0.923997 0.784,-1.428 0.289331,-0.503996 0.601997,-1.049995 0.938,-1.638 0.34533,-0.587994 0.723329,-1.227327 1.134,-1.918 l -3.332,0 0,-1.428 5.404,0 0,1.204"
         id="path20" />
      <path
         d="m 28.450035,39.388813 c -2e-6,0.420004 0.014,0.81667 0.042,1.19 0.03733,0.364003 0.102664,0.681336 0.196,0.952 0.102664,0.270669 0.242664,0.485335 0.42,0.644 0.17733,0.158668 0.41533,0.238001 0.714,0.238 0.289329,10e-7 0.522662,-0.07933 0.7,-0.238 0.186662,-0.158665 0.326662,-0.373331 0.42,-0.644 0.102662,-0.279997 0.167995,-0.601997 0.196,-0.966 0.03733,-0.363996 0.056,-0.755996 0.056,-1.176 -5e-6,-0.419995 -0.01867,-0.811995 -0.056,-1.176 -0.02801,-0.373327 -0.09334,-0.695327 -0.196,-0.966 -0.09334,-0.27066 -0.228671,-0.485326 -0.406,-0.644 -0.177338,-0.158659 -0.415337,-0.237992 -0.714,-0.238 -0.29867,8e-6 -0.53667,0.07934 -0.714,0.238 -0.177336,0.158674 -0.317336,0.378007 -0.42,0.658 -0.09334,0.270673 -0.158669,0.588006 -0.196,0.952 -0.028,0.364005 -0.042,0.756005 -0.042,1.176 m -1.75,0 c -1e-6,-1.493327 0.275333,-2.617993 0.826,-3.374 0.550665,-0.765325 1.315997,-1.147991 2.296,-1.148 1.017329,9e-6 1.791995,0.382675 2.324,1.148 0.531993,0.756007 0.797993,1.880673 0.798,3.374 -7e-6,1.493336 -0.270673,2.622669 -0.812,3.388 -0.541339,0.756 -1.306671,1.134 -2.296,1.134 -1.017336,0 -1.796669,-0.378 -2.338,-1.134 -0.532001,-0.765331 -0.798001,-1.894664 -0.798,-3.388"
         id="path22" />
      <path
         d="m 35.450035,39.388813 c -2e-6,0.420004 0.014,0.81667 0.042,1.19 0.03733,0.364003 0.102664,0.681336 0.196,0.952 0.102664,0.270669 0.242664,0.485335 0.42,0.644 0.17733,0.158668 0.41533,0.238001 0.714,0.238 0.289329,10e-7 0.522662,-0.07933 0.7,-0.238 0.186662,-0.158665 0.326662,-0.373331 0.42,-0.644 0.102662,-0.279997 0.167995,-0.601997 0.196,-0.966 0.03733,-0.363996 0.05599,-0.755996 0.056,-1.176 -5e-6,-0.419995 -0.01867,-0.811995 -0.056,-1.176 -0.02801,-0.373327 -0.09334,-0.695327 -0.196,-0.966 -0.09334,-0.27066 -0.228671,-0.485326 -0.406,-0.644 -0.177338,-0.158659 -0.415337,-0.237992 -0.714,-0.238 -0.29867,8e-6 -0.53667,0.07934 -0.714,0.238 -0.177336,0.158674 -0.317336,0.378007 -0.42,0.658 -0.09334,0.270673 -0.158669,0.588006 -0.196,0.952 -0.028,0.364005 -0.042,0.756005 -0.042,1.176 m -1.75,0 c -10e-7,-1.493327 0.275333,-2.617993 0.826,-3.374 0.550665,-0.765325 1.315997,-1.147991 2.296,-1.148 1.017329,9e-6 1.791995,0.382675 2.324,1.148 0.531993,0.756007 0.797993,1.880673 0.798,3.374 -7e-6,1.493336 -0.270673,2.622669 -0.812,3.388 -0.541339,0.756 -1.306671,1.134 -2.296,1.134 -1.017336,0 -1.796669,-0.378 -2.338,-1.134 -0.532001,-0.765331 -0.798001,-1.894664 -0.798,-3.388"
         id="path24" />
    </g>
  </g>
</svg>
