<?xml version="1.0" encoding="UTF-8" standalone="no"?>
<svg
   xmlns:dc="http://purl.org/dc/elements/1.1/"
   xmlns:cc="http://creativecommons.org/ns#"
   xmlns:rdf="http://www.w3.org/1999/02/22-rdf-syntax-ns#"
   xmlns:svg="http://www.w3.org/2000/svg"
   xmlns="http://www.w3.org/2000/svg"
   xmlns:sodipodi="http://sodipodi.sourceforge.net/DTD/sodipodi-0.dtd"
   xmlns:inkscape="http://www.inkscape.org/namespaces/inkscape"
   width="48"
   viewBox="0 0 48 48"
   height="48"
   id="svg2"
   version="1.1"
   inkscape:version="0.48.4 r9939"
   sodipodi:docname="application-x-lzop.svg">
  <metadata
     id="metadata32">
    <rdf:RDF>
      <cc:Work
         rdf:about="">
        <dc:format>image/svg+xml</dc:format>
        <dc:type
           rdf:resource="http://purl.org/dc/dcmitype/StillImage" />
      </cc:Work>
    </rdf:RDF>
  </metadata>
  <defs
     id="defs30" />
  <sodipodi:namedview
     pagecolor="#ffffff"
     bordercolor="#666666"
     borderopacity="1"
     objecttolerance="10"
     gridtolerance="10"
     guidetolerance="10"
     inkscape:pageopacity="0"
     inkscape:pageshadow="2"
     inkscape:window-width="765"
     inkscape:window-height="480"
     id="namedview28"
     showgrid="false"
     inkscape:zoom="4.9166667"
     inkscape:cx="24"
     inkscape:cy="24"
     inkscape:window-x="59"
     inkscape:window-y="34"
     inkscape:window-maximized="0"
     inkscape:current-layer="svg2" />
  <path
     style="fill:#45606e;fill-opacity:1"
     d="M 8,1 C 6.9714285,1 6,1.9714285 6,3 l 0,42 c 0,0.971429 1.0285714,2 2,2 l 32,0 c 0.971429,0 2,-1.028571 2,-2 L 42,14 29,1 z"
     id="path4" />
  <path
     style="fill-opacity:.196"
     d="M 29,12 29.0625,12.0625 29.21875,12 29,12 z m 2,2 11,11 0,-11 -11,0 z"
     id="path6" />
  <path
     style="fill:#fff;fill-opacity:.392"
     d="m 29,1 13,13 -11,0 c -0.971429,0 -2,-1.028571 -2,-2 L 29,1 z"
     id="path8" />
  <path
     style="fill-opacity:.196"
     d="m 6,35 0,10 c 0,0.971429 1.0285714,2 2,2 l 32,0 c 0.971429,0 2,-1.028571 2,-2 l 0,-10 z"
     id="path10" />
  <g
     style="fill:#fff"
     id="g12">
    <g
       id="g14">
      <path
         d="m 18,1 0,4 4,0 0,-4 -4,0 z m 0,4 -4,0 0,4 4,0 0,-4 z m 0,4 0,4 4,0 0,-4 -4,0 z m 0,4 -4,0 0,4 4,0 0,-4 z m 0,4 0,4 4,0 0,-4 -4,0 z m -4,6 0,8 8,0 0,-8 -4,0 -4,0 z"
         id="path16" />
    </g>
    <g
       style="word-spacing:0;line-height:125%;letter-spacing:0"
       transform="scale(1.00968 .99041)"
       id="g18">
      <path
         d="m 16.748889,45.27327 -4.863993,0 0,-7.739875 1.550476,0 0,6.464483 3.313517,0 0,1.275392"
         id="path20" />
      <path
         d="m 22.813249,38.608725 c -0.358448,0.550175 -0.687716,1.066999 -0.987803,1.550475 -0.300096,0.483487 -0.579348,0.946128 -0.837757,1.387926 -0.258416,0.43347 -0.504324,0.854432 -0.737726,1.262888 -0.225072,0.400125 -0.441805,0.796079 -0.6502,1.187864 l 3.326021,0 0,1.275392 -5.101565,0 0,-0.887773 c 0.183388,-0.358442 0.379282,-0.733557 0.58768,-1.125345 0.208396,-0.40012 0.4418,-0.82525 0.700215,-1.275391 0.25841,-0.450135 0.537662,-0.937784 0.837757,-1.462949 0.308425,-0.525156 0.646028,-1.096164 1.012811,-1.713026 l -2.975914,0 0,-1.275391 4.826481,0 0,1.07533"
         id="path22" />
      <path
         d="m 25.401544,41.39708 c -2e-6,0.375119 0.0125,0.729394 0.03751,1.062826 0.03334,0.325103 0.09169,0.608523 0.175054,0.850261 0.09169,0.241743 0.216731,0.433468 0.375115,0.575177 0.158379,0.141711 0.370944,0.212566 0.637696,0.212565 0.258409,10e-7 0.466806,-0.07085 0.625191,-0.212565 0.166714,-0.141709 0.291752,-0.333434 0.375115,-0.575177 0.09169,-0.250074 0.150042,-0.537662 0.175054,-0.862764 0.03334,-0.325097 0.05001,-0.675204 0.05002,-1.050323 -4e-6,-0.375111 -0.01668,-0.725218 -0.05002,-1.050322 -0.02501,-0.33343 -0.08336,-0.621018 -0.175054,-0.862765 -0.08336,-0.241735 -0.204233,-0.43346 -0.362611,-0.575176 -0.158385,-0.141704 -0.37095,-0.212559 -0.637695,-0.212565 -0.266752,6e-6 -0.479317,0.07086 -0.637696,0.212565 -0.158384,0.141716 -0.283423,0.337609 -0.375115,0.58768 -0.08336,0.241747 -0.141712,0.525167 -0.175054,0.850261 -0.02501,0.325104 -0.03751,0.675211 -0.03751,1.050322 m -1.56298,0 c 0,-1.333737 0.245908,-2.338211 0.737726,-3.013424 0.491816,-0.683536 1.175359,-1.025307 2.05063,-1.025315 0.908608,8e-6 1.600486,0.341779 2.075636,1.025315 0.475141,0.675213 0.712713,1.679687 0.712719,3.013424 -6e-6,1.333745 -0.241746,2.342387 -0.725222,3.025929 -0.483487,0.675207 -1.167029,1.01281 -2.05063,1.012811 -0.908614,-10e-7 -1.60466,-0.337604 -2.08814,-1.012811 -0.475147,-0.683542 -0.712719,-1.692184 -0.712719,-3.025929"
         id="path24" />
      <path
         d="m 32.553738,37.445868 c 0.983631,8e-6 1.746364,0.204237 2.288202,0.612688 0.541827,0.40013 0.812743,1.058664 0.812749,1.975606 -6e-6,0.925288 -0.27509,1.596327 -0.825253,2.013118 -0.541838,0.408461 -1.312907,0.61269 -2.31321,0.612688 l -0.550169,0 0,2.613302 -1.537972,0 0,-7.639845 c 0.150046,-0.03334 0.316763,-0.06251 0.500154,-0.08753 0.191724,-0.025 0.383449,-0.04167 0.575176,-0.05002 0.191724,-0.01666 0.379281,-0.02917 0.562673,-0.03751 0.183387,-0.0083 0.345937,-0.0125 0.48765,-0.0125 m 0.175053,1.33791 c -0.0917,7e-6 -0.220904,0.0042 -0.387619,0.0125 -0.158384,7e-6 -0.283422,0.0083 -0.375115,0.02501 l 0,2.500767 0.625192,0 c 0.491814,4e-6 0.862761,-0.09586 1.112842,-0.287588 0.250072,-0.200057 0.37511,-0.53766 0.375115,-1.012811 -5e-6,-0.450132 -0.125043,-0.766896 -0.375115,-0.950291 -0.241745,-0.191719 -0.566844,-0.287582 -0.9753,-0.287589"
         id="path26" />
    </g>
  </g>
</svg>
