<?xml version="1.0" encoding="UTF-8" standalone="no"?>
<svg
   xmlns:dc="http://purl.org/dc/elements/1.1/"
   xmlns:cc="http://creativecommons.org/ns#"
   xmlns:rdf="http://www.w3.org/1999/02/22-rdf-syntax-ns#"
   xmlns:svg="http://www.w3.org/2000/svg"
   xmlns="http://www.w3.org/2000/svg"
   xmlns:sodipodi="http://sodipodi.sourceforge.net/DTD/sodipodi-0.dtd"
   xmlns:inkscape="http://www.inkscape.org/namespaces/inkscape"
   width="48"
   viewBox="0 0 48 48"
   height="48"
   id="svg2"
   version="1.1"
   inkscape:version="0.48.4 r9939"
   sodipodi:docname="application-x-lzma-compressed-tar.svg">
  <metadata
     id="metadata30">
    <rdf:RDF>
      <cc:Work
         rdf:about="">
        <dc:format>image/svg+xml</dc:format>
        <dc:type
           rdf:resource="http://purl.org/dc/dcmitype/StillImage" />
      </cc:Work>
    </rdf:RDF>
  </metadata>
  <defs
     id="defs28" />
  <sodipodi:namedview
     pagecolor="#ffffff"
     bordercolor="#666666"
     borderopacity="1"
     objecttolerance="10"
     gridtolerance="10"
     guidetolerance="10"
     inkscape:pageopacity="0"
     inkscape:pageshadow="2"
     inkscape:window-width="765"
     inkscape:window-height="480"
     id="namedview26"
     showgrid="false"
     inkscape:zoom="4.9166667"
     inkscape:cx="24"
     inkscape:cy="24"
     inkscape:window-x="59"
     inkscape:window-y="34"
     inkscape:window-maximized="0"
     inkscape:current-layer="svg2" />
  <path
     style="fill:#45606e;fill-opacity:1"
     d="M 8,1 C 6.9714285,1 6,1.9714285 6,3 l 0,42 c 0,0.971429 1.0285714,2 2,2 l 32,0 c 0.971429,0 2,-1.028571 2,-2 L 42,14 29,1 z"
     id="path4" />
  <path
     style="fill-opacity:.196"
     d="M 29,12 29.0625,12.0625 29.21875,12 29,12 z m 2,2 11,11 0,-11 -11,0 z"
     id="path6" />
  <path
     style="fill:#fff;fill-opacity:.392"
     d="m 29,1 13,13 -11,0 c -0.971429,0 -2,-1.028571 -2,-2 L 29,1 z"
     id="path8" />
  <path
     style="fill-opacity:.196"
     d="m 6,35 0,10 c 0,0.971429 1.0285714,2 2,2 l 32,0 c 0.971429,0 2,-1.028571 2,-2 l 0,-10 z"
     id="path10" />
  <g
     style="fill:#fff"
     id="g12">
    <g
       id="g14">
      <path
         d="m 18,1 0,4 4,0 0,-4 -4,0 z m 0,4 -4,0 0,4 4,0 0,-4 z m 0,4 0,4 4,0 0,-4 -4,0 z m 0,4 -4,0 0,4 4,0 0,-4 z m 0,4 0,4 4,0 0,-4 -4,0 z m -4,6 0,8 8,0 0,-8 -4,0 -4,0 z"
         id="path16" />
    </g>
    <g
       style="word-spacing:0;line-height:125%;letter-spacing:0"
       transform="scale(1.04064 .96095)"
       id="g18">
      <path
         d="m 19.505468,38.503568 0,1.371825 -2.19223,0 0,6.95327 -1.667709,0 0,-6.95327 -2.19223,0 0,-1.371825 6.052169,0"
         id="path20" />
      <path
         d="m 26.028362,46.828663 -5.231764,0 0,-8.325095 1.667709,0 0,6.95327 3.564055,0 0,1.371825"
         id="path22" />
      <path
         d="m 32.551256,39.660204 c -0.385551,0.591775 -0.739715,1.147677 -1.062492,1.667709 -0.322787,0.520044 -0.623154,1.017666 -0.901101,1.492869 -0.277955,0.466245 -0.542457,0.919036 -0.793506,1.358376 -0.24209,0.430378 -0.475211,0.856271 -0.699362,1.27768 l 3.577504,0 0,1.371825 -5.4873,0 0,-0.954898 c 0.197255,-0.385544 0.40796,-0.789022 0.632116,-1.210434 0.224152,-0.430374 0.475205,-0.887648 0.753158,-1.371825 0.27795,-0.484169 0.578316,-1.00869 0.901101,-1.573564 0.331745,-0.564863 0.694875,-1.179046 1.089391,-1.842549 l -3.200926,0 0,-1.371825 5.191417,0 0,1.156636"
         id="path24" />
    </g>
  </g>
</svg>
