<?xml version="1.0" encoding="UTF-8" standalone="no"?>
<svg
   xmlns:dc="http://purl.org/dc/elements/1.1/"
   xmlns:cc="http://creativecommons.org/ns#"
   xmlns:rdf="http://www.w3.org/1999/02/22-rdf-syntax-ns#"
   xmlns:svg="http://www.w3.org/2000/svg"
   xmlns="http://www.w3.org/2000/svg"
   xmlns:sodipodi="http://sodipodi.sourceforge.net/DTD/sodipodi-0.dtd"
   xmlns:inkscape="http://www.inkscape.org/namespaces/inkscape"
   width="48"
   viewBox="0 0 48 48"
   height="48"
   id="svg2"
   version="1.1"
   inkscape:version="0.48.4 r9939"
   sodipodi:docname="application-x-lha.svg">
  <metadata
     id="metadata30">
    <rdf:RDF>
      <cc:Work
         rdf:about="">
        <dc:format>image/svg+xml</dc:format>
        <dc:type
           rdf:resource="http://purl.org/dc/dcmitype/StillImage" />
      </cc:Work>
    </rdf:RDF>
  </metadata>
  <defs
     id="defs28" />
  <sodipodi:namedview
     pagecolor="#ffffff"
     bordercolor="#666666"
     borderopacity="1"
     objecttolerance="10"
     gridtolerance="10"
     guidetolerance="10"
     inkscape:pageopacity="0"
     inkscape:pageshadow="2"
     inkscape:window-width="765"
     inkscape:window-height="480"
     id="namedview26"
     showgrid="false"
     inkscape:zoom="4.9166667"
     inkscape:cx="24"
     inkscape:cy="24"
     inkscape:window-x="59"
     inkscape:window-y="34"
     inkscape:window-maximized="0"
     inkscape:current-layer="svg2" />
  <path
     style="fill:#45606e;fill-opacity:1"
     d="M 8,1 C 6.9714285,1 6,1.9714285 6,3 l 0,42 c 0,0.971429 1.0285714,2 2,2 l 32,0 c 0.971429,0 2,-1.028571 2,-2 L 42,14 29,1 z"
     id="path4" />
  <path
     style="fill-opacity:.196"
     d="M 29,12 29.0625,12.0625 29.21875,12 29,12 z m 2,2 11,11 0,-11 -11,0 z"
     id="path6" />
  <path
     style="fill:#fff;fill-opacity:.392"
     d="m 29,1 13,13 -11,0 c -0.971429,0 -2,-1.028571 -2,-2 L 29,1 z"
     id="path8" />
  <path
     style="fill-opacity:.196"
     d="m 6,35 0,10 c 0,0.971429 1.0285714,2 2,2 l 32,0 c 0.971429,0 2,-1.028571 2,-2 l 0,-10 z"
     id="path10" />
  <g
     style="fill:#fff"
     id="g12">
    <g
       id="g14">
      <path
         d="m 18,1 0,4 4,0 0,-4 -4,0 z m 0,4 -4,0 0,4 4,0 0,-4 z m 0,4 0,4 4,0 0,-4 -4,0 z m 0,4 -4,0 0,4 4,0 0,-4 z m 0,4 0,4 4,0 0,-4 -4,0 z m -4,6 0,8 8,0 0,-8 -4,0 -4,0 z"
         id="path16" />
    </g>
    <g
       style="word-spacing:0;line-height:125%;letter-spacing:0"
       transform="matrix(1.04393 0 0 .95792 1.45707 .16099)"
       id="g18">
      <path
         d="m 17.263431,46.808762 -5.248318,0 0,-8.351437 1.672986,0 0,6.975271 3.575332,0 0,1.376166"
         id="path20" />
      <path
         d="m 23.941881,38.457325 0,8.351437 -1.659494,0 0,-3.683267 -2.212658,0 0,3.683267 -1.659494,0 0,-8.351437 1.659494,0 0,3.292004 2.212658,0 0,-3.292004 1.659494,0"
         id="path22" />
      <path
         d="m 29.392576,46.808762 -0.391262,-1.929331 -2.226151,0 -0.377771,1.929331 -1.726952,0 c 0.395759,-1.646001 0.796016,-3.143591 1.200771,-4.492776 0.404753,-1.358171 0.796016,-2.64439 1.173789,-3.858661 l 1.807904,0 c 0.395755,1.223266 0.787017,2.522976 1.173788,3.899136 0.395754,1.367174 0.778022,2.851273 1.146804,4.452301 l -1.78092,0 m -1.4841,-6.732418 c -0.08995,0.314815 -0.175397,0.616132 -0.256344,0.903952 -0.07196,0.278836 -0.143916,0.557667 -0.21587,0.836492 -0.06296,0.269842 -0.125926,0.544175 -0.188885,0.823001 -0.05397,0.278835 -0.107937,0.56666 -0.161902,0.863477 l 1.63251,0 c -0.05397,-0.296817 -0.107938,-0.584642 -0.161902,-0.863477 -0.05397,-0.278826 -0.116932,-0.553159 -0.188885,-0.823001 -0.06297,-0.278825 -0.134922,-0.557656 -0.215869,-0.836492 -0.07196,-0.28782 -0.152911,-0.589137 -0.242853,-0.903952"
         id="path24" />
    </g>
  </g>
</svg>
