<?xml version="1.0" encoding="UTF-8" standalone="no"?>
<svg
   xmlns:dc="http://purl.org/dc/elements/1.1/"
   xmlns:cc="http://creativecommons.org/ns#"
   xmlns:rdf="http://www.w3.org/1999/02/22-rdf-syntax-ns#"
   xmlns:svg="http://www.w3.org/2000/svg"
   xmlns="http://www.w3.org/2000/svg"
   xmlns:sodipodi="http://sodipodi.sourceforge.net/DTD/sodipodi-0.dtd"
   xmlns:inkscape="http://www.inkscape.org/namespaces/inkscape"
   width="48"
   viewBox="0 0 48 48"
   height="48"
   id="svg2"
   version="1.1"
   inkscape:version="0.48.4 r9939"
   sodipodi:docname="application-image-gif.svg">
  <metadata
     id="metadata30">
    <rdf:RDF>
      <cc:Work
         rdf:about="">
        <dc:format>image/svg+xml</dc:format>
        <dc:type
           rdf:resource="http://purl.org/dc/dcmitype/StillImage" />
      </cc:Work>
    </rdf:RDF>
  </metadata>
  <defs
     id="defs28" />
  <sodipodi:namedview
     pagecolor="#ffffff"
     bordercolor="#666666"
     borderopacity="1"
     objecttolerance="10"
     gridtolerance="10"
     guidetolerance="10"
     inkscape:pageopacity="0"
     inkscape:pageshadow="2"
     inkscape:window-width="765"
     inkscape:window-height="480"
     id="namedview26"
     showgrid="false"
     inkscape:zoom="4.9166667"
     inkscape:cx="24"
     inkscape:cy="24"
     inkscape:window-x="59"
     inkscape:window-y="34"
     inkscape:window-maximized="0"
     inkscape:current-layer="svg2" />
  <path
     style="fill:#075e65;fill-opacity:1"
     d="M 8,1 C 6.9714285,1 6,1.9714285 6,3 l 0,42 c 0,0.971429 1.0285714,2 2,2 l 32,0 c 0.971429,0 2,-1.028571 2,-2 L 42,14 29,1 z"
     id="path4" />
  <path
     style="fill-opacity:.196"
     d="M 29,12 29.0625,12.0625 29.21875,12 29,12 z m 2,2 11,11 0,-11 -11,0 z"
     id="path6" />
  <path
     style="fill:#fff;fill-opacity:.392"
     d="m 29,1 13,13 -11,0 c -0.971429,0 -2,-1.028571 -2,-2 L 29,1 z"
     id="path8" />
  <path
     style="fill-opacity:.196"
     d="m 6,35 0,10 c 0,0.971429 1.0285714,2 2,2 l 32,0 c 0.971429,0 2,-1.028571 2,-2 l 0,-10 z"
     id="path10" />
  <g
     style="fill:#fff"
     id="g12">
    <g
       id="g14">
      <path
         style="line-height:normal;color:#000"
         d="m 17.035431,16 c -0.563237,0.054 -1.045319,0.64805 -1.035277,1.28125 l 0,8.5625 0,0.03125 0,0.53125 0,0.03125 0,4.3125 c 0.0061,0.663 0.537592,1.2595 1.129393,1.25 l 13.772329,0 c 0.582514,-0.01 1.091927,-0.5974 1.098021,-1.25 l 0,-13.46875 C 32.00833,16.61825 31.493691,16.0069 30.901876,16 l -13.772329,0 -0.09412,0 z m 0.972534,2 11.984121,0 0,8.59375 c -0.08675,-0.104187 -0.129019,-0.140372 -0.219604,-0.25 -0.891777,-1.0689 -1.911389,-2.3394 -3.137205,-3.875 -0.245245,0.243 -0.542771,0.53615 -0.941161,0.90625 -0.404521,0.3701 -0.885282,0.8154 -1.443114,1.3125 -0.07048,0.0774 -0.354382,-0.2177 -0.878417,-0.875 -0.536378,-0.6601 -1.272006,-1.6677 -2.258788,-3.0625 -1.323503,1.372187 -2.278193,2.354408 -3.105832,3.1875 l 0,-5.9375 z"
         id="path16" />
    </g>
    <g
       style="word-spacing:0;line-height:125%;letter-spacing:0"
       transform="scale(1.06834 .93603)"
       id="g18">
      <path
         d="m 16.875086,41.011476 c -0.388089,7e-6 -0.714433,0.07057 -0.979033,0.211682 -0.264607,0.141129 -0.485109,0.339581 -0.661509,0.595358 -0.167584,0.246969 -0.291066,0.546853 -0.370445,0.899652 -0.07056,0.343989 -0.105843,0.727664 -0.105841,1.151025 -2e-6,0.979036 0.15435,1.702285 0.463056,2.169748 0.308701,0.458648 0.762937,0.687971 1.362708,0.687969 0.09702,2e-6 0.202858,-0.0044 0.317524,-0.01323 0.114657,-0.0088 0.220498,-0.02205 0.317524,-0.03969 l 0,-2.990019 1.627311,0 0,4.088123 c -0.194048,0.07056 -0.498342,0.149942 -0.912882,0.238143 -0.40573,0.0882 -0.899656,0.132302 -1.481779,0.132302 -0.51157,0 -0.974625,-0.0882 -1.389168,-0.264603 -0.405727,-0.185223 -0.754122,-0.454236 -1.045184,-0.807041 -0.291065,-0.361624 -0.515977,-0.807039 -0.674739,-1.336248 -0.158762,-0.538024 -0.238143,-1.159841 -0.238143,-1.865454 0,-0.696784 0.09261,-1.309782 0.277834,-1.838994 0.185221,-0.538021 0.436594,-0.987846 0.75412,-1.349478 0.317522,-0.361617 0.692377,-0.63063 1.124564,-0.80704 0.432183,-0.185214 0.895239,-0.277825 1.389169,-0.277834 0.31752,9e-6 0.599763,0.02647 0.846731,0.07938 0.255778,0.04411 0.476281,0.09703 0.661508,0.158762 0.185217,0.06175 0.335159,0.1279 0.449826,0.198453 0.123476,0.07057 0.216087,0.123489 0.277834,0.158762 l -0.423366,1.296557 c -0.194048,-0.123475 -0.432191,-0.233726 -0.714429,-0.330754 -0.282248,-0.09701 -0.573312,-0.145525 -0.873191,-0.145532"
         id="path20" />
      <path
         d="m 20.076787,47.970547 0,-1.349478 1.786074,0 0,-5.490522 -1.786074,0 0,-1.349477 5.199458,0 0,1.349477 -1.772843,0 0,5.490522 1.772843,0 0,1.349478 -5.199458,0"
         id="path22" />
      <path
         d="m 26.810946,47.970547 0,-8.189477 5.014235,0 0,1.349477 -3.386924,0 0,1.984526 2.963559,0 0,1.349478 -2.963559,0 0,3.505996 -1.627311,0"
         id="path24" />
    </g>
  </g>
</svg>
