<?xml version="1.0" encoding="UTF-8" standalone="no"?>
<svg
   xmlns:dc="http://purl.org/dc/elements/1.1/"
   xmlns:cc="http://creativecommons.org/ns#"
   xmlns:rdf="http://www.w3.org/1999/02/22-rdf-syntax-ns#"
   xmlns:svg="http://www.w3.org/2000/svg"
   xmlns="http://www.w3.org/2000/svg"
   xmlns:sodipodi="http://sodipodi.sourceforge.net/DTD/sodipodi-0.dtd"
   xmlns:inkscape="http://www.inkscape.org/namespaces/inkscape"
   width="48"
   viewBox="0 0 48 48"
   height="48"
   id="svg3021"
   version="1.1"
   inkscape:version="0.48.4 r9939"
   sodipodi:docname="wps-office-dot.svg">
  <metadata
     id="metadata3059">
    <rdf:RDF>
      <cc:Work
         rdf:about="">
        <dc:format>image/svg+xml</dc:format>
        <dc:type
           rdf:resource="http://purl.org/dc/dcmitype/StillImage" />
      </cc:Work>
    </rdf:RDF>
  </metadata>
  <defs
     id="defs3057" />
  <sodipodi:namedview
     pagecolor="#ffffff"
     bordercolor="#666666"
     borderopacity="1"
     objecttolerance="10"
     gridtolerance="10"
     guidetolerance="10"
     inkscape:pageopacity="0"
     inkscape:pageshadow="2"
     inkscape:window-width="1668"
     inkscape:window-height="881"
     id="namedview3055"
     showgrid="false"
     inkscape:zoom="9.8333331"
     inkscape:cx="6.6858081"
     inkscape:cy="24.05029"
     inkscape:window-x="107"
     inkscape:window-y="29"
     inkscape:window-maximized="0"
     inkscape:current-layer="svg3021" />
  <path
     style="fill:#5062b0;fill-opacity:1"
     d="M 8 1 C 6.9714285 1 6 1.9714285 6 3 L 6 14 L 6 45 C 6 45.971429 7.0285714 47 8 47 L 40 47 C 40.971429 47 42 45.971429 42 45 L 42 14 L 42 3 C 42 1.9714285 41.028571 1 40 1 L 29 1 L 19 1 L 8 1 z "
     id="path3023" />
  <path
     style="fill-opacity:.196"
     d="m 6.0000005,35 0,10 c 0,0.971429 1.028571,2 2,2 L 40,47 c 0.971429,0 2,-1.028571 2,-2 l 0,-10 z"
     id="path3045" />
  <g
     style="fill:#fff;word-spacing:0;line-height:125%;letter-spacing:0"
     transform="scale(1.06608 .93802)"
     id="g3047">
    <path
       d="m 14.756112,46.481689 c 0.04401,0.0088 0.09241,0.0132 0.145224,0.0132 0.05281,2e-6 0.101214,2e-6 0.145224,0 0.369659,2e-6 0.67771,-0.07041 0.924155,-0.211235 0.255239,-0.140822 0.457673,-0.334454 0.607302,-0.580897 0.158422,-0.246439 0.26844,-0.536888 0.330055,-0.871346 0.07041,-0.343254 0.105613,-0.717317 0.105618,-1.122188 -5e-6,-0.352055 -0.02641,-0.695312 -0.07921,-1.029773 -0.05281,-0.33445 -0.145228,-0.629299 -0.277246,-0.884548 -0.132026,-0.255236 -0.312456,-0.45767 -0.541291,-0.607302 -0.228842,-0.158419 -0.523691,-0.237632 -0.884548,-0.237639 -0.07041,7e-6 -0.149628,0.0044 -0.23764,0.0132 -0.08802,7e-6 -0.16723,0.0088 -0.237639,0.0264 l 0,5.49212 m 3.907854,-2.772464 c -6e-6,0.75693 -0.09682,1.403838 -0.290449,1.940725 -0.184836,0.52809 -0.44448,0.959362 -0.77893,1.293817 -0.334461,0.334456 -0.734928,0.580897 -1.201401,0.739323 -0.45768,0.149626 -0.963765,0.224438 -1.518255,0.224438 -0.29045,0 -0.576498,-0.0176 -0.858143,-0.05281 -0.272847,-0.0264 -0.567696,-0.07481 -0.884548,-0.145224 l 0,-7.974136 c 0.36966,-0.07921 0.717318,-0.132014 1.042974,-0.158426 0.325653,-0.0264 0.629303,-0.0396 0.910953,-0.03961 0.536887,8e-6 1.025368,0.07922 1.465445,0.23764 0.448871,0.158434 0.827334,0.409276 1.13539,0.752526 0.308046,0.334463 0.545686,0.765735 0.71292,1.293817 0.176023,0.519292 0.264038,1.148597 0.264044,1.887916"
       id="path3049" />
    <path
       d="m 21.027162,43.709225 c -2e-6,0.39607 0.0132,0.770132 0.03961,1.122188 0.0352,0.34326 0.09681,0.64251 0.184831,0.89775 0.09681,0.255245 0.228835,0.457678 0.396066,0.607302 0.167225,0.149626 0.391662,0.224439 0.673313,0.224438 0.272842,10e-7 0.492878,-0.07481 0.66011,-0.224438 0.176026,-0.149624 0.308048,-0.352057 0.396067,-0.607302 0.09681,-0.264042 0.158422,-0.567692 0.184831,-0.910952 0.0352,-0.343255 0.0528,-0.712916 0.05281,-1.108986 -4e-6,-0.396062 -0.01761,-0.765724 -0.05281,-1.108986 -0.02641,-0.352053 -0.08802,-0.655704 -0.184831,-0.910952 -0.08802,-0.255237 -0.215641,-0.457671 -0.382865,-0.607302 -0.167231,-0.149618 -0.391669,-0.224431 -0.673312,-0.224438 -0.281651,7e-6 -0.506088,0.07482 -0.673313,0.224438 -0.167231,0.149631 -0.299253,0.356466 -0.396066,0.620504 -0.08802,0.255248 -0.149628,0.554498 -0.184831,0.89775 -0.02641,0.343262 -0.03961,0.712924 -0.03961,1.108986 m -1.650276,0 c -10e-7,-1.408231 0.259642,-2.468807 0.77893,-3.181733 0.519285,-0.721713 1.241005,-1.082573 2.165163,-1.082581 0.959356,8e-6 1.689878,0.360868 2.191567,1.082581 0.501678,0.712926 0.75252,1.773502 0.752526,3.181733 -6e-6,1.408238 -0.255249,2.473216 -0.765728,3.194935 -0.510491,0.71292 -1.232211,1.069379 -2.165163,1.069379 -0.959363,0 -1.694286,-0.356459 -2.204769,-1.069379 -0.501685,-0.721719 -0.752527,-1.786697 -0.752526,-3.194935"
       id="path3051" />
    <path
       d="m 31.892582,39.629742 0,1.346625 -2.151961,0 0,6.825543 -1.637074,0 0,-6.825543 -2.15196,0 0,-1.346625 5.940995,0"
       id="path3053" />
  </g>
  <text
     xml:space="preserve"
     style="font-size:22.47918701px;font-style:normal;font-variant:normal;font-weight:normal;font-stretch:normal;text-align:start;line-height:125%;letter-spacing:0px;word-spacing:0px;writing-mode:lr-tb;text-anchor:start;fill:#ffffff;fill-opacity:1;stroke:none;font-family:Ubuntu;-inkscape-font-specification:Ubuntu"
     x="8.9748325"
     y="33.203388"
     id="text3043"
     sodipodi:linespacing="125%"><tspan
       sodipodi:role="line"
       id="tspan3045"
       x="8.9748325"
       y="33.203388">W</tspan></text>
</svg>
