<?xml version="1.0" encoding="UTF-8" standalone="no"?>
<svg
   xmlns:dc="http://purl.org/dc/elements/1.1/"
   xmlns:cc="http://creativecommons.org/ns#"
   xmlns:rdf="http://www.w3.org/1999/02/22-rdf-syntax-ns#"
   xmlns:svg="http://www.w3.org/2000/svg"
   xmlns="http://www.w3.org/2000/svg"
   xmlns:sodipodi="http://sodipodi.sourceforge.net/DTD/sodipodi-0.dtd"
   xmlns:inkscape="http://www.inkscape.org/namespaces/inkscape"
   width="128px"
   height="128px"
   viewBox="0 0 128 128"
   version="1.1"
   id="svg2"
   inkscape:version="0.48.4 r9939"
   sodipodi:docname="application-rtf.svg">
  <metadata
     id="metadata37">
    <rdf:RDF>
      <cc:Work
         rdf:about="">
        <dc:format>image/svg+xml</dc:format>
        <dc:type
           rdf:resource="http://purl.org/dc/dcmitype/StillImage" />
      </cc:Work>
    </rdf:RDF>
  </metadata>
  <defs
     id="defs35" />
  <sodipodi:namedview
     pagecolor="#ffffff"
     bordercolor="#666666"
     borderopacity="1"
     objecttolerance="10"
     gridtolerance="10"
     guidetolerance="10"
     inkscape:pageopacity="0"
     inkscape:pageshadow="2"
     inkscape:window-width="765"
     inkscape:window-height="480"
     id="namedview33"
     showgrid="false"
     inkscape:zoom="1.84375"
     inkscape:cx="-35.79661"
     inkscape:cy="64"
     inkscape:window-x="909"
     inkscape:window-y="162"
     inkscape:window-maximized="0"
     inkscape:current-layer="surface1" />
  <g
     id="surface1">
    <path
       style="stroke:none;fill-rule:nonzero;fill:#5062b0;fill-opacity:1"
       d="M 21.34375 0 C 18.59375 0 16 2.710938 16 5.578125 L 16 122.421875 C 16 125.132812 18.75 128 21.34375 128 L 106.65625 128 C 109.25 128 112 125.132812 112 122.421875 L 112 36 L 76 0 Z M 21.34375 0 "
       id="path5" />
    <path
       style=" stroke:none;fill-rule:nonzero;fill:rgb(0%,0%,0%);fill-opacity:0.196078;"
       d="M 84 36 L 112 64 L 112 36 Z M 84 36 "
       id="path7" />
    <path
       style=" stroke:none;fill-rule:nonzero;fill:rgb(100%,100%,100%);fill-opacity:0.392157;"
       d="M 76 0 L 111.96875 36 L 81.515625 36 C 78.820312 36 76 33.148438 76 30.453125 Z M 76 0 "
       id="path9" />
    <path
       style=" stroke:none;fill-rule:nonzero;fill:rgb(0%,0%,0%);fill-opacity:0.196078;"
       d="M 16 96 L 16 122.671875 C 16 125.265625 18.75 128 21.328125 128 L 106.671875 128 C 109.25 128 112 125.265625 112 122.671875 L 112 96 Z M 16 96 "
       id="path15" />
    <path
       style=" stroke:none;fill-rule:nonzero;fill:rgb(100%,100%,100%);fill-opacity:1;"
       d="M 42.460938 101.609375 C 43.890625 101.609375 45.171875 101.742188 46.335938 102.039062 C 47.484375 102.3125 48.484375 102.757812 49.320312 103.367188 C 50.15625 103.953125 50.78125 104.710938 51.203125 105.648438 C 51.664062 106.546875 51.898438 107.632812 51.898438 108.859375 C 51.898438 110.15625 51.601562 111.320312 51.007812 112.367188 C 50.421875 113.421875 49.4375 114.226562 48.070312 114.765625 C 48.53125 115.390625 49.007812 116.078125 49.515625 116.851562 C 50.023438 117.585938 50.53125 118.375 51.007812 119.210938 C 51.5 120.015625 51.960938 120.835938 52.382812 121.671875 C 52.84375 122.492188 53.226562 123.265625 53.554688 124 L 48.351562 124 C 47.726562 122.570312 47.007812 121.195312 46.171875 119.882812 C 45.367188 118.554688 44.5 117.210938 43.546875 115.851562 L 40.96875 115.851562 L 40.96875 124 L 36 124 L 36 102.1875 C 36.492188 102.085938 37.015625 102 37.578125 101.921875 C 38.164062 101.820312 38.757812 101.773438 39.34375 101.742188 C 39.953125 101.695312 40.507812 101.65625 41.054688 101.640625 C 41.59375 101.609375 42.054688 101.609375 42.460938 101.609375 M 46.859375 108.828125 C 46.859375 107.664062 46.445312 106.8125 45.648438 106.25 C 44.84375 105.710938 43.773438 105.429688 42.460938 105.429688 C 42.265625 105.429688 42.039062 105.445312 41.773438 105.460938 C 41.507812 105.460938 41.234375 105.5 40.96875 105.546875 L 40.96875 112.1875 L 42.054688 112.1875 C 43.742188 112.1875 44.96875 111.914062 45.726562 111.335938 C 46.484375 110.75 46.859375 109.90625 46.859375 108.828125 "
       id="path19" />
    <path
       style=" stroke:none;fill-rule:nonzero;fill:rgb(100%,100%,100%);fill-opacity:1;"
       d="M 73.15625 101.859375 L 73.15625 105.5 L 66.578125 105.5 L 66.578125 124 L 61.570312 124 L 61.570312 105.5 L 55.007812 105.5 L 55.007812 101.859375 L 73.15625 101.859375 "
       id="path21" />
    <path
       style=" stroke:none;fill-rule:nonzero;fill:rgb(100%,100%,100%);fill-opacity:1;"
       d="M 76.710938 124 L 76.710938 101.859375 L 92 101.859375 L 92 105.5 L 81.664062 105.5 L 81.664062 110.875 L 90.703125 110.875 L 90.703125 114.515625 L 81.664062 114.515625 L 81.664062 124 L 76.710938 124 "
       id="path23" />
    <text
       xml:space="preserve"
       style="font-size:63.16839218px;font-style:normal;font-variant:normal;font-weight:normal;font-stretch:normal;text-align:start;line-height:125%;letter-spacing:0px;word-spacing:0px;writing-mode:lr-tb;text-anchor:start;fill:#ffffff;fill-opacity:1;stroke:none;font-family:Ubuntu;-inkscape-font-specification:Ubuntu"
       x="23.541359"
       y="89.434113"
       id="text3043"
       sodipodi:linespacing="125%"><tspan
         sodipodi:role="line"
         id="tspan3045"
         x="23.541359"
         y="89.434113">W</tspan></text>
  </g>
</svg>
