<?xml version="1.0" encoding="UTF-8" standalone="no"?>
<svg
   xmlns:dc="http://purl.org/dc/elements/1.1/"
   xmlns:cc="http://creativecommons.org/ns#"
   xmlns:rdf="http://www.w3.org/1999/02/22-rdf-syntax-ns#"
   xmlns:svg="http://www.w3.org/2000/svg"
   xmlns="http://www.w3.org/2000/svg"
   xmlns:sodipodi="http://sodipodi.sourceforge.net/DTD/sodipodi-0.dtd"
   xmlns:inkscape="http://www.inkscape.org/namespaces/inkscape"
   width="128px"
   height="128px"
   viewBox="0 0 128 128"
   version="1.1"
   id="svg2"
   inkscape:version="0.48.4 r9939"
   sodipodi:docname="application-images.svg">
  <metadata
     id="metadata17">
    <rdf:RDF>
      <cc:Work
         rdf:about="">
        <dc:format>image/svg+xml</dc:format>
        <dc:type
           rdf:resource="http://purl.org/dc/dcmitype/StillImage" />
      </cc:Work>
    </rdf:RDF>
  </metadata>
  <defs
     id="defs15" />
  <sodipodi:namedview
     pagecolor="#ffffff"
     bordercolor="#666666"
     borderopacity="1"
     objecttolerance="10"
     gridtolerance="10"
     guidetolerance="10"
     inkscape:pageopacity="0"
     inkscape:pageshadow="2"
     inkscape:window-width="765"
     inkscape:window-height="480"
     id="namedview13"
     showgrid="false"
     inkscape:zoom="1.84375"
     inkscape:cx="64"
     inkscape:cy="64"
     inkscape:window-x="59"
     inkscape:window-y="34"
     inkscape:window-maximized="0"
     inkscape:current-layer="surface1" />
  <g
     id="surface1">
    <path
       style="stroke:none;fill-rule:nonzero;fill:#075e65;fill-opacity:1"
       d="M 21.34375 0 C 18.59375 0 16 2.710938 16 5.578125 L 16 122.421875 C 16 125.132812 18.75 128 21.34375 128 L 106.65625 128 C 109.25 128 112 125.132812 112 122.421875 L 112 36 L 76 0 Z M 21.34375 0 "
       id="path5" />
    <path
       style=" stroke:none;fill-rule:nonzero;fill:rgb(0%,0%,0%);fill-opacity:0.196078;"
       d="M 84 36 L 112 64 L 112 36 Z M 84 36 "
       id="path7" />
    <path
       style=" stroke:none;fill-rule:nonzero;fill:rgb(100%,100%,100%);fill-opacity:0.392157;"
       d="M 76 0 L 111.96875 36 L 81.515625 36 C 78.820312 36 76 33.148438 76 30.453125 Z M 76 0 "
       id="path9" />
    <path
       style=" stroke:none;fill-rule:nonzero;fill:rgb(100%,100%,100%);fill-opacity:1;"
       d="M 43.09375 48 C 41.40625 48.15625 39.96875 49.953125 40 51.851562 L 40 92.242188 C 40.015625 94.226562 41.601562 96.015625 43.375 96 L 84.710938 96 C 86.453125 95.96875 87.984375 94.210938 88 92.242188 L 88 51.851562 C 88.03125 49.84375 86.484375 48.015625 84.710938 48 Z M 44 52 L 84 52 L 84 80 L 71.914062 67.40625 L 69.078125 70.125 L 64.757812 74.0625 L 62.117188 71.429688 L 55.335938 62.257812 L 44 76 Z M 44 52 "
       id="path11" />
  </g>
</svg>
