<?xml version="1.0" encoding="UTF-8" standalone="no"?>
<svg
   xmlns:dc="http://purl.org/dc/elements/1.1/"
   xmlns:cc="http://creativecommons.org/ns#"
   xmlns:rdf="http://www.w3.org/1999/02/22-rdf-syntax-ns#"
   xmlns:svg="http://www.w3.org/2000/svg"
   xmlns="http://www.w3.org/2000/svg"
   xmlns:sodipodi="http://sodipodi.sourceforge.net/DTD/sodipodi-0.dtd"
   xmlns:inkscape="http://www.inkscape.org/namespaces/inkscape"
   width="128px"
   height="128px"
   viewBox="0 0 128 128"
   version="1.1"
   id="svg2"
   inkscape:version="0.48.4 r9939"
   sodipodi:docname="application-image-tiff.svg">
  <metadata
     id="metadata27">
    <rdf:RDF>
      <cc:Work
         rdf:about="">
        <dc:format>image/svg+xml</dc:format>
        <dc:type
           rdf:resource="http://purl.org/dc/dcmitype/StillImage" />
      </cc:Work>
    </rdf:RDF>
  </metadata>
  <defs
     id="defs25" />
  <sodipodi:namedview
     pagecolor="#ffffff"
     bordercolor="#666666"
     borderopacity="1"
     objecttolerance="10"
     gridtolerance="10"
     guidetolerance="10"
     inkscape:pageopacity="0"
     inkscape:pageshadow="2"
     inkscape:window-width="765"
     inkscape:window-height="480"
     id="namedview23"
     showgrid="false"
     inkscape:zoom="1.84375"
     inkscape:cx="64"
     inkscape:cy="64"
     inkscape:window-x="59"
     inkscape:window-y="34"
     inkscape:window-maximized="0"
     inkscape:current-layer="surface1" />
  <g
     id="surface1">
    <path
       style="stroke:none;fill-rule:nonzero;fill:#075e65;fill-opacity:1"
       d="M 21.34375 0 C 18.59375 0 16 2.710938 16 5.578125 L 16 122.421875 C 16 125.132812 18.75 128 21.34375 128 L 106.65625 128 C 109.25 128 112 125.132812 112 122.421875 L 112 36 L 76 0 Z M 21.34375 0 "
       id="path5" />
    <path
       style=" stroke:none;fill-rule:nonzero;fill:rgb(0%,0%,0%);fill-opacity:0.196078;"
       d="M 84 36 L 112 64 L 112 36 Z M 84 36 "
       id="path7" />
    <path
       style=" stroke:none;fill-rule:nonzero;fill:rgb(100%,100%,100%);fill-opacity:0.392157;"
       d="M 76 0 L 111.96875 36 L 81.515625 36 C 78.820312 36 76 33.148438 76 30.453125 Z M 76 0 "
       id="path9" />
    <path
       style=" stroke:none;fill-rule:nonzero;fill:rgb(100%,100%,100%);fill-opacity:1;"
       d="M 46.578125 44 C 45.171875 44.132812 43.96875 45.625 44 47.210938 L 44 80.867188 C 44.015625 82.523438 45.335938 84.015625 46.8125 84 L 81.257812 84 C 82.710938 83.96875 83.984375 82.507812 84 80.867188 L 84 47.210938 C 84.03125 45.539062 82.742188 44.015625 81.257812 44 Z M 48 48 L 80 48 L 80 70.804688 L 70.59375 60.171875 L 68.234375 62.4375 L 64.632812 65.71875 L 62.429688 63.523438 L 56.773438 55.875 L 48 67.195312 Z M 48 48 "
       id="path11" />
    <path
       style=" stroke:none;fill-rule:nonzero;fill:rgb(0%,0%,0%);fill-opacity:0.196078;"
       d="M 16 96 L 16 122.671875 C 16 125.265625 18.75 128 21.328125 128 L 106.671875 128 C 109.25 128 112 125.265625 112 122.671875 L 112 96 Z M 16 96 "
       id="path13" />
    <path
       style=" stroke:none;fill-rule:nonzero;fill:rgb(100%,100%,100%);fill-opacity:1;"
       d="M 44.929688 101.867188 L 44.929688 105.515625 L 38.8125 105.515625 L 38.8125 124 L 34.15625 124 L 34.15625 105.515625 L 28.03125 105.515625 L 28.03125 101.867188 L 44.929688 101.867188 "
       id="path15" />
    <path
       style=" stroke:none;fill-rule:nonzero;fill:rgb(100%,100%,100%);fill-opacity:1;"
       d="M 47.890625 124 L 47.890625 120.351562 L 52.953125 120.351562 L 52.953125 105.515625 L 47.890625 105.515625 L 47.890625 101.867188 L 62.648438 101.867188 L 62.648438 105.515625 L 57.609375 105.515625 L 57.609375 120.351562 L 62.648438 120.351562 L 62.648438 124 L 47.890625 124 "
       id="path17" />
    <path
       style=" stroke:none;fill-rule:nonzero;fill:rgb(100%,100%,100%);fill-opacity:1;"
       d="M 67 124 L 67 101.867188 L 81.21875 101.867188 L 81.21875 105.515625 L 71.617188 105.515625 L 71.617188 110.882812 L 80.023438 110.882812 L 80.023438 114.53125 L 71.617188 114.53125 L 71.617188 124 L 67 124 "
       id="path19" />
    <path
       style=" stroke:none;fill-rule:nonzero;fill:rgb(100%,100%,100%);fill-opacity:1;"
       d="M 85.757812 124 L 85.757812 101.867188 L 100 101.867188 L 100 105.515625 L 90.382812 105.515625 L 90.382812 110.882812 L 98.796875 110.882812 L 98.796875 114.53125 L 90.382812 114.53125 L 90.382812 124 L 85.757812 124 "
       id="path21" />
  </g>
</svg>
