<?xml version="1.0" encoding="UTF-8" standalone="no"?>
<svg
   xmlns:dc="http://purl.org/dc/elements/1.1/"
   xmlns:cc="http://creativecommons.org/ns#"
   xmlns:rdf="http://www.w3.org/1999/02/22-rdf-syntax-ns#"
   xmlns:svg="http://www.w3.org/2000/svg"
   xmlns="http://www.w3.org/2000/svg"
   xmlns:sodipodi="http://sodipodi.sourceforge.net/DTD/sodipodi-0.dtd"
   xmlns:inkscape="http://www.inkscape.org/namespaces/inkscape"
   width="128px"
   height="128px"
   viewBox="0 0 128 128"
   version="1.1"
   id="svg2"
   inkscape:version="0.48.4 r9939"
   sodipodi:docname="application-x-lha.svg">
  <metadata
     id="metadata35">
    <rdf:RDF>
      <cc:Work
         rdf:about="">
        <dc:format>image/svg+xml</dc:format>
        <dc:type
           rdf:resource="http://purl.org/dc/dcmitype/StillImage" />
      </cc:Work>
    </rdf:RDF>
  </metadata>
  <defs
     id="defs33" />
  <sodipodi:namedview
     pagecolor="#ffffff"
     bordercolor="#666666"
     borderopacity="1"
     objecttolerance="10"
     gridtolerance="10"
     guidetolerance="10"
     inkscape:pageopacity="0"
     inkscape:pageshadow="2"
     inkscape:window-width="765"
     inkscape:window-height="480"
     id="namedview31"
     showgrid="false"
     inkscape:zoom="1.84375"
     inkscape:cx="64"
     inkscape:cy="64"
     inkscape:window-x="59"
     inkscape:window-y="34"
     inkscape:window-maximized="0"
     inkscape:current-layer="surface1" />
  <g
     id="surface1">
    <path
       style="stroke:none;fill-rule:nonzero;fill:#45606e;fill-opacity:1"
       d="M 21.34375 0 C 18.59375 0 16 2.710938 16 5.578125 L 16 122.421875 C 16 125.132812 18.75 128 21.34375 128 L 106.65625 128 C 109.25 128 112 125.132812 112 122.421875 L 112 36 L 76 0 Z M 21.34375 0 "
       id="path5" />
    <path
       style=" stroke:none;fill-rule:nonzero;fill:rgb(0%,0%,0%);fill-opacity:0.196078;"
       d="M 16 96 L 16 122.671875 C 16 125.265625 18.75 128 21.328125 128 L 106.671875 128 C 109.25 128 112 125.265625 112 122.671875 L 112 96 Z M 16 96 "
       id="path7" />
    <path
       style=" stroke:none;fill-rule:nonzero;fill:rgb(0%,0%,0%);fill-opacity:0.196078;"
       d="M 84 36 L 112 64 L 112 36 Z M 84 36 "
       id="path9" />
    <path
       style=" stroke:none;fill-rule:nonzero;fill:rgb(100%,100%,100%);fill-opacity:1;"
       d="M 51.414062 124 L 36 124 L 36 101.5 L 40.914062 101.5 L 40.914062 120.289062 L 51.414062 120.289062 L 51.414062 124 "
       id="path11" />
    <path
       style=" stroke:none;fill-rule:nonzero;fill:rgb(100%,100%,100%);fill-opacity:0.392157;"
       d="M 76 0 L 111.96875 36 L 81.515625 36 C 78.820312 36 76 33.148438 76 30.453125 Z M 76 0 "
       id="path13" />
    <path
       style=" stroke:none;fill-rule:nonzero;fill:rgb(100%,100%,100%);fill-opacity:1;"
       d="M 71.03125 101.5 L 71.03125 124 L 66.164062 124 L 66.164062 114.078125 L 59.65625 114.078125 L 59.65625 124 L 54.789062 124 L 54.789062 101.5 L 59.65625 101.5 L 59.65625 110.367188 L 66.164062 110.367188 L 66.164062 101.5 L 71.03125 101.5 "
       id="path15" />
    <path
       style=" stroke:none;fill-rule:evenodd;fill:rgb(97.647059%,97.647059%,97.647059%);fill-opacity:1;"
       d="M 36 0 L 48 0 L 48 12 L 36 12 Z M 36 0 "
       id="path17" />
    <path
       style=" stroke:none;fill-rule:nonzero;fill:rgb(100%,100%,100%);fill-opacity:1;"
       d="M 87.03125 124 L 85.898438 118.804688 L 79.351562 118.804688 L 78.25 124 L 73.171875 124 C 74.34375 119.5625 75.507812 115.53125 76.695312 111.898438 C 77.882812 108.226562 79.039062 104.765625 80.140625 101.5 L 85.453125 101.5 C 86.617188 104.796875 87.757812 108.289062 88.898438 112 C 90.0625 115.695312 91.1875 119.679688 92.273438 124 L 87.03125 124 M 82.679688 105.851562 C 82.414062 106.710938 82.171875 107.515625 81.921875 108.289062 C 81.710938 109.046875 81.507812 109.789062 81.296875 110.546875 C 81.117188 111.273438 80.914062 112.015625 80.734375 112.757812 C 80.585938 113.515625 80.421875 114.289062 80.257812 115.101562 L 85.054688 115.101562 C 84.90625 114.289062 84.742188 113.515625 84.578125 112.757812 C 84.429688 112.015625 84.25 111.273438 84.03125 110.546875 C 83.835938 109.789062 83.640625 109.046875 83.390625 108.289062 C 83.179688 107.515625 82.945312 106.710938 82.679688 105.851562 "
       id="path19" />
    <path
       style=" stroke:none;fill-rule:evenodd;fill:rgb(97.647059%,97.647059%,97.647059%);fill-opacity:1;"
       d="M 48 12 L 60 12 L 60 24 L 48 24 Z M 48 12 "
       id="path21" />
    <path
       style=" stroke:none;fill-rule:evenodd;fill:rgb(97.647059%,97.647059%,97.647059%);fill-opacity:1;"
       d="M 36 24 L 48 24 L 48 36 L 36 36 Z M 36 24 "
       id="path23" />
    <path
       style=" stroke:none;fill-rule:evenodd;fill:rgb(97.647059%,97.647059%,97.647059%);fill-opacity:1;"
       d="M 48 36 L 60 36 L 60 48 L 48 48 Z M 48 36 "
       id="path25" />
    <path
       style=" stroke:none;fill-rule:evenodd;fill:rgb(97.647059%,97.647059%,97.647059%);fill-opacity:1;"
       d="M 36 48 L 48 48 L 48 60 L 36 60 Z M 36 48 "
       id="path27" />
    <path
       style=" stroke:none;fill-rule:evenodd;fill:rgb(97.647059%,97.647059%,97.647059%);fill-opacity:1;"
       d="M 36 64 L 60 64 L 60 88 L 36 88 Z M 36 64 "
       id="path29" />
  </g>
</svg>
