<?xml version="1.0" encoding="UTF-8" standalone="no"?>
<svg
   xmlns:dc="http://purl.org/dc/elements/1.1/"
   xmlns:cc="http://creativecommons.org/ns#"
   xmlns:rdf="http://www.w3.org/1999/02/22-rdf-syntax-ns#"
   xmlns:svg="http://www.w3.org/2000/svg"
   xmlns="http://www.w3.org/2000/svg"
   xmlns:sodipodi="http://sodipodi.sourceforge.net/DTD/sodipodi-0.dtd"
   xmlns:inkscape="http://www.inkscape.org/namespaces/inkscape"
   width="128px"
   height="128px"
   viewBox="0 0 128 128"
   version="1.1"
   id="svg2"
   inkscape:version="0.48.4 r9939"
   sodipodi:docname="application-x-compressed-tar.svg">
  <metadata
     id="metadata35">
    <rdf:RDF>
      <cc:Work
         rdf:about="">
        <dc:format>image/svg+xml</dc:format>
        <dc:type
           rdf:resource="http://purl.org/dc/dcmitype/StillImage" />
      </cc:Work>
    </rdf:RDF>
  </metadata>
  <defs
     id="defs33" />
  <sodipodi:namedview
     pagecolor="#ffffff"
     bordercolor="#666666"
     borderopacity="1"
     objecttolerance="10"
     gridtolerance="10"
     guidetolerance="10"
     inkscape:pageopacity="0"
     inkscape:pageshadow="2"
     inkscape:window-width="765"
     inkscape:window-height="480"
     id="namedview31"
     showgrid="false"
     inkscape:zoom="1.84375"
     inkscape:cx="64"
     inkscape:cy="64"
     inkscape:window-x="59"
     inkscape:window-y="34"
     inkscape:window-maximized="0"
     inkscape:current-layer="surface1" />
  <g
     id="surface1">
    <path
       style="stroke:none;fill-rule:nonzero;fill:#45606e;fill-opacity:1"
       d="M 21.34375 0 C 18.59375 0 16 2.710938 16 5.578125 L 16 122.421875 C 16 125.132812 18.75 128 21.34375 128 L 106.65625 128 C 109.25 128 112 125.132812 112 122.421875 L 112 36 L 76 0 Z M 21.34375 0 "
       id="path5" />
    <path
       style=" stroke:none;fill-rule:nonzero;fill:rgb(0%,0%,0%);fill-opacity:0.196078;"
       d="M 16 96 L 16 122.671875 C 16 125.265625 18.75 128 21.328125 128 L 106.671875 128 C 109.25 128 112 125.265625 112 122.671875 L 112 96 Z M 16 96 "
       id="path7" />
    <path
       style=" stroke:none;fill-rule:nonzero;fill:rgb(100%,100%,100%);fill-opacity:1;"
       d="M 53.757812 102.390625 L 53.757812 105.953125 L 47.335938 105.953125 L 47.335938 123.976562 L 42.453125 123.976562 L 42.453125 105.953125 L 36.015625 105.953125 L 36.015625 102.390625 L 53.757812 102.390625 "
       id="path9" />
    <path
       style=" stroke:none;fill-rule:nonzero;fill:rgb(0%,0%,0%);fill-opacity:0.196078;"
       d="M 84 36 L 112 64 L 112 36 Z M 84 36 "
       id="path11" />
    <path
       style=" stroke:none;fill-rule:nonzero;fill:rgb(100%,100%,100%);fill-opacity:1;"
       d="M 67.046875 105.640625 C 65.890625 105.640625 64.914062 105.820312 64.125 106.203125 C 63.34375 106.5625 62.6875 107.09375 62.15625 107.765625 C 61.664062 108.414062 61.28125 109.203125 61.054688 110.125 C 60.835938 111.039062 60.742188 112.0625 60.742188 113.164062 C 60.742188 115.757812 61.203125 117.65625 62.125 118.890625 C 63.03125 120.09375 64.390625 120.710938 66.1875 120.710938 C 66.46875 120.710938 66.78125 120.6875 67.125 120.671875 C 67.476562 120.640625 67.789062 120.609375 68.070312 120.5625 L 68.070312 112.6875 L 72.921875 112.6875 L 72.921875 123.460938 C 72.34375 123.648438 71.4375 123.859375 70.195312 124.09375 C 68.992188 124.320312 67.523438 124.4375 65.789062 124.4375 C 64.257812 124.4375 62.882812 124.203125 61.648438 123.742188 C 60.445312 123.25 59.40625 122.539062 58.53125 121.617188 C 57.671875 120.65625 56.992188 119.484375 56.515625 118.085938 C 56.054688 116.664062 55.804688 115.03125 55.804688 113.164062 C 55.804688 111.335938 56.085938 109.71875 56.648438 108.328125 C 57.1875 106.90625 57.9375 105.71875 58.890625 104.765625 C 59.835938 103.804688 60.953125 103.09375 62.242188 102.632812 C 63.53125 102.140625 64.898438 101.90625 66.382812 101.90625 C 67.328125 101.90625 68.164062 101.976562 68.890625 102.109375 C 69.671875 102.21875 70.3125 102.367188 70.875 102.539062 C 71.421875 102.703125 71.867188 102.867188 72.210938 103.046875 C 72.570312 103.242188 72.851562 103.375 73.039062 103.476562 L 71.78125 106.890625 C 71.203125 106.5625 70.492188 106.28125 69.65625 106.015625 C 68.8125 105.773438 67.9375 105.640625 67.046875 105.640625 "
       id="path13" />
    <path
       style=" stroke:none;fill-rule:nonzero;fill:rgb(100%,100%,100%);fill-opacity:0.392157;"
       d="M 76 0 L 111.96875 36 L 81.515625 36 C 78.820312 36 76 33.148438 76 30.453125 Z M 76 0 "
       id="path15" />
    <path
       style=" stroke:none;fill-rule:nonzero;fill:rgb(100%,100%,100%);fill-opacity:1;"
       d="M 92 105.390625 C 90.875 106.929688 89.835938 108.359375 88.882812 109.71875 C 87.9375 111.070312 87.0625 112.359375 86.242188 113.59375 C 85.429688 114.796875 84.65625 115.96875 83.929688 117.109375 C 83.21875 118.234375 82.523438 119.335938 81.867188 120.429688 L 92.359375 120.429688 L 92.359375 123.976562 L 76.273438 123.976562 L 76.273438 121.5 C 76.851562 120.507812 77.476562 119.453125 78.117188 118.367188 C 78.78125 117.257812 79.523438 116.070312 80.328125 114.8125 C 81.15625 113.5625 82.03125 112.1875 82.96875 110.71875 C 83.945312 109.273438 85.015625 107.671875 86.171875 105.953125 L 76.78125 105.953125 L 76.78125 102.390625 L 92 102.390625 L 92 105.390625 "
       id="path17" />
    <path
       style=" stroke:none;fill-rule:evenodd;fill:rgb(97.647059%,97.647059%,97.647059%);fill-opacity:1;"
       d="M 36 0 L 48 0 L 48 12 L 36 12 Z M 36 0 "
       id="path19" />
    <path
       style=" stroke:none;fill-rule:evenodd;fill:rgb(97.647059%,97.647059%,97.647059%);fill-opacity:1;"
       d="M 48 12 L 60 12 L 60 24 L 48 24 Z M 48 12 "
       id="path21" />
    <path
       style=" stroke:none;fill-rule:evenodd;fill:rgb(97.647059%,97.647059%,97.647059%);fill-opacity:1;"
       d="M 36 24 L 48 24 L 48 36 L 36 36 Z M 36 24 "
       id="path23" />
    <path
       style=" stroke:none;fill-rule:evenodd;fill:rgb(97.647059%,97.647059%,97.647059%);fill-opacity:1;"
       d="M 48 36 L 60 36 L 60 48 L 48 48 Z M 48 36 "
       id="path25" />
    <path
       style=" stroke:none;fill-rule:evenodd;fill:rgb(97.647059%,97.647059%,97.647059%);fill-opacity:1;"
       d="M 36 48 L 48 48 L 48 60 L 36 60 Z M 36 48 "
       id="path27" />
    <path
       style=" stroke:none;fill-rule:evenodd;fill:rgb(97.647059%,97.647059%,97.647059%);fill-opacity:1;"
       d="M 36 64 L 60 64 L 60 88 L 36 88 Z M 36 64 "
       id="path29" />
  </g>
</svg>
