<?xml version="1.0" encoding="UTF-8" standalone="no"?>
<svg
   xmlns:dc="http://purl.org/dc/elements/1.1/"
   xmlns:cc="http://creativecommons.org/ns#"
   xmlns:rdf="http://www.w3.org/1999/02/22-rdf-syntax-ns#"
   xmlns:svg="http://www.w3.org/2000/svg"
   xmlns="http://www.w3.org/2000/svg"
   xmlns:sodipodi="http://sodipodi.sourceforge.net/DTD/sodipodi-0.dtd"
   xmlns:inkscape="http://www.inkscape.org/namespaces/inkscape"
   width="128px"
   height="128px"
   viewBox="0 0 128 128"
   version="1.1"
   id="svg2"
   inkscape:version="0.48.4 r9939"
   sodipodi:docname="application-audio-playlist.svg">
  <metadata
     id="metadata29">
    <rdf:RDF>
      <cc:Work
         rdf:about="">
        <dc:format>image/svg+xml</dc:format>
        <dc:type
           rdf:resource="http://purl.org/dc/dcmitype/StillImage" />
      </cc:Work>
    </rdf:RDF>
  </metadata>
  <defs
     id="defs27" />
  <sodipodi:namedview
     pagecolor="#ffffff"
     bordercolor="#666666"
     borderopacity="1"
     objecttolerance="10"
     gridtolerance="10"
     guidetolerance="10"
     inkscape:pageopacity="0"
     inkscape:pageshadow="2"
     inkscape:window-width="765"
     inkscape:window-height="480"
     id="namedview25"
     showgrid="false"
     inkscape:zoom="1.84375"
     inkscape:cx="64"
     inkscape:cy="64"
     inkscape:window-x="500"
     inkscape:window-y="203"
     inkscape:window-maximized="0"
     inkscape:current-layer="surface1" />
  <g
     id="surface1">
    <path
       style="stroke:none;fill-rule:nonzero;fill:#2e4c7e;fill-opacity:1"
       d="M 21.34375 0 C 18.59375 0 16 2.710938 16 5.578125 L 16 122.421875 C 16 125.132812 18.75 128 21.34375 128 L 106.65625 128 C 109.25 128 112 125.132812 112 122.421875 L 112 36 L 76 0 Z M 21.34375 0 "
       id="path5" />
    <path
       style=" stroke:none;fill-rule:nonzero;fill:rgb(0%,0%,0%);fill-opacity:0.196078;"
       d="M 84 36 L 112 64 L 112 36 Z M 84 36 "
       id="path7" />
    <path
       style=" stroke:none;fill-rule:nonzero;fill:rgb(100%,100%,100%);fill-opacity:0.392157;"
       d="M 76 0 L 111.96875 36 L 81.515625 36 C 78.820312 36 76 33.148438 76 30.453125 Z M 76 0 "
       id="path9" />
    <path
       style=" stroke:none;fill-rule:nonzero;fill:rgb(100%,100%,100%);fill-opacity:1;"
       d="M 53.875 53.8125 C 50.765625 54.59375 48.15625 57.453125 48.15625 57.453125 L 48.234375 57.53125 L 53.21875 76.03125 C 49.65625 74.09375 44.578125 74.578125 40.375 77.625 C 34.9375 81.546875 33.046875 88.234375 36.1875 92.546875 C 39.34375 96.875 46.28125 97.171875 51.71875 93.25 C 56 90.140625 58.375 85.265625 57.515625 81.265625 C 57.5 81.140625 57.453125 81.015625 57.421875 80.890625 L 52.640625 62.40625 C 52.75 62.25 54.15625 61.609375 58.65625 61.296875 C 63.4375 60.984375 66.671875 53.328125 66.671875 53.328125 C 66.671875 53.328125 61.296875 55.390625 57.078125 53.90625 C 56.015625 53.53125 54.90625 53.546875 53.875 53.8125 Z M 53.875 53.8125 "
       id="path11" />
    <path
       style=" stroke:none;fill-rule:nonzero;fill:rgb(100%,100%,100%);fill-opacity:1;"
       d="M 72 56 L 72 52 L 92 52 L 92 56 Z M 72 56 "
       id="path13" />
    <path
       style=" stroke:none;fill-rule:nonzero;fill:rgb(100%,100%,100%);fill-opacity:1;"
       d="M 60 68 L 60 72 L 92 72 L 92 68 Z M 60 68 "
       id="path15" />
    <path
       style=" stroke:none;fill-rule:nonzero;fill:rgb(100%,100%,100%);fill-opacity:1;"
       d="M 68 64 L 68 60 L 92 60 L 92 64 Z M 68 64 "
       id="path17" />
    <path
       style=" stroke:none;fill-rule:nonzero;fill:rgb(100%,100%,100%);fill-opacity:1;"
       d="M 64 76 L 64 80 L 92 80 L 92 76 Z M 64 76 "
       id="path19" />
    <path
       style=" stroke:none;fill-rule:nonzero;fill:rgb(100%,100%,100%);fill-opacity:1;"
       d="M 64 84 L 64 88 L 92 88 L 92 84 Z M 64 84 "
       id="path21" />
    <path
       style=" stroke:none;fill-rule:nonzero;fill:rgb(100%,100%,100%);fill-opacity:1;"
       d="M 60 92 L 60 96 L 92 96 L 92 92 Z M 60 92 "
       id="path23" />
  </g>
</svg>
