<?xml version="1.0" encoding="UTF-8" standalone="no"?>
<svg
   xmlns:dc="http://purl.org/dc/elements/1.1/"
   xmlns:cc="http://creativecommons.org/ns#"
   xmlns:rdf="http://www.w3.org/1999/02/22-rdf-syntax-ns#"
   xmlns:svg="http://www.w3.org/2000/svg"
   xmlns="http://www.w3.org/2000/svg"
   xmlns:sodipodi="http://sodipodi.sourceforge.net/DTD/sodipodi-0.dtd"
   xmlns:inkscape="http://www.inkscape.org/namespaces/inkscape"
   width="128px"
   height="128px"
   viewBox="0 0 128 128"
   version="1.1"
   id="svg2"
   inkscape:version="0.48.4 r9939"
   sodipodi:docname="application-vnd.oasis.opendocument.text-template.svg">
  <metadata
     id="metadata33">
    <rdf:RDF>
      <cc:Work
         rdf:about="">
        <dc:format>image/svg+xml</dc:format>
        <dc:type
           rdf:resource="http://purl.org/dc/dcmitype/StillImage" />
      </cc:Work>
    </rdf:RDF>
  </metadata>
  <defs
     id="defs31" />
  <sodipodi:namedview
     pagecolor="#ffffff"
     bordercolor="#666666"
     borderopacity="1"
     objecttolerance="10"
     gridtolerance="10"
     guidetolerance="10"
     inkscape:pageopacity="0"
     inkscape:pageshadow="2"
     inkscape:window-width="765"
     inkscape:window-height="480"
     id="namedview29"
     showgrid="false"
     inkscape:zoom="1.84375"
     inkscape:cx="1.0847458"
     inkscape:cy="64"
     inkscape:window-x="770"
     inkscape:window-y="339"
     inkscape:window-maximized="0"
     inkscape:current-layer="surface1" />
  <g
     id="surface1">
    <path
       style="stroke:none;fill-rule:nonzero;fill:#5062b0;fill-opacity:1"
       d="M 21.375 0 C 18.625 0 16 2.757812 16 5.625 L 16 122.375 C 16 125.078125 18.78125 128 21.375 128 L 106.625 128 C 109.21875 128 112 125.078125 112 122.375 L 112 5.5 C 112 2.804688 109.195312 0 106.5 0 Z M 21.375 0 "
       id="path5" />
    <path
       style=" stroke:none;fill-rule:nonzero;fill:rgb(0%,0%,0%);fill-opacity:0.196078;"
       d="M 16 96 L 16 122.671875 C 16 125.265625 18.75 128 21.328125 128 L 106.671875 128 C 109.25 128 112 125.265625 112 122.671875 L 112 96 Z M 16 96 "
       id="path21" />
    <path
       style=" stroke:none;fill-rule:nonzero;fill:rgb(100%,100%,100%);fill-opacity:1;"
       d="M 40.625 113.195312 C 40.625 114.242188 40.65625 115.234375 40.742188 116.15625 C 40.84375 117.0625 41.023438 117.851562 41.289062 118.53125 C 41.5625 119.203125 41.960938 119.734375 42.453125 120.125 C 42.953125 120.523438 43.609375 120.71875 44.429688 120.71875 C 45.242188 120.71875 45.882812 120.523438 46.375 120.125 C 46.890625 119.734375 47.28125 119.203125 47.546875 118.53125 C 47.828125 117.820312 48.007812 117.03125 48.09375 116.125 C 48.1875 115.21875 48.234375 114.242188 48.234375 113.195312 C 48.234375 112.15625 48.1875 111.179688 48.09375 110.273438 C 48.007812 109.335938 47.828125 108.546875 47.546875 107.867188 C 47.28125 107.195312 46.90625 106.664062 46.40625 106.273438 C 45.914062 105.875 45.257812 105.679688 44.429688 105.679688 C 43.609375 105.679688 42.953125 105.875 42.453125 106.273438 C 41.960938 106.664062 41.5625 107.210938 41.289062 107.90625 C 41.023438 108.578125 40.84375 109.367188 40.742188 110.273438 C 40.65625 111.179688 40.625 112.15625 40.625 113.195312 M 35.765625 113.195312 C 35.765625 109.484375 36.539062 106.679688 38.054688 104.804688 C 39.585938 102.890625 41.710938 101.953125 44.429688 101.953125 C 47.25 101.953125 49.40625 102.890625 50.875 104.804688 C 52.359375 106.679688 53.101562 109.484375 53.101562 113.195312 C 53.101562 116.914062 52.34375 119.71875 50.84375 121.625 C 49.34375 123.507812 47.21875 124.445312 44.46875 124.445312 C 41.648438 124.445312 39.492188 123.507812 37.992188 121.625 C 36.507812 119.71875 35.765625 116.914062 35.765625 113.195312 "
       id="path23" />
    <path
       style=" stroke:none;fill-rule:nonzero;fill:rgb(100%,100%,100%);fill-opacity:1;"
       d="M 72.59375 102.429688 L 72.59375 105.992188 L 66.265625 105.992188 L 66.265625 124 L 61.4375 124 L 61.4375 105.992188 L 55.109375 105.992188 L 55.109375 102.429688 L 72.59375 102.429688 "
       id="path25" />
    <path
       style=" stroke:none;fill-rule:nonzero;fill:rgb(100%,100%,100%);fill-opacity:1;"
       d="M 92.015625 102.429688 L 92.015625 105.992188 L 85.671875 105.992188 L 85.671875 124 L 80.859375 124 L 80.859375 105.992188 L 74.53125 105.992188 L 74.53125 102.429688 L 92.015625 102.429688 "
       id="path27" />
    <text
       xml:space="preserve"
       style="font-size:63.16839218px;font-style:normal;font-variant:normal;font-weight:normal;font-stretch:normal;text-align:start;line-height:125%;letter-spacing:0px;word-spacing:0px;writing-mode:lr-tb;text-anchor:start;fill:#ffffff;fill-opacity:1;stroke:none;font-family:Ubuntu;-inkscape-font-specification:Ubuntu"
       x="23.541359"
       y="89.434113"
       id="text3043"
       sodipodi:linespacing="125%"><tspan
         sodipodi:role="line"
         id="tspan3045"
         x="23.541359"
         y="89.434113">W</tspan></text>
  </g>
</svg>
