<?xml version="1.0" encoding="UTF-8" standalone="no"?>
<svg
   xmlns:dc="http://purl.org/dc/elements/1.1/"
   xmlns:cc="http://creativecommons.org/ns#"
   xmlns:rdf="http://www.w3.org/1999/02/22-rdf-syntax-ns#"
   xmlns:svg="http://www.w3.org/2000/svg"
   xmlns="http://www.w3.org/2000/svg"
   xmlns:sodipodi="http://sodipodi.sourceforge.net/DTD/sodipodi-0.dtd"
   xmlns:inkscape="http://www.inkscape.org/namespaces/inkscape"
   width="128px"
   height="128px"
   viewBox="0 0 128 128"
   version="1.1"
   id="svg2"
   inkscape:version="0.48.4 r9939"
   sodipodi:docname="application-x-tar.svg">
  <metadata
     id="metadata35">
    <rdf:RDF>
      <cc:Work
         rdf:about="">
        <dc:format>image/svg+xml</dc:format>
        <dc:type
           rdf:resource="http://purl.org/dc/dcmitype/StillImage" />
      </cc:Work>
    </rdf:RDF>
  </metadata>
  <defs
     id="defs33" />
  <sodipodi:namedview
     pagecolor="#ffffff"
     bordercolor="#666666"
     borderopacity="1"
     objecttolerance="10"
     gridtolerance="10"
     guidetolerance="10"
     inkscape:pageopacity="0"
     inkscape:pageshadow="2"
     inkscape:window-width="765"
     inkscape:window-height="480"
     id="namedview31"
     showgrid="false"
     inkscape:zoom="1.84375"
     inkscape:cx="64"
     inkscape:cy="64"
     inkscape:window-x="59"
     inkscape:window-y="34"
     inkscape:window-maximized="0"
     inkscape:current-layer="surface1" />
  <g
     id="surface1">
    <path
       style="stroke:none;fill-rule:nonzero;fill:#45606e;fill-opacity:1"
       d="M 21.34375 0 C 18.59375 0 16 2.710938 16 5.578125 L 16 122.421875 C 16 125.132812 18.75 128 21.34375 128 L 106.65625 128 C 109.25 128 112 125.132812 112 122.421875 L 112 36 L 76 0 Z M 21.34375 0 "
       id="path5" />
    <path
       style=" stroke:none;fill-rule:nonzero;fill:rgb(0%,0%,0%);fill-opacity:0.196078;"
       d="M 16 96 L 16 122.671875 C 16 125.265625 18.75 128 21.328125 128 L 106.671875 128 C 109.25 128 112 125.265625 112 122.671875 L 112 96 Z M 16 96 "
       id="path7" />
    <path
       style=" stroke:none;fill-rule:nonzero;fill:rgb(0%,0%,0%);fill-opacity:0.196078;"
       d="M 84 36 L 112 64 L 112 36 Z M 84 36 "
       id="path9" />
    <path
       style=" stroke:none;fill-rule:nonzero;fill:rgb(100%,100%,100%);fill-opacity:0.392157;"
       d="M 76 0 L 111.96875 36 L 81.515625 36 C 78.820312 36 76 33.148438 76 30.453125 Z M 76 0 "
       id="path11" />
    <path
       style=" stroke:none;fill-rule:evenodd;fill:rgb(97.647059%,97.647059%,97.647059%);fill-opacity:1;"
       d="M 36 0 L 48 0 L 48 12 L 36 12 Z M 36 0 "
       id="path13" />
    <path
       style=" stroke:none;fill-rule:evenodd;fill:rgb(97.647059%,97.647059%,97.647059%);fill-opacity:1;"
       d="M 48 12 L 60 12 L 60 24 L 48 24 Z M 48 12 "
       id="path15" />
    <path
       style=" stroke:none;fill-rule:evenodd;fill:rgb(97.647059%,97.647059%,97.647059%);fill-opacity:1;"
       d="M 36 24 L 48 24 L 48 36 L 36 36 Z M 36 24 "
       id="path17" />
    <path
       style=" stroke:none;fill-rule:evenodd;fill:rgb(97.647059%,97.647059%,97.647059%);fill-opacity:1;"
       d="M 48 36 L 60 36 L 60 48 L 48 48 Z M 48 36 "
       id="path19" />
    <path
       style=" stroke:none;fill-rule:evenodd;fill:rgb(97.647059%,97.647059%,97.647059%);fill-opacity:1;"
       d="M 36 48 L 48 48 L 48 60 L 36 60 Z M 36 48 "
       id="path21" />
    <path
       style=" stroke:none;fill-rule:evenodd;fill:rgb(97.647059%,97.647059%,97.647059%);fill-opacity:1;"
       d="M 36 64 L 60 64 L 60 88 L 36 88 Z M 36 64 "
       id="path23" />
    <path
       style=" stroke:none;fill-rule:nonzero;fill:rgb(100%,100%,100%);fill-opacity:1;"
       d="M 53.234375 101.851562 L 53.234375 105.492188 L 46.984375 105.492188 L 46.984375 124 L 42.242188 124 L 42.242188 105.492188 L 36.007812 105.492188 L 36.007812 101.851562 L 53.234375 101.851562 "
       id="path25" />
    <path
       style=" stroke:none;fill-rule:nonzero;fill:rgb(100%,100%,100%);fill-opacity:1;"
       d="M 67.921875 124 L 66.804688 118.882812 L 60.507812 118.882812 L 59.421875 124 L 54.53125 124 C 55.648438 119.632812 56.78125 115.664062 57.929688 112.085938 C 59.078125 108.484375 60.195312 105.070312 61.257812 101.851562 L 66.390625 101.851562 C 67.507812 105.101562 68.625 108.546875 69.710938 112.1875 C 70.84375 115.8125 71.921875 119.75 72.976562 124 L 67.921875 124 M 63.703125 106.148438 C 63.460938 106.984375 63.210938 107.773438 62.984375 108.546875 C 62.78125 109.28125 62.570312 110.023438 62.375 110.757812 C 62.195312 111.484375 62.015625 112.203125 61.835938 112.945312 C 61.6875 113.679688 61.523438 114.453125 61.375 115.242188 L 66 115.242188 C 65.851562 114.453125 65.703125 113.679688 65.539062 112.945312 C 65.390625 112.203125 65.210938 111.484375 65.015625 110.757812 C 64.835938 110.023438 64.625 109.28125 64.390625 108.546875 C 64.195312 107.773438 63.96875 106.984375 63.703125 106.148438 "
       id="path27" />
    <path
       style=" stroke:none;fill-rule:nonzero;fill:rgb(100%,100%,100%);fill-opacity:1;"
       d="M 81.5 101.609375 C 82.851562 101.609375 84.0625 101.734375 85.164062 102.03125 C 86.257812 102.3125 87.210938 102.757812 88 103.359375 C 88.789062 103.953125 89.390625 104.710938 89.789062 105.640625 C 90.234375 106.546875 90.445312 107.625 90.445312 108.859375 C 90.445312 110.15625 90.164062 111.320312 89.609375 112.367188 C 89.046875 113.421875 88.117188 114.21875 86.820312 114.765625 C 87.242188 115.390625 87.703125 116.078125 88.195312 116.84375 C 88.671875 117.585938 89.148438 118.375 89.609375 119.210938 C 90.070312 120.015625 90.492188 120.835938 90.90625 121.671875 C 91.328125 122.492188 91.710938 123.265625 92.015625 124 L 87.078125 124 C 86.492188 122.570312 85.804688 121.195312 85.015625 119.882812 C 84.242188 118.554688 83.421875 117.210938 82.523438 115.84375 L 80.078125 115.84375 L 80.078125 124 L 75.367188 124 L 75.367188 102.179688 C 75.828125 102.085938 76.335938 102 76.859375 101.921875 C 77.4375 101.820312 77.992188 101.773438 78.546875 101.734375 C 79.109375 101.6875 79.648438 101.65625 80.15625 101.640625 C 80.664062 101.609375 81.109375 101.609375 81.5 101.609375 M 85.671875 108.828125 C 85.671875 107.664062 85.273438 106.804688 84.523438 106.25 C 83.75 105.710938 82.75 105.429688 81.5 105.429688 C 81.320312 105.429688 81.09375 105.445312 80.84375 105.460938 C 80.585938 105.460938 80.335938 105.492188 80.078125 105.546875 L 80.078125 112.1875 L 81.109375 112.1875 C 82.71875 112.1875 83.882812 111.90625 84.585938 111.335938 C 85.3125 110.742188 85.671875 109.90625 85.671875 108.828125 "
       id="path29" />
  </g>
</svg>
