<?xml version="1.0" encoding="UTF-8" standalone="no"?>
<svg
   xmlns:dc="http://purl.org/dc/elements/1.1/"
   xmlns:cc="http://creativecommons.org/ns#"
   xmlns:rdf="http://www.w3.org/1999/02/22-rdf-syntax-ns#"
   xmlns:svg="http://www.w3.org/2000/svg"
   xmlns="http://www.w3.org/2000/svg"
   xmlns:sodipodi="http://sodipodi.sourceforge.net/DTD/sodipodi-0.dtd"
   xmlns:inkscape="http://www.inkscape.org/namespaces/inkscape"
   width="128px"
   height="128px"
   viewBox="0 0 128 128"
   version="1.1"
   id="svg2"
   inkscape:version="0.48.4 r9939"
   sodipodi:docname="application-x-arj.svg">
  <metadata
     id="metadata35">
    <rdf:RDF>
      <cc:Work
         rdf:about="">
        <dc:format>image/svg+xml</dc:format>
        <dc:type
           rdf:resource="http://purl.org/dc/dcmitype/StillImage" />
      </cc:Work>
    </rdf:RDF>
  </metadata>
  <defs
     id="defs33" />
  <sodipodi:namedview
     pagecolor="#ffffff"
     bordercolor="#666666"
     borderopacity="1"
     objecttolerance="10"
     gridtolerance="10"
     guidetolerance="10"
     inkscape:pageopacity="0"
     inkscape:pageshadow="2"
     inkscape:window-width="765"
     inkscape:window-height="480"
     id="namedview31"
     showgrid="false"
     inkscape:zoom="1.84375"
     inkscape:cx="64"
     inkscape:cy="64"
     inkscape:window-x="59"
     inkscape:window-y="34"
     inkscape:window-maximized="0"
     inkscape:current-layer="surface1" />
  <g
     id="surface1">
    <path
       style="stroke:none;fill-rule:nonzero;fill:#45606e;fill-opacity:1"
       d="M 21.34375 0 C 18.59375 0 16 2.710938 16 5.578125 L 16 122.421875 C 16 125.132812 18.75 128 21.34375 128 L 106.65625 128 C 109.25 128 112 125.132812 112 122.421875 L 112 36 L 76 0 Z M 21.34375 0 "
       id="path5" />
    <path
       style=" stroke:none;fill-rule:nonzero;fill:rgb(0%,0%,0%);fill-opacity:0.196078;"
       d="M 16 96 L 16 122.671875 C 16 125.265625 18.75 128 21.328125 128 L 106.671875 128 C 109.25 128 112 125.265625 112 122.671875 L 112 96 Z M 16 96 "
       id="path7" />
    <path
       style=" stroke:none;fill-rule:nonzero;fill:rgb(100%,100%,100%);fill-opacity:1;"
       d="M 49.710938 123.976562 L 48.578125 118.976562 L 42.117188 118.976562 L 41.015625 123.976562 L 36 123.976562 C 37.148438 119.710938 38.3125 115.8125 39.492188 112.3125 C 40.671875 108.789062 41.804688 105.445312 42.90625 102.296875 L 48.15625 102.296875 C 49.304688 105.460938 50.4375 108.835938 51.570312 112.414062 C 52.710938 115.976562 53.8125 119.828125 54.898438 123.976562 L 49.710938 123.976562 M 45.414062 106.492188 C 45.15625 107.3125 44.90625 108.101562 44.664062 108.835938 C 44.445312 109.5625 44.25 110.28125 44.039062 111.023438 C 43.859375 111.710938 43.679688 112.429688 43.5 113.148438 C 43.335938 113.875 43.171875 114.625 43.023438 115.398438 L 47.757812 115.398438 C 47.59375 114.625 47.453125 113.875 47.289062 113.148438 C 47.140625 112.429688 46.960938 111.710938 46.742188 111.023438 C 46.5625 110.28125 46.351562 109.5625 46.117188 108.835938 C 45.90625 108.101562 45.679688 107.3125 45.414062 106.492188 "
       id="path9" />
    <path
       style=" stroke:none;fill-rule:nonzero;fill:rgb(0%,0%,0%);fill-opacity:0.196078;"
       d="M 84 36 L 112 64 L 112 36 Z M 84 36 "
       id="path11" />
    <path
       style=" stroke:none;fill-rule:nonzero;fill:rgb(100%,100%,100%);fill-opacity:1;"
       d="M 63.625 102.046875 C 65.015625 102.046875 66.265625 102.179688 67.398438 102.460938 C 68.507812 102.734375 69.476562 103.179688 70.28125 103.75 C 71.101562 104.34375 71.710938 105.101562 72.132812 106 C 72.578125 106.882812 72.789062 107.9375 72.789062 109.148438 C 72.789062 110.414062 72.515625 111.5625 71.9375 112.59375 C 71.367188 113.609375 70.414062 114.398438 69.070312 114.9375 C 69.507812 115.546875 69.984375 116.21875 70.476562 116.976562 C 70.984375 117.695312 71.460938 118.46875 71.9375 119.289062 C 72.398438 120.078125 72.84375 120.875 73.265625 121.695312 C 73.710938 122.5 74.085938 123.257812 74.398438 123.976562 L 69.34375 123.976562 C 68.742188 122.585938 68.03125 121.242188 67.234375 119.945312 C 66.445312 118.648438 65.609375 117.320312 64.6875 115.992188 L 62.179688 115.992188 L 62.179688 123.976562 L 57.359375 123.976562 L 57.359375 102.601562 C 57.835938 102.507812 58.34375 102.421875 58.882812 102.359375 C 59.453125 102.257812 60.03125 102.210938 60.601562 102.179688 C 61.179688 102.132812 61.734375 102.09375 62.257812 102.078125 C 62.789062 102.046875 63.226562 102.046875 63.625 102.046875 M 67.90625 109.117188 C 67.90625 107.96875 67.507812 107.132812 66.726562 106.59375 C 65.9375 106.0625 64.898438 105.789062 63.625 105.789062 C 63.445312 105.789062 63.226562 105.804688 62.96875 105.820312 C 62.703125 105.820312 62.445312 105.851562 62.179688 105.898438 L 62.179688 112.414062 L 63.226562 112.414062 C 64.882812 112.414062 66.070312 112.132812 66.804688 111.578125 C 67.523438 110.984375 67.90625 110.164062 67.90625 109.117188 "
       id="path13" />
    <path
       style=" stroke:none;fill-rule:nonzero;fill:rgb(100%,100%,100%);fill-opacity:0.392157;"
       d="M 76 0 L 111.96875 36 L 81.515625 36 C 78.820312 36 76 33.148438 76 30.453125 Z M 76 0 "
       id="path15" />
    <path
       style=" stroke:none;fill-rule:nonzero;fill:rgb(100%,100%,100%);fill-opacity:1;"
       d="M 92 116.726562 C 92 117.78125 91.835938 118.78125 91.523438 119.710938 C 91.226562 120.648438 90.734375 121.453125 90.03125 122.15625 C 89.359375 122.859375 88.476562 123.421875 87.375 123.84375 C 86.273438 124.242188 84.945312 124.4375 83.375 124.4375 C 81.734375 124.4375 80.351562 124.257812 79.257812 123.882812 C 78.15625 123.5 77.234375 123.046875 76.484375 122.5 L 78.320312 119.070312 C 78.976562 119.453125 79.695312 119.8125 80.46875 120.15625 C 81.289062 120.515625 82.109375 120.679688 82.945312 120.679688 C 84.195312 120.679688 85.210938 120.398438 85.960938 119.8125 C 86.75 119.203125 87.125 118.085938 87.125 116.484375 L 87.125 105.867188 L 79.023438 105.867188 L 79.023438 102.296875 L 92 102.296875 L 92 116.726562 "
       id="path17" />
    <path
       style=" stroke:none;fill-rule:evenodd;fill:rgb(97.647059%,97.647059%,97.647059%);fill-opacity:1;"
       d="M 36 0 L 48 0 L 48 12 L 36 12 Z M 36 0 "
       id="path19" />
    <path
       style=" stroke:none;fill-rule:evenodd;fill:rgb(97.647059%,97.647059%,97.647059%);fill-opacity:1;"
       d="M 48 12 L 60 12 L 60 24 L 48 24 Z M 48 12 "
       id="path21" />
    <path
       style=" stroke:none;fill-rule:evenodd;fill:rgb(97.647059%,97.647059%,97.647059%);fill-opacity:1;"
       d="M 36 24 L 48 24 L 48 36 L 36 36 Z M 36 24 "
       id="path23" />
    <path
       style=" stroke:none;fill-rule:evenodd;fill:rgb(97.647059%,97.647059%,97.647059%);fill-opacity:1;"
       d="M 48 36 L 60 36 L 60 48 L 48 48 Z M 48 36 "
       id="path25" />
    <path
       style=" stroke:none;fill-rule:evenodd;fill:rgb(97.647059%,97.647059%,97.647059%);fill-opacity:1;"
       d="M 36 48 L 48 48 L 48 60 L 36 60 Z M 36 48 "
       id="path27" />
    <path
       style=" stroke:none;fill-rule:evenodd;fill:rgb(97.647059%,97.647059%,97.647059%);fill-opacity:1;"
       d="M 36 64 L 60 64 L 60 88 L 36 88 Z M 36 64 "
       id="path29" />
  </g>
</svg>
