<?xml version="1.0" encoding="UTF-8" standalone="no"?>
<svg
   xmlns:dc="http://purl.org/dc/elements/1.1/"
   xmlns:cc="http://creativecommons.org/ns#"
   xmlns:rdf="http://www.w3.org/1999/02/22-rdf-syntax-ns#"
   xmlns:svg="http://www.w3.org/2000/svg"
   xmlns="http://www.w3.org/2000/svg"
   xmlns:sodipodi="http://sodipodi.sourceforge.net/DTD/sodipodi-0.dtd"
   xmlns:inkscape="http://www.inkscape.org/namespaces/inkscape"
   width="128px"
   height="128px"
   viewBox="0 0 128 128"
   version="1.1"
   id="svg2"
   inkscape:version="0.48.4 r9939"
   sodipodi:docname="application-archive-zip.svg">
  <metadata
     id="metadata35">
    <rdf:RDF>
      <cc:Work
         rdf:about="">
        <dc:format>image/svg+xml</dc:format>
        <dc:type
           rdf:resource="http://purl.org/dc/dcmitype/StillImage" />
      </cc:Work>
    </rdf:RDF>
  </metadata>
  <defs
     id="defs33" />
  <sodipodi:namedview
     pagecolor="#ffffff"
     bordercolor="#666666"
     borderopacity="1"
     objecttolerance="10"
     gridtolerance="10"
     guidetolerance="10"
     inkscape:pageopacity="0"
     inkscape:pageshadow="2"
     inkscape:window-width="765"
     inkscape:window-height="480"
     id="namedview31"
     showgrid="false"
     inkscape:zoom="1.84375"
     inkscape:cx="64"
     inkscape:cy="64"
     inkscape:window-x="59"
     inkscape:window-y="34"
     inkscape:window-maximized="0"
     inkscape:current-layer="surface1" />
  <g
     id="surface1">
    <path
       style="stroke:none;fill-rule:nonzero;fill:#45606e;fill-opacity:1"
       d="M 21.34375 0 C 18.59375 0 16 2.710938 16 5.578125 L 16 122.421875 C 16 125.132812 18.75 128 21.34375 128 L 106.65625 128 C 109.25 128 112 125.132812 112 122.421875 L 112 36 L 76 0 Z M 21.34375 0 "
       id="path5" />
    <path
       style=" stroke:none;fill-rule:nonzero;fill:rgb(0%,0%,0%);fill-opacity:0.196078;"
       d="M 84 36 L 112 64 L 112 36 Z M 84 36 "
       id="path7" />
    <path
       style=" stroke:none;fill-rule:nonzero;fill:rgb(0%,0%,0%);fill-opacity:0.196078;"
       d="M 16 96 L 16 122.671875 C 16 125.265625 18.75 128 21.328125 128 L 106.671875 128 C 109.25 128 112 125.265625 112 122.671875 L 112 96 Z M 16 96 "
       id="path9" />
    <path
       style=" stroke:none;fill-rule:nonzero;fill:rgb(100%,100%,100%);fill-opacity:0.392157;"
       d="M 76 0 L 111.96875 36 L 81.515625 36 C 78.820312 36 76 33.148438 76 30.453125 Z M 76 0 "
       id="path11" />
    <path
       style=" stroke:none;fill-rule:nonzero;fill:rgb(100%,100%,100%);fill-opacity:1;"
       d="M 51.664062 104.9375 C 50.546875 106.5 49.515625 107.992188 48.5625 109.367188 C 47.632812 110.75 46.742188 112.078125 45.9375 113.335938 C 45.117188 114.585938 44.351562 115.78125 43.625 116.945312 C 42.921875 118.09375 42.234375 119.226562 41.578125 120.359375 L 52.023438 120.359375 L 52.023438 124 L 36 124 L 36 121.460938 C 36.570312 120.4375 37.195312 119.359375 37.851562 118.242188 C 38.507812 117.09375 39.234375 115.882812 40.054688 114.585938 C 40.851562 113.304688 41.742188 111.914062 42.679688 110.398438 C 43.640625 108.90625 44.710938 107.265625 45.859375 105.5 L 36.507812 105.5 L 36.507812 101.859375 L 51.664062 101.859375 L 51.664062 104.9375 "
       id="path13" />
    <path
       style=" stroke:none;fill-rule:evenodd;fill:rgb(97.647059%,97.647059%,97.647059%);fill-opacity:1;"
       d="M 36 0 L 48 0 L 48 12 L 36 12 Z M 36 0 "
       id="path15" />
    <path
       style=" stroke:none;fill-rule:nonzero;fill:rgb(100%,100%,100%);fill-opacity:1;"
       d="M 55.945312 124 L 55.945312 120.359375 L 61.242188 120.359375 L 61.242188 105.5 L 55.945312 105.5 L 55.945312 101.859375 L 71.382812 101.859375 L 71.382812 105.5 L 66.117188 105.5 L 66.117188 120.359375 L 71.382812 120.359375 L 71.382812 124 L 55.945312 124 "
       id="path17" />
    <path
       style=" stroke:none;fill-rule:evenodd;fill:rgb(97.647059%,97.647059%,97.647059%);fill-opacity:1;"
       d="M 48 12 L 60 12 L 60 24 L 48 24 Z M 48 12 "
       id="path19" />
    <path
       style=" stroke:none;fill-rule:nonzero;fill:rgb(100%,100%,100%);fill-opacity:1;"
       d="M 82.257812 101.609375 C 85.34375 101.609375 87.734375 102.1875 89.4375 103.367188 C 91.148438 104.5 92 106.382812 92 109.007812 C 92 111.664062 91.132812 113.585938 89.40625 114.765625 C 87.703125 115.945312 85.273438 116.523438 82.140625 116.523438 L 80.421875 116.523438 L 80.421875 124 L 75.578125 124 L 75.578125 102.132812 C 76.054688 102.054688 76.578125 101.953125 77.15625 101.890625 C 77.765625 101.820312 78.351562 101.773438 78.960938 101.742188 C 79.570312 101.695312 80.15625 101.65625 80.734375 101.640625 C 81.304688 101.609375 81.8125 101.609375 82.257812 101.609375 M 82.8125 105.429688 C 82.515625 105.429688 82.109375 105.445312 81.585938 105.460938 C 81.09375 105.460938 80.695312 105.5 80.421875 105.546875 L 80.421875 112.695312 L 82.375 112.695312 C 83.914062 112.695312 85.078125 112.421875 85.867188 111.875 C 86.65625 111.304688 87.046875 110.335938 87.046875 108.976562 C 87.046875 107.679688 86.65625 106.773438 85.867188 106.25 C 85.109375 105.710938 84.09375 105.429688 82.8125 105.429688 "
       id="path21" />
    <path
       style=" stroke:none;fill-rule:evenodd;fill:rgb(97.647059%,97.647059%,97.647059%);fill-opacity:1;"
       d="M 36 24 L 48 24 L 48 36 L 36 36 Z M 36 24 "
       id="path23" />
    <path
       style=" stroke:none;fill-rule:evenodd;fill:rgb(97.647059%,97.647059%,97.647059%);fill-opacity:1;"
       d="M 48 36 L 60 36 L 60 48 L 48 48 Z M 48 36 "
       id="path25" />
    <path
       style=" stroke:none;fill-rule:evenodd;fill:rgb(97.647059%,97.647059%,97.647059%);fill-opacity:1;"
       d="M 36 48 L 48 48 L 48 60 L 36 60 Z M 36 48 "
       id="path27" />
    <path
       style=" stroke:none;fill-rule:evenodd;fill:rgb(97.647059%,97.647059%,97.647059%);fill-opacity:1;"
       d="M 36 64 L 60 64 L 60 88 L 36 88 Z M 36 64 "
       id="path29" />
  </g>
</svg>
