<?xml version="1.0" encoding="UTF-8" standalone="no"?>
<svg
   xmlns:dc="http://purl.org/dc/elements/1.1/"
   xmlns:cc="http://creativecommons.org/ns#"
   xmlns:rdf="http://www.w3.org/1999/02/22-rdf-syntax-ns#"
   xmlns:svg="http://www.w3.org/2000/svg"
   xmlns="http://www.w3.org/2000/svg"
   xmlns:sodipodi="http://sodipodi.sourceforge.net/DTD/sodipodi-0.dtd"
   xmlns:inkscape="http://www.inkscape.org/namespaces/inkscape"
   width="128px"
   height="128px"
   viewBox="0 0 128 128"
   version="1.1"
   id="svg2"
   inkscape:version="0.48.4 r9939"
   sodipodi:docname="application-x-lhz.svg">
  <metadata
     id="metadata35">
    <rdf:RDF>
      <cc:Work
         rdf:about="">
        <dc:format>image/svg+xml</dc:format>
        <dc:type
           rdf:resource="http://purl.org/dc/dcmitype/StillImage" />
      </cc:Work>
    </rdf:RDF>
  </metadata>
  <defs
     id="defs33" />
  <sodipodi:namedview
     pagecolor="#ffffff"
     bordercolor="#666666"
     borderopacity="1"
     objecttolerance="10"
     gridtolerance="10"
     guidetolerance="10"
     inkscape:pageopacity="0"
     inkscape:pageshadow="2"
     inkscape:window-width="765"
     inkscape:window-height="480"
     id="namedview31"
     showgrid="false"
     inkscape:zoom="1.84375"
     inkscape:cx="64"
     inkscape:cy="64"
     inkscape:window-x="59"
     inkscape:window-y="34"
     inkscape:window-maximized="0"
     inkscape:current-layer="surface1" />
  <g
     id="surface1">
    <path
       style="stroke:none;fill-rule:nonzero;fill:#45606e;fill-opacity:1"
       d="M 21.34375 0 C 18.59375 0 16 2.710938 16 5.578125 L 16 122.421875 C 16 125.132812 18.75 128 21.34375 128 L 106.65625 128 C 109.25 128 112 125.132812 112 122.421875 L 112 36 L 76 0 Z M 21.34375 0 "
       id="path5" />
    <path
       style=" stroke:none;fill-rule:nonzero;fill:rgb(0%,0%,0%);fill-opacity:0.196078;"
       d="M 16 96 L 16 122.671875 C 16 125.265625 18.75 128 21.328125 128 L 106.671875 128 C 109.25 128 112 125.265625 112 122.671875 L 112 96 Z M 16 96 "
       id="path7" />
    <path
       style=" stroke:none;fill-rule:nonzero;fill:rgb(0%,0%,0%);fill-opacity:0.196078;"
       d="M 84 36 L 112 64 L 112 36 Z M 84 36 "
       id="path9" />
    <path
       style=" stroke:none;fill-rule:nonzero;fill:rgb(100%,100%,100%);fill-opacity:1;"
       d="M 51.851562 124 L 36 124 L 36 101.460938 L 41.054688 101.460938 L 41.054688 120.28125 L 51.851562 120.28125 L 51.851562 124 "
       id="path11" />
    <path
       style=" stroke:none;fill-rule:nonzero;fill:rgb(100%,100%,100%);fill-opacity:0.392157;"
       d="M 76 0 L 111.96875 36 L 81.515625 36 C 78.820312 36 76 33.148438 76 30.453125 Z M 76 0 "
       id="path13" />
    <path
       style=" stroke:none;fill-rule:nonzero;fill:rgb(100%,100%,100%);fill-opacity:1;"
       d="M 72.03125 101.460938 L 72.03125 124 L 67.03125 124 L 67.03125 114.054688 L 60.34375 114.054688 L 60.34375 124 L 55.320312 124 L 55.320312 101.460938 L 60.34375 101.460938 L 60.34375 110.34375 L 67.03125 110.34375 L 67.03125 101.460938 L 72.03125 101.460938 "
       id="path15" />
    <path
       style=" stroke:none;fill-rule:evenodd;fill:rgb(97.647059%,97.647059%,97.647059%);fill-opacity:1;"
       d="M 36 0 L 48 0 L 48 12 L 36 12 Z M 36 0 "
       id="path17" />
    <path
       style=" stroke:none;fill-rule:nonzero;fill:rgb(100%,100%,100%);fill-opacity:1;"
       d="M 92 104.578125 C 90.84375 106.179688 89.773438 107.703125 88.78125 109.101562 C 87.804688 110.507812 86.898438 111.859375 86.054688 113.148438 C 85.210938 114.40625 84.421875 115.625 83.664062 116.8125 C 82.914062 117.992188 82.203125 119.148438 81.53125 120.28125 L 92.382812 120.28125 L 92.382812 124 L 75.75 124 L 75.75 121.40625 C 76.34375 120.367188 76.992188 119.273438 77.664062 118.140625 C 78.34375 116.96875 79.101562 115.726562 79.945312 114.421875 C 80.789062 113.101562 81.695312 111.679688 82.671875 110.164062 C 83.679688 108.625 84.78125 106.960938 85.96875 105.171875 L 76.28125 105.171875 L 76.28125 101.460938 L 92 101.460938 L 92 104.578125 "
       id="path19" />
    <path
       style=" stroke:none;fill-rule:evenodd;fill:rgb(97.647059%,97.647059%,97.647059%);fill-opacity:1;"
       d="M 48 12 L 60 12 L 60 24 L 48 24 Z M 48 12 "
       id="path21" />
    <path
       style=" stroke:none;fill-rule:evenodd;fill:rgb(97.647059%,97.647059%,97.647059%);fill-opacity:1;"
       d="M 36 24 L 48 24 L 48 36 L 36 36 Z M 36 24 "
       id="path23" />
    <path
       style=" stroke:none;fill-rule:evenodd;fill:rgb(97.647059%,97.647059%,97.647059%);fill-opacity:1;"
       d="M 48 36 L 60 36 L 60 48 L 48 48 Z M 48 36 "
       id="path25" />
    <path
       style=" stroke:none;fill-rule:evenodd;fill:rgb(97.647059%,97.647059%,97.647059%);fill-opacity:1;"
       d="M 36 48 L 48 48 L 48 60 L 36 60 Z M 36 48 "
       id="path27" />
    <path
       style=" stroke:none;fill-rule:evenodd;fill:rgb(97.647059%,97.647059%,97.647059%);fill-opacity:1;"
       d="M 36 64 L 60 64 L 60 88 L 36 88 Z M 36 64 "
       id="path29" />
  </g>
</svg>
