<?xml version="1.0" encoding="UTF-8" standalone="no"?>
<svg
   xmlns:dc="http://purl.org/dc/elements/1.1/"
   xmlns:cc="http://creativecommons.org/ns#"
   xmlns:rdf="http://www.w3.org/1999/02/22-rdf-syntax-ns#"
   xmlns:svg="http://www.w3.org/2000/svg"
   xmlns="http://www.w3.org/2000/svg"
   xmlns:sodipodi="http://sodipodi.sourceforge.net/DTD/sodipodi-0.dtd"
   xmlns:inkscape="http://www.inkscape.org/namespaces/inkscape"
   width="128px"
   height="128px"
   viewBox="0 0 128 128"
   version="1.1"
   id="svg2"
   inkscape:version="0.48.4 r9939"
   sodipodi:docname="image-x-compressed-xcf.svg">
  <metadata
     id="metadata25">
    <rdf:RDF>
      <cc:Work
         rdf:about="">
        <dc:format>image/svg+xml</dc:format>
        <dc:type
           rdf:resource="http://purl.org/dc/dcmitype/StillImage" />
      </cc:Work>
    </rdf:RDF>
  </metadata>
  <defs
     id="defs23" />
  <sodipodi:namedview
     pagecolor="#ffffff"
     bordercolor="#666666"
     borderopacity="1"
     objecttolerance="10"
     gridtolerance="10"
     guidetolerance="10"
     inkscape:pageopacity="0"
     inkscape:pageshadow="2"
     inkscape:window-width="765"
     inkscape:window-height="480"
     id="namedview21"
     showgrid="false"
     inkscape:zoom="1.84375"
     inkscape:cx="-35.79661"
     inkscape:cy="64"
     inkscape:window-x="59"
     inkscape:window-y="34"
     inkscape:window-maximized="0"
     inkscape:current-layer="surface1" />
  <g
     id="surface1">
    <path
       style="stroke:none;fill-rule:nonzero;fill:#3e6578;fill-opacity:1"
       d="M 21.34375 0 C 18.59375 0 16 2.710938 16 5.578125 L 16 122.421875 C 16 125.132812 18.75 128 21.34375 128 L 106.65625 128 C 109.25 128 112 125.132812 112 122.421875 L 112 36 L 76 0 Z M 21.34375 0 "
       id="path5" />
    <path
       style=" stroke:none;fill-rule:nonzero;fill:rgb(0%,0%,0%);fill-opacity:0.196078;"
       d="M 84 36 L 112 64 L 112 36 Z M 84 36 "
       id="path7" />
    <path
       style=" stroke:none;fill-rule:nonzero;fill:rgb(100%,100%,100%);fill-opacity:0.392157;"
       d="M 76 0 L 111.96875 36 L 81.515625 36 C 78.820312 36 76 33.148438 76 30.453125 Z M 76 0 "
       id="path9" />
    <path
       style=" stroke:none;fill-rule:evenodd;fill:rgb(97.647059%,97.647059%,97.647059%);fill-opacity:1;"
       d="M 36 0 L 48 0 L 48 12 L 36 12 Z M 36 0 "
       id="path11" />
    <path
       style=" stroke:none;fill-rule:evenodd;fill:rgb(97.647059%,97.647059%,97.647059%);fill-opacity:1;"
       d="M 48 12 L 60 12 L 60 24 L 48 24 Z M 48 12 "
       id="path13" />
    <path
       style=" stroke:none;fill-rule:evenodd;fill:rgb(97.647059%,97.647059%,97.647059%);fill-opacity:1;"
       d="M 36 24 L 48 24 L 48 36 L 36 36 Z M 36 24 "
       id="path15" />
    <path
       style=" stroke:none;fill-rule:evenodd;fill:rgb(97.647059%,97.647059%,97.647059%);fill-opacity:1;"
       d="M 36 40 L 60 40 L 60 64 L 36 64 Z M 36 40 "
       id="path17" />
    <path
       style=" stroke:none;fill-rule:nonzero;fill:rgb(100%,100%,100%);fill-opacity:1;"
       d="M 84.109375 69.375 C 83.90625 69.46875 83.71875 69.796875 83.546875 70.328125 C 83.09375 71.734375 79.84375 81.453125 61.421875 81.921875 C 52.640625 82.140625 48.90625 74.296875 48.90625 74.296875 L 48.6875 84.390625 C 48.6875 84.390625 49.625 86.625 47.75 88.96875 C 47.640625 88.8125 47.578125 88.625 47.46875 88.46875 C 46.796875 87.515625 46 86.71875 45.15625 86.125 C 44.1875 85.4375 43.171875 84.984375 42.171875 84.828125 C 41.03125 84.65625 39.90625 84.90625 39.03125 85.5625 C 38.140625 86.203125 37.625 87.203125 37.421875 88.359375 C 37.25 89.375 37.3125 90.453125 37.65625 91.609375 C 37.9375 92.609375 38.40625 93.625 39.078125 94.578125 C 39.796875 95.578125 40.6875 96.484375 41.625 97.09375 C 42.671875 97.796875 43.78125 98.21875 44.875 98.28125 C 45.21875 98.296875 45.5625 98.21875 45.875 98.15625 C 52.9375 103.859375 66.96875 109.15625 76.265625 103.09375 C 76.46875 103.15625 76.671875 103.25 76.875 103.3125 C 76.875 103.421875 76.84375 103.515625 76.875 103.59375 L 77.3125 103.421875 C 77.390625 103.453125 77.453125 103.515625 77.53125 103.546875 C 77.546875 103.546875 77.578125 103.53125 77.59375 103.546875 L 77.75 103.703125 L 81.953125 105.21875 C 81.78125 106.703125 82.5 108.375 84.328125 109.09375 C 87.609375 110.359375 90.671875 112 90.671875 112 C 89.09375 106.59375 88.53125 102.265625 84.4375 102.640625 C 83.671875 102.71875 83.09375 103.03125 82.671875 103.484375 L 78.96875 101.078125 L 78.8125 101.078125 L 78.75 101.015625 C 83.734375 96.046875 86.640625 86.703125 84.875 70.4375 C 84.765625 69.625 84.4375 69.203125 84.109375 69.375 Z M 84.109375 69.375 "
       id="path19" />
  </g>
</svg>
