<?xml version="1.0" encoding="UTF-8" standalone="no"?>
<!-- Created with Inkscape (http://www.inkscape.org/) -->

<svg
   xmlns:dc="http://purl.org/dc/elements/1.1/"
   xmlns:cc="http://creativecommons.org/ns#"
   xmlns:rdf="http://www.w3.org/1999/02/22-rdf-syntax-ns#"
   xmlns:svg="http://www.w3.org/2000/svg"
   xmlns="http://www.w3.org/2000/svg"
   xmlns:xlink="http://www.w3.org/1999/xlink"
   xmlns:sodipodi="http://sodipodi.sourceforge.net/DTD/sodipodi-0.dtd"
   xmlns:inkscape="http://www.inkscape.org/namespaces/inkscape"
   width="96"
   height="96"
   id="svg2"
   sodipodi:version="0.32"
   inkscape:version="0.48.4 r9939"
   version="1.0"
   sodipodi:docname="go-home.svg"
   inkscape:output_extension="org.inkscape.output.svg.inkscape">
  <defs
     id="defs4">
    <linearGradient
       gradientUnits="userSpaceOnUse"
       y2="20.137329"
       x2="11.794092"
       y1="3.2126782"
       x1="11.794092"
       gradientTransform="scale(1.0598527,0.9435274)"
       id="linearGradient3780">
      <stop
         id="stop3782"
         offset="0"
         style="stop-color:#000000;stop-opacity:0.86274511;" />
      <stop
         id="stop3784"
         offset="1"
         style="stop-color:#000000;stop-opacity:0.47058824;" />
    </linearGradient>
    <clipPath
       clipPathUnits="userSpaceOnUse"
       id="clipPath3634">
      <path
         style="fill:#ff00ff;fill-opacity:1;stroke:none;display:inline"
         d="m -30,0 0,22 22,0 0,-22 -22,0 z M -19.03125,3.03125 -16,6.0625 -16,5 -14,5 -14,8.03125 -10.0625,12 -12,12 l 0,7 -14,0 0,-6.96875 -2,0 8.96875,-9 z"
         id="path3636"
         inkscape:connector-curvature="0" />
    </clipPath>
    <linearGradient
       inkscape:collect="always"
       xlink:href="#StandardGradient"
       id="linearGradient3786"
       gradientUnits="userSpaceOnUse"
       gradientTransform="matrix(4.1602744,0,0,3.7036589,4.6513483,-69.20705)"
       x1="11.794092"
       y1="3.2126782"
       x2="11.794092"
       y2="20.137329" />
    <linearGradient
       id="StandardGradient"
       gradientTransform="matrix(1.0765258,0,0,0.9227364,-0.00801316,0.1584665)"
       x1="10.005832"
       y1="4.1631975"
       x2="10.005832"
       y2="17.168188"
       gradientUnits="userSpaceOnUse">
      <stop
         id="stop3337"
         offset="0"
         style="stop-color:#ebebeb;stop-opacity:1;" />
      <stop
         id="stop3339"
         offset="1"
         style="stop-color:#aaaaaa;stop-opacity:1;" />
    </linearGradient>
    <linearGradient
       y2="17.168188"
       x2="10.005832"
       y1="4.1631975"
       x1="10.005832"
       gradientTransform="matrix(1.0765258,0,0,0.9227364,14.991987,-5.8415335)"
       gradientUnits="userSpaceOnUse"
       id="linearGradient4353"
       xlink:href="#StandardGradient"
       inkscape:collect="always" />
    <linearGradient
       inkscape:collect="always"
       xlink:href="#StandardGradient"
       id="linearGradient3805"
       gradientUnits="userSpaceOnUse"
       gradientTransform="scale(1.0598527,0.9435274)"
       x1="11.794092"
       y1="3.2126782"
       x2="11.794092"
       y2="20.137329" />
  </defs>
  <sodipodi:namedview
     id="base"
     pagecolor="#ffffff"
     bordercolor="#e7e7e7"
     borderopacity="1"
     inkscape:pageopacity="0.0"
     inkscape:pageshadow="2"
     inkscape:zoom="4.5377878"
     inkscape:cx="-45.560078"
     inkscape:cy="36.685453"
     inkscape:document-units="px"
     inkscape:current-layer="layer1"
     showgrid="true"
     inkscape:showpageshadow="false"
     showguides="true"
     inkscape:guide-bbox="true"
     inkscape:window-width="1871"
     inkscape:window-height="1056"
     inkscape:window-x="49"
     inkscape:window-y="24"
     inkscape:window-maximized="1"
     showborder="true"
     borderlayer="false">
    <sodipodi:guide
       orientation="1,0"
       position="0,112"
       id="guide2383" />
    <sodipodi:guide
       orientation="0,1"
       position="78.156291,0"
       id="guide2389" />
    <inkscape:grid
       type="xygrid"
       id="grid3672"
       visible="true"
       enabled="true"
       empspacing="5"
       snapvisiblegridlinesonly="true" />
    <sodipodi:guide
       orientation="1,0"
       position="22.008699,4.1542523"
       id="guide2950" />
    <sodipodi:guide
       orientation="0,1"
       position="11.22532,22.008699"
       id="guide2952" />
  </sodipodi:namedview>
  <metadata
     id="metadata7">
    <rdf:RDF>
      <cc:Work
         rdf:about="">
        <dc:format>image/svg+xml</dc:format>
        <dc:type
           rdf:resource="http://purl.org/dc/dcmitype/StillImage" />
      </cc:Work>
    </rdf:RDF>
  </metadata>
  <g
     inkscape:label="Calque 1"
     inkscape:groupmode="layer"
     id="layer1"
     transform="translate(0,74)">
    <path
       sodipodi:type="inkscape:offset"
       inkscape:radius="1.0578635"
       inkscape:original="M 10.96875 3.03125 L 2 12.03125 L 4 12.03125 L 4 19 L 18 19 L 18 12 L 19.9375 12 L 16 8.03125 L 16 5 L 14 5 L 14 6.0625 L 10.96875 3.03125 z "
       style="opacity:0.25;fill:#000000;fill-opacity:1;stroke:none;display:inline"
       id="path3807"
       d="m 10.84375,1.96875 a 1.0579693,1.0579693 0 0 0 -0.625,0.3125 l -8.96875,9 A 1.0579693,1.0579693 0 0 0 2,13.09375 l 0.9375,0 0,5.90625 A 1.0579693,1.0579693 0 0 0 4,20.0625 l 14,0 A 1.0579693,1.0579693 0 0 0 19.0625,19 l 0,-5.9375 0.875,0 a 1.0579693,1.0579693 0 0 0 0.75,-1.8125 L 17.0625,7.59375 17.0625,5 A 1.0579693,1.0579693 0 0 0 16,3.9375 l -2,0 a 1.0579693,1.0579693 0 0 0 -0.5,0.125 L 11.71875,2.28125 a 1.0579693,1.0579693 0 0 0 -0.875,-0.3125 z"
       transform="matrix(3.9253326,0,0,3.9253326,4.6513483,-69.20705)" />
    <path
       style="fill:url(#linearGradient3786);fill-opacity:1;stroke:none;display:inline"
       d="m 47.70734,-57.308385 -35.205327,35.327993 7.850665,0 0,27.3546616 54.954657,0 0,-27.4773286 7.605333,0 -15.456,-15.578663 0,-11.898665 -7.850663,0 0,4.170665 -11.898665,-11.898663 z"
       id="Symbol"
       sodipodi:nodetypes="cccccccccccc"
       inkscape:connector-curvature="0" />
    <path
       style="opacity:0.6;fill:#ffffff;fill-opacity:1;stroke:none;display:inline"
       d="m 47.70734,-57.308385 -35.205327,35.327993 3.925333,0 31.279994,-31.402662 11.898665,11.898665 0,-3.925333 -11.898665,-11.898663 z m 11.898665,7.727998 0,3.925333 7.850663,0 0,-3.925333 -7.850663,0 z m 7.850663,11.898665 0,3.925332 11.530667,11.653331 3.925333,0 -15.456,-15.578663 z"
       id="BevelShadow"
       inkscape:label="#path3359"
       inkscape:connector-curvature="0" />
    <path
       style="opacity:0.45;fill:#000000;fill-opacity:1;stroke:none;display:inline"
       d="m 75.307335,-22.103059 0,3.925333 7.605333,0 0,-3.925333 -7.605333,0 z m -62.805322,0.122663 0,3.925332 7.850665,0 0,-3.925332 -7.850665,0 z m 7.850665,27.3546615 0,3.9253326 54.954657,0 0,-3.9253326 -54.954657,0 z"
       id="BevelHighlight"
       inkscape:label="#path3366"
       inkscape:connector-curvature="0" />
  </g>
</svg>
