<svg height="300" viewBox="0 0 62.660672 79.375002" width="236.82774" xmlns="http://www.w3.org/2000/svg" xmlns:xlink="http://www.w3.org/1999/xlink"><linearGradient id="a" gradientUnits="userSpaceOnUse" x1="187.70070381166" x2="195.80894102195" y1="209.18227788359" y2="230.27287152472"><stop offset="0" stop-color="#f76262"/><stop offset="1" stop-color="#216583"/></linearGradient><linearGradient id="b" gradientTransform="matrix(.57373659 0 0 .60292974 -263.25555 88.088617)" gradientUnits="userSpaceOnUse" x1="812.41528" x2="819.29419" y1="210.35223" y2="196.70703"><stop offset="0" stop-color="#216583"/><stop offset="1" stop-color="#f76262"/></linearGradient><g transform="matrix(.81373138 0 0 .81373138 -130.144487 -152.950419)"><rect fill="#596e79" fill-rule="evenodd" height="39.076889" rx="2.108074" width="7.571894" x="194.65155" y="234.66957"/><rect fill="#596e79" fill-rule="evenodd" height="24.237551" rx="1.307539" width="4.696487" x="196.08945" y="231.17564"/><path d="m198.43805 188.24282a22.063198 22.063198 0 0 0 -22.06376 22.06376 22.063198 22.063198 0 0 0 22.06376 22.06266 22.063198 22.063198 0 0 0 22.06266-22.06266 22.063198 22.063198 0 0 0 -22.06266-22.06376zm0 2.08124a19.982121 19.982121 0 0 1 19.98142 19.98252 19.982121 19.982121 0 0 1 -19.98142 19.98142 19.982121 19.982121 0 0 1 -19.98253-19.98142 19.982121 19.982121 0 0 1 19.98253-19.98252z" fill="#596e79" fill-rule="evenodd"/><circle cx="198.4377" cy="210.3063" fill="#4d4c7d" fill-opacity=".254545" fill-rule="evenodd" r="18.002666"/><path d="m212.57157 204.51177c-1.84336-.0252-4.22178.84613-6.9745 3.08061-4.51114 3.66184-8.01767.95951-8.5444.50988 1.39193 1.95822 2.83635 3.95379 5.68583 5.02244 5.56515 2.08718 10.63333-1.32558 12.92369-6.77838.0527-.12522.17567-.43377.17567-.43377-.6554-.91695-1.83848-1.38114-3.26635-1.40078z" fill="url(#b)"/><path d="m189.80038 203.11293c-5.38851-.001-10.4039 6.4722-8.07795 13.80783a17.978223 17.978223 0 0 0 16.71607 11.37098 17.978223 17.978223 0 0 0 17.97783-17.97783 17.978223 17.978223 0 0 0 -.57988-4.47473c-2.19982 5.4257-7.38721 8.89686-13.09751 6.85897-4.40552-1.57225-5.45338-5.25541-8.13936-7.65042-1.50413-1.34122-3.16864-1.93453-4.7992-1.9348z" fill="url(#a)" fill-rule="evenodd"/><path d="m198.43805 192.30321a18.002666 18.002666 0 0 0 -2.45995.18881 21.054205 21.054205 0 0 1 14.99787 20.15595 21.054205 21.054205 0 0 1 -5.58729 14.24595 18.002666 18.002666 0 0 0 11.05163-16.58734 18.002666 18.002666 0 0 0 -18.00226-18.00337z" fill="#fff" fill-opacity=".454546" fill-rule="evenodd"/><ellipse cx="9.657464" cy="291.09387" fill="#fff" fill-opacity=".454902" rx="1.598162" ry="2.441195" transform="matrix(.77990059 -.62590341 .62590341 .77990059 0 0)"/><ellipse cx="76.064613" cy="264.13437" fill="#fff" fill-opacity=".454902" rx="2.774984" ry="1.677285" transform="matrix(.8822913 -.47070379 .47070379 .8822913 0 0)"/><ellipse cx="-.865855" cy="274.13693" fill="#fff" fill-opacity=".454902" rx="1.706793" ry="1.031637" transform="matrix(.72941374 -.6840728 .6840728 .72941374 0 0)"/><g fill="#216583"><circle cx="190.24593" cy="211.07059" fill-opacity=".515152" r=".421517"/><circle cx="187.1683" cy="210.47968" fill-opacity=".481818" r=".948412"/><circle cx="191.86174" cy="216.40977" fill-opacity=".378788" r=".245885"/><circle cx="189.13411" cy="214.81686" fill-opacity=".557576" r=".421517"/><circle cx="200.63055" cy="218.00563" fill-opacity=".257576" r=".948412"/></g><g fill="#596e79" stroke-width=".264583"><path d="m165.1001 277.46295h.28575q.24342 0 .41275.17992.17992.17992.17992.42333v.0635q0 .24342-.17992.42334-.16933.17991-.41275.17991h-.28575q-.24341 0-.42333-.17991-.17992-.17992-.17992-.42334v-.0635q0-.24341.17992-.42333.17992-.17992.42333-.17992zm-4.65666 3.67242q-.21167 0-.35984-.14817-.14816-.15875-.14816-.37041 0-.21167.14816-.35984.14817-.14816.35984-.14816h.43391q.0952 0 .0952-.0953v-.254q0-1.13242.48684-1.66159.48683-.52916 1.49225-.52916.34925 0 .61383.0423.22225.0317.35983.22225.14817.17992.14817.41275 0 .1905-.15875.30692-.15875.10583-.34925.0741-.21167-.0212-.29633-.0212-.46567 0-.65617.23284-.17992.23283-.17992.87841v.29634q0 .0953.0952.0953h2.8575q.24342 0 .41275.17991.17992.17992.17992.42334v4.08516q0 .24342-.17992.42333-.16933.17992-.41275.17992h-.28575q-.24341 0-.42333-.17992-.17992-.17991-.17992-.42333v-3.57716q0-.0847-.0847-.0847h-1.88384q-.0952 0-.0952.0847v3.57716q0 .24342-.17991.42333-.16934.17992-.41275.17992h-.26459q-.24341 0-.42333-.17992-.17992-.17991-.17992-.42333v-3.57716q0-.0847-.0952-.0847z"/><path d="m167.78825 281.13537q-.21166 0-.35983-.14817-.14817-.15875-.14817-.37041 0-.21167.14817-.35984.14817-.14816.35983-.14816h.56092q.0953 0 .0953-.0953v-.254q0-1.143.49742-1.66159.49741-.52916 1.57691-.52916.35984 0 .62442.0423.22225.0317.35983.22225.14817.17992.14817.41275 0 .1905-.15875.30692-.15875.10583-.34925.0741-.21167-.0212-.30692-.0212-.53975 0-.74083.23284-.1905.22225-.1905.87841v.29634q0 .0953.0952.0953h1.03717q.21166 0 .35983.14816.14817.14817.14817.35984 0 .21166-.14817.37041-.14817.14817-.35983.14817h-1.03717q-.0952 0-.0952.0847v3.57716q0 .24342-.17992.42333-.17991.17992-.42333.17992h-.26458q-.24342 0-.42334-.17992-.16933-.17991-.16933-.42333v-3.57716q0-.0847-.0953-.0847z"/><path d="m173.87365 281.34704q-.24342 0-.42333-.17992-.17992-.17992-.17992-.42333v-.60325q0-.24342.17992-.41275.17991-.17992.42333-.17992h.48683q.24342 0 .42334.17992.17991.16933.17991.41275v.60325q0 .24341-.17991.42333-.17992.17992-.42334.17992zm0 4.05341q-.24342 0-.42333-.17992-.17992-.17991-.17992-.42333v-.59266q0-.24342.17992-.42334.17991-.17991.42333-.17991h.48683q.24342 0 .42334.17991.17991.17992.17991.42334v.59266q0 .24342-.17991.42333-.17992.17992-.42334.17992z"/><path d="m185.01788 277.46295h.28575q.24341 0 .41275.17992.17991.17992.17991.42333v.0635q0 .24342-.17991.42334-.16934.17991-.41275.17991h-.28575q-.24342 0-.42334-.17991-.17991-.17992-.17991-.42334v-.0635q0-.24341.17991-.42333.17992-.17992.42334-.17992zm-4.65667 3.67242q-.21167 0-.35983-.14817-.14817-.15875-.14817-.37041 0-.21167.14817-.35984.14816-.14816.35983-.14816h.43392q.0952 0 .0952-.0953v-.254q0-1.13242.48683-1.66159.48683-.52916 1.49225-.52916.34925 0 .61383.0423.22225.0317.35984.22225.14816.17992.14816.41275 0 .1905-.15875.30692-.15875.10583-.34925.0741-.21166-.0212-.29633-.0212-.46567 0-.65617.23284-.17991.23283-.17991.87841v.29634q0 .0953.0953.0953h2.8575q.24341 0 .41275.17991.17991.17992.17991.42334v4.08516q0 .24342-.17991.42333-.16934.17992-.41275.17992h-.28575q-.24342 0-.42334-.17992-.17991-.17991-.17991-.42333v-3.57716q0-.0847-.0847-.0847h-1.88383q-.0953 0-.0953.0847v3.57716q0 .24342-.17992.42333-.16933.17992-.41275.17992h-.26458q-.24342 0-.42334-.17992-.17991-.17991-.17991-.42333v-3.57716q0-.0847-.0952-.0847z"/><path d="m188.01294 285.40045q-.24341 0-.42333-.17992-.17992-.17991-.17992-.42333v-4.29683q0-.24342.17992-.42333.17992-.17992.42333-.17992h.13759q.254 0 .42333.17992.17992.16933.1905.42333v.0741q0 .0106.0106.0106.0106 0 .0212-.0106.71967-.78316 1.68275-.78316.96308 0 1.397.55033.4445.53975.4445 1.80975v2.64583q0 .24342-.17992.42333-.17991.17992-.42333.17992h-.17992q-.24341 0-.42333-.17992-.16933-.17991-.16933-.42333v-2.54q0-.79375-.21167-1.0795-.20108-.29633-.73025-.29633-.43392 0-.80433.37042-.37042.37041-.37042.79375v2.75166q0 .24342-.17992.42333-.17991.17992-.42333.17992z"/><path d="m196.02451 280.84962q-1.21709 0-1.21709 1.79917 0 .89958.32809 1.35466.32808.4445.889.4445.49741 0 .85725-.32808.35983-.32808.35983-.75142v-1.43933q0-.42333-.35983-.75142-.35984-.32808-.85725-.32808zm-.42334 4.65666q-.94191 0-1.56633-.76199-.62442-.77259-.62442-2.0955 0-1.36525.59267-2.10609.60325-.75141 1.59808-.75141.89959 0 1.5875.65616.0106.0106.0212.0106.0106 0 .0106-.0106v-2.38125q0-.24341.17992-.42333.17992-.17992.42333-.17992h.21167q.24342 0 .42333.17992.17992.17992.17992.42333v6.731q0 .24342-.17992.42333-.17991.17992-.42333.17992h-.11642q-.254 0-.43391-.16933-.16934-.17992-.17992-.43392l-.0106-.0741q0-.0106-.0106-.0106-.0106 0-.0212.0106-.6985.78316-1.66159.78316z"/><path d="m204.07839 285.40045q-.24342 0-.42333-.17992-.17992-.17991-.17992-.42333v-4.29683q0-.24342.17992-.42333.17991-.17992.42333-.17992h.27517q.24341 0 .42333.17992.17992.17991.17992.42333v4.29683q0 .24342-.17992.42333-.17992.17992-.42333.17992zm0-6.6675q-.24342 0-.42333-.17991-.17992-.17992-.17992-.42334v-.0635q0-.24341.17992-.42333.17991-.17992.42333-.17992h.27517q.24341 0 .42333.17992.17992.17992.17992.42333v.0635q0 .24342-.17992.42334-.17992.17991-.42333.17991z"/><path d="m207.33805 285.40045q-.24342 0-.42333-.17992-.17992-.17991-.17992-.42333v-4.29683q0-.24342.17992-.42333.17991-.17992.42333-.17992h.13758q.254 0 .42334.17992.17991.16933.1905.42333v.0741q0 .0106.0106.0106.0106 0 .0212-.0106.71966-.78316 1.68275-.78316.96308 0 1.397.55033.4445.53975.4445 1.80975v2.64583q0 .24342-.17992.42333-.17992.17992-.42333.17992h-.17992q-.24342 0-.42333-.17992-.16934-.17991-.16934-.42333v-2.54q0-.79375-.21166-1.0795-.20109-.29633-.73025-.29633-.43392 0-.80434.37042-.37041.37041-.37041.79375v2.75166q0 .24342-.17992.42333-.17992.17992-.42333.17992z"/><path d="m221.01168 277.46295h.28575q.24342 0 .41275.17992.17992.17992.17992.42333v.0635q0 .24342-.17992.42334-.16933.17991-.41275.17991h-.28575q-.24342 0-.42333-.17991-.17992-.17992-.17992-.42334v-.0635q0-.24341.17992-.42333.17991-.17992.42333-.17992zm-4.65667 3.67242q-.21166 0-.35983-.14817-.14817-.15875-.14817-.37041 0-.21167.14817-.35984.14817-.14816.35983-.14816h.43392q.0952 0 .0952-.0953v-.254q0-1.13242.48683-1.66159.48684-.52916 1.49225-.52916.34925 0 .61384.0423.22225.0317.35983.22225.14817.17992.14817.41275 0 .1905-.15875.30692-.15875.10583-.34925.0741-.21167-.0212-.29634-.0212-.46566 0-.65616.23284-.17992.23283-.17992.87841v.29634q0 .0953.0952.0953h2.8575q.24342 0 .41275.17991.17992.17992.17992.42334v4.08516q0 .24342-.17992.42333-.16933.17992-.41275.17992h-.28575q-.24342 0-.42333-.17992-.17992-.17991-.17992-.42333v-3.57716q0-.0847-.0847-.0847h-1.88383q-.0952 0-.0952.0847v3.57716q0 .24342-.17992.42333-.16933.17992-.41275.17992h-.26458q-.24342 0-.42333-.17992-.17992-.17991-.17992-.42333v-3.57716q0-.0847-.0952-.0847z"/><path d="m224.32425 285.40045q-.24342 0-.42334-.17992-.17991-.17991-.17991-.42333v-6.731q0-.24341.17991-.42333.17992-.17992.42334-.17992h.27516q.24342 0 .42334.17992.17991.17992.17991.42333v6.731q0 .24342-.17991.42333-.17992.17992-.42334.17992z"/><path d="m229.22432 280.77554q-.53975 0-.83608.30691-.28575.29634-.35984.96309 0 .0847.0847.0847h2.07433q.0847 0 .0847-.0847-.0423-1.27-1.04775-1.27zm.26458 4.73074q-1.38641 0-2.13783-.71966-.74083-.73025-.74083-2.13783 0-1.397.66675-2.12725.66675-.73025 1.92616-.73025 2.3495 0 2.413 2.667.0106.254-.17991.42333-.1905.16933-.4445.16933h-2.88925q-.0952 0-.0741.0953.0741.70909.46567 1.03717.40217.3175 1.16417.3175.47625 0 1.05833-.15875.1905-.0529.34925.0635.16933.11642.16933.3175 0 .24342-.14816.43392-.13759.17991-.37042.22224-.59267.127-1.22767.127z"/><path d="m234.65357 283.17795q-1.11125-.24341-1.5875-.66675-.46567-.42333-.46567-1.10066 0-.762.56092-1.18534.5715-.43391 1.68275-.43391.6985 0 1.38641.127.23284.0423.37042.23283.14817.17992.14817.42333 0 .20109-.15875.32809-.15875.11641-.35984.0635-.59266-.14817-1.24883-.14817-.9525 0-.9525.52917 0 .254.17992.42333.17991.16933.61383.26458 1.21708.24342 1.66158.65617.45509.41275.45509 1.2065 0 .762-.5715 1.18533-.5715.42333-1.66159.42333-.70908 0-1.44991-.16933-.23284-.0529-.381-.24341-.14817-.20109-.14817-.45509 0-.20108.15875-.30691.16933-.10584.35983-.0529.68792.1905 1.30175.1905.96309 0 .96309-.5715 0-.27517-.1905-.43392-.17992-.15875-.66675-.28575z"/></g></g></svg>