<?xml version="1.0" encoding="UTF-8" standalone="no"?>
<svg
   xmlns:dc="http://purl.org/dc/elements/1.1/"
   xmlns:cc="http://creativecommons.org/ns#"
   xmlns:rdf="http://www.w3.org/1999/02/22-rdf-syntax-ns#"
   xmlns:svg="http://www.w3.org/2000/svg"
   xmlns="http://www.w3.org/2000/svg"
   xmlns:sodipodi="http://sodipodi.sourceforge.net/DTD/sodipodi-0.dtd"
   xmlns:inkscape="http://www.inkscape.org/namespaces/inkscape"
   width="64px"
   height="64px"
   viewBox="0 0 64 64"
   version="1.1"
   id="svg2"
   inkscape:version="0.48.4 r9939"
   sodipodi:docname="application-x-lha.svg">
  <metadata
     id="metadata35">
    <rdf:RDF>
      <cc:Work
         rdf:about="">
        <dc:format>image/svg+xml</dc:format>
        <dc:type
           rdf:resource="http://purl.org/dc/dcmitype/StillImage" />
      </cc:Work>
    </rdf:RDF>
  </metadata>
  <defs
     id="defs33" />
  <sodipodi:namedview
     pagecolor="#ffffff"
     bordercolor="#666666"
     borderopacity="1"
     objecttolerance="10"
     gridtolerance="10"
     guidetolerance="10"
     inkscape:pageopacity="0"
     inkscape:pageshadow="2"
     inkscape:window-width="765"
     inkscape:window-height="480"
     id="namedview31"
     showgrid="false"
     inkscape:zoom="3.6875"
     inkscape:cx="32"
     inkscape:cy="32"
     inkscape:window-x="56"
     inkscape:window-y="117"
     inkscape:window-maximized="0"
     inkscape:current-layer="surface1" />
  <g
     id="surface1">
    <path
       style="stroke:none;fill-rule:nonzero;fill:#45606e;fill-opacity:1"
       d="M 10.671875 0 C 9.296875 0 8 1.355469 8 2.789062 L 8 61.210938 C 8 62.566406 9.375 64 10.671875 64 L 53.328125 64 C 54.625 64 56 62.566406 56 61.210938 L 56 18 L 38 0 Z M 10.671875 0 "
       id="path5" />
    <path
       style=" stroke:none;fill-rule:nonzero;fill:rgb(0%,0%,0%);fill-opacity:0.196078;"
       d="M 8 48 L 8 61.335938 C 8 62.632812 9.375 64 10.664062 64 L 53.335938 64 C 54.625 64 56 62.632812 56 61.335938 L 56 48 Z M 8 48 "
       id="path7" />
    <path
       style=" stroke:none;fill-rule:nonzero;fill:rgb(0%,0%,0%);fill-opacity:0.196078;"
       d="M 42 18 L 56 32 L 56 18 Z M 42 18 "
       id="path9" />
    <path
       style=" stroke:none;fill-rule:nonzero;fill:rgb(100%,100%,100%);fill-opacity:1;"
       d="M 25.707031 62 L 18 62 L 18 50.75 L 20.457031 50.75 L 20.457031 60.144531 L 25.707031 60.144531 L 25.707031 62 "
       id="path11" />
    <path
       style=" stroke:none;fill-rule:nonzero;fill:rgb(100%,100%,100%);fill-opacity:0.392157;"
       d="M 38 0 L 55.984375 18 L 40.757812 18 C 39.410156 18 38 16.574219 38 15.226562 Z M 38 0 "
       id="path13" />
    <path
       style=" stroke:none;fill-rule:nonzero;fill:rgb(100%,100%,100%);fill-opacity:1;"
       d="M 35.515625 50.75 L 35.515625 62 L 33.082031 62 L 33.082031 57.039062 L 29.828125 57.039062 L 29.828125 62 L 27.394531 62 L 27.394531 50.75 L 29.828125 50.75 L 29.828125 55.183594 L 33.082031 55.183594 L 33.082031 50.75 L 35.515625 50.75 "
       id="path15" />
    <path
       style=" stroke:none;fill-rule:evenodd;fill:rgb(97.647059%,97.647059%,97.647059%);fill-opacity:1;"
       d="M 18 0 L 24 0 L 24 6 L 18 6 Z M 18 0 "
       id="path17" />
    <path
       style=" stroke:none;fill-rule:nonzero;fill:rgb(100%,100%,100%);fill-opacity:1;"
       d="M 43.515625 62 L 42.949219 59.402344 L 39.675781 59.402344 L 39.125 62 L 36.585938 62 C 37.171875 59.78125 37.753906 57.765625 38.347656 55.949219 C 38.941406 54.113281 39.519531 52.382812 40.070312 50.75 L 42.726562 50.75 C 43.308594 52.398438 43.878906 54.144531 44.449219 56 C 45.03125 57.847656 45.59375 59.839844 46.136719 62 L 43.515625 62 M 41.339844 52.925781 C 41.207031 53.355469 41.085938 53.757812 40.960938 54.144531 C 40.855469 54.523438 40.753906 54.894531 40.648438 55.273438 C 40.558594 55.636719 40.457031 56.007812 40.367188 56.378906 C 40.292969 56.757812 40.210938 57.144531 40.128906 57.550781 L 42.527344 57.550781 C 42.453125 57.144531 42.371094 56.757812 42.289062 56.378906 C 42.214844 56.007812 42.125 55.636719 42.015625 55.273438 C 41.917969 54.894531 41.820312 54.523438 41.695312 54.144531 C 41.589844 53.757812 41.472656 53.355469 41.339844 52.925781 "
       id="path19" />
    <path
       style=" stroke:none;fill-rule:evenodd;fill:rgb(97.647059%,97.647059%,97.647059%);fill-opacity:1;"
       d="M 24 6 L 30 6 L 30 12 L 24 12 Z M 24 6 "
       id="path21" />
    <path
       style=" stroke:none;fill-rule:evenodd;fill:rgb(97.647059%,97.647059%,97.647059%);fill-opacity:1;"
       d="M 18 12 L 24 12 L 24 18 L 18 18 Z M 18 12 "
       id="path23" />
    <path
       style=" stroke:none;fill-rule:evenodd;fill:rgb(97.647059%,97.647059%,97.647059%);fill-opacity:1;"
       d="M 24 18 L 30 18 L 30 24 L 24 24 Z M 24 18 "
       id="path25" />
    <path
       style=" stroke:none;fill-rule:evenodd;fill:rgb(97.647059%,97.647059%,97.647059%);fill-opacity:1;"
       d="M 18 24 L 24 24 L 24 30 L 18 30 Z M 18 24 "
       id="path27" />
    <path
       style=" stroke:none;fill-rule:evenodd;fill:rgb(97.647059%,97.647059%,97.647059%);fill-opacity:1;"
       d="M 18 32 L 30 32 L 30 44 L 18 44 Z M 18 32 "
       id="path29" />
  </g>
</svg>
