<?xml version="1.0" encoding="UTF-8" standalone="no"?>
<svg
   xmlns:dc="http://purl.org/dc/elements/1.1/"
   xmlns:cc="http://creativecommons.org/ns#"
   xmlns:rdf="http://www.w3.org/1999/02/22-rdf-syntax-ns#"
   xmlns:svg="http://www.w3.org/2000/svg"
   xmlns="http://www.w3.org/2000/svg"
   xmlns:sodipodi="http://sodipodi.sourceforge.net/DTD/sodipodi-0.dtd"
   xmlns:inkscape="http://www.inkscape.org/namespaces/inkscape"
   width="64px"
   height="64px"
   viewBox="0 0 64 64"
   version="1.1"
   id="svg2"
   inkscape:version="0.48.4 r9939"
   sodipodi:docname="application-vnd.oasis.opendocument.text-template.svg">
  <metadata
     id="metadata33">
    <rdf:RDF>
      <cc:Work
         rdf:about="">
        <dc:format>image/svg+xml</dc:format>
        <dc:type
           rdf:resource="http://purl.org/dc/dcmitype/StillImage" />
      </cc:Work>
    </rdf:RDF>
  </metadata>
  <defs
     id="defs31" />
  <sodipodi:namedview
     pagecolor="#ffffff"
     bordercolor="#666666"
     borderopacity="1"
     objecttolerance="10"
     gridtolerance="10"
     guidetolerance="10"
     inkscape:pageopacity="0"
     inkscape:pageshadow="2"
     inkscape:window-width="765"
     inkscape:window-height="480"
     id="namedview29"
     showgrid="false"
     inkscape:zoom="3.6875"
     inkscape:cx="-17.898305"
     inkscape:cy="32"
     inkscape:window-x="59"
     inkscape:window-y="34"
     inkscape:window-maximized="0"
     inkscape:current-layer="surface1" />
  <g
     id="surface1">
    <path
       style="stroke:none;fill-rule:nonzero;fill:#5062b0;fill-opacity:1"
       d="M 10.6875 0 C 9.3125 0 8 1.378906 8 2.8125 L 8 61.1875 C 8 62.539062 9.390625 64 10.6875 64 L 53.3125 64 C 54.609375 64 56 62.539062 56 61.1875 L 56 2.75 C 56 1.402344 54.597656 0 53.25 0 Z M 10.6875 0 "
       id="path5" />
    <path
       style=" stroke:none;fill-rule:nonzero;fill:rgb(0%,0%,0%);fill-opacity:0.196078;"
       d="M 8 48 L 8 61.335938 C 8 62.632812 9.375 64 10.664062 64 L 53.335938 64 C 54.625 64 56 62.632812 56 61.335938 L 56 48 Z M 8 48 "
       id="path21" />
    <path
       style=" stroke:none;fill-rule:nonzero;fill:rgb(100%,100%,100%);fill-opacity:1;"
       d="M 20.3125 56.597656 C 20.3125 57.121094 20.328125 57.617188 20.371094 58.078125 C 20.421875 58.53125 20.511719 58.925781 20.644531 59.265625 C 20.78125 59.601562 20.980469 59.867188 21.226562 60.0625 C 21.476562 60.261719 21.804688 60.359375 22.214844 60.359375 C 22.621094 60.359375 22.941406 60.261719 23.1875 60.0625 C 23.445312 59.867188 23.640625 59.601562 23.773438 59.265625 C 23.914062 58.910156 24.003906 58.515625 24.046875 58.0625 C 24.09375 57.609375 24.117188 57.121094 24.117188 56.597656 C 24.117188 56.078125 24.09375 55.589844 24.046875 55.136719 C 24.003906 54.667969 23.914062 54.273438 23.773438 53.933594 C 23.640625 53.597656 23.453125 53.332031 23.203125 53.136719 C 22.957031 52.9375 22.628906 52.839844 22.214844 52.839844 C 21.804688 52.839844 21.476562 52.9375 21.226562 53.136719 C 20.980469 53.332031 20.78125 53.605469 20.644531 53.953125 C 20.511719 54.289062 20.421875 54.683594 20.371094 55.136719 C 20.328125 55.589844 20.3125 56.078125 20.3125 56.597656 M 17.882812 56.597656 C 17.882812 54.742188 18.269531 53.339844 19.027344 52.402344 C 19.792969 51.445312 20.855469 50.976562 22.214844 50.976562 C 23.625 50.976562 24.703125 51.445312 25.4375 52.402344 C 26.179688 53.339844 26.550781 54.742188 26.550781 56.597656 C 26.550781 58.457031 26.171875 59.859375 25.421875 60.8125 C 24.671875 61.753906 23.609375 62.222656 22.234375 62.222656 C 20.824219 62.222656 19.746094 61.753906 18.996094 60.8125 C 18.253906 59.859375 17.882812 58.457031 17.882812 56.597656 "
       id="path23" />
    <path
       style=" stroke:none;fill-rule:nonzero;fill:rgb(100%,100%,100%);fill-opacity:1;"
       d="M 36.296875 51.214844 L 36.296875 52.996094 L 33.132812 52.996094 L 33.132812 62 L 30.71875 62 L 30.71875 52.996094 L 27.554688 52.996094 L 27.554688 51.214844 L 36.296875 51.214844 "
       id="path25" />
    <path
       style=" stroke:none;fill-rule:nonzero;fill:rgb(100%,100%,100%);fill-opacity:1;"
       d="M 46.007812 51.214844 L 46.007812 52.996094 L 42.835938 52.996094 L 42.835938 62 L 40.429688 62 L 40.429688 52.996094 L 37.265625 52.996094 L 37.265625 51.214844 L 46.007812 51.214844 "
       id="path27" />
    <text
       xml:space="preserve"
       style="font-size:30.86681175px;font-style:normal;font-variant:normal;font-weight:normal;font-stretch:normal;text-align:start;line-height:125%;letter-spacing:0px;word-spacing:0px;writing-mode:lr-tb;text-anchor:start;fill:#ffffff;fill-opacity:1;stroke:none;font-family:Ubuntu;-inkscape-font-specification:Ubuntu"
       x="11.626256"
       y="45.218857"
       id="text3043"
       sodipodi:linespacing="125%"><tspan
         sodipodi:role="line"
         id="tspan3045"
         x="11.626256"
         y="45.218857">W</tspan></text>
  </g>
</svg>
