<?xml version="1.0" encoding="UTF-8" standalone="no"?>
<svg
   xmlns:dc="http://purl.org/dc/elements/1.1/"
   xmlns:cc="http://creativecommons.org/ns#"
   xmlns:rdf="http://www.w3.org/1999/02/22-rdf-syntax-ns#"
   xmlns:svg="http://www.w3.org/2000/svg"
   xmlns="http://www.w3.org/2000/svg"
   xmlns:sodipodi="http://sodipodi.sourceforge.net/DTD/sodipodi-0.dtd"
   xmlns:inkscape="http://www.inkscape.org/namespaces/inkscape"
   width="64px"
   height="64px"
   viewBox="0 0 64 64"
   version="1.1"
   id="svg2"
   inkscape:version="0.48.4 r9939"
   sodipodi:docname="application-rtf.svg">
  <metadata
     id="metadata37">
    <rdf:RDF>
      <cc:Work
         rdf:about="">
        <dc:format>image/svg+xml</dc:format>
        <dc:type
           rdf:resource="http://purl.org/dc/dcmitype/StillImage" />
      </cc:Work>
    </rdf:RDF>
  </metadata>
  <defs
     id="defs35" />
  <sodipodi:namedview
     pagecolor="#ffffff"
     bordercolor="#666666"
     borderopacity="1"
     objecttolerance="10"
     gridtolerance="10"
     guidetolerance="10"
     inkscape:pageopacity="0"
     inkscape:pageshadow="2"
     inkscape:window-width="765"
     inkscape:window-height="480"
     id="namedview33"
     showgrid="false"
     inkscape:zoom="3.6875"
     inkscape:cx="-17.898305"
     inkscape:cy="32"
     inkscape:window-x="399"
     inkscape:window-y="82"
     inkscape:window-maximized="0"
     inkscape:current-layer="surface1" />
  <g
     id="surface1">
    <path
       style="stroke:none;fill-rule:nonzero;fill:#5062b0;fill-opacity:1"
       d="M 10.671875 0 C 9.296875 0 8 1.355469 8 2.789062 L 8 61.210938 C 8 62.566406 9.375 64 10.671875 64 L 53.328125 64 C 54.625 64 56 62.566406 56 61.210938 L 56 18 L 38 0 Z M 10.671875 0 "
       id="path5" />
    <path
       style=" stroke:none;fill-rule:nonzero;fill:rgb(0%,0%,0%);fill-opacity:0.196078;"
       d="M 42 18 L 56 32 L 56 18 Z M 42 18 "
       id="path7" />
    <path
       style=" stroke:none;fill-rule:nonzero;fill:rgb(100%,100%,100%);fill-opacity:0.392157;"
       d="M 38 0 L 55.984375 18 L 40.757812 18 C 39.410156 18 38 16.574219 38 15.226562 Z M 38 0 "
       id="path9" />
    <path
       style=" stroke:none;fill-rule:nonzero;fill:rgb(0%,0%,0%);fill-opacity:0.196078;"
       d="M 8 48 L 8 61.335938 C 8 62.632812 9.375 64 10.664062 64 L 53.335938 64 C 54.625 64 56 62.632812 56 61.335938 L 56 48 Z M 8 48 "
       id="path15" />
    <path
       style=" stroke:none;fill-rule:nonzero;fill:rgb(100%,100%,100%);fill-opacity:1;"
       d="M 21.230469 50.804688 C 21.945312 50.804688 22.585938 50.871094 23.167969 51.019531 C 23.742188 51.15625 24.242188 51.378906 24.660156 51.683594 C 25.078125 51.976562 25.390625 52.355469 25.601562 52.824219 C 25.832031 53.273438 25.949219 53.816406 25.949219 54.429688 C 25.949219 55.078125 25.800781 55.660156 25.503906 56.183594 C 25.210938 56.710938 24.71875 57.113281 24.035156 57.382812 C 24.265625 57.695312 24.503906 58.039062 24.757812 58.425781 C 25.011719 58.792969 25.265625 59.1875 25.503906 59.605469 C 25.75 60.007812 25.980469 60.417969 26.191406 60.835938 C 26.421875 61.246094 26.613281 61.632812 26.777344 62 L 24.175781 62 C 23.863281 61.285156 23.503906 60.597656 23.085938 59.941406 C 22.683594 59.277344 22.25 58.605469 21.773438 57.925781 L 20.484375 57.925781 L 20.484375 62 L 18 62 L 18 51.09375 C 18.246094 51.042969 18.507812 51 18.789062 50.960938 C 19.082031 50.910156 19.378906 50.886719 19.671875 50.871094 C 19.976562 50.847656 20.253906 50.828125 20.527344 50.820312 C 20.796875 50.804688 21.027344 50.804688 21.230469 50.804688 M 23.429688 54.414062 C 23.429688 53.832031 23.222656 53.40625 22.824219 53.125 C 22.421875 52.855469 21.886719 52.714844 21.230469 52.714844 C 21.132812 52.714844 21.019531 52.722656 20.886719 52.730469 C 20.753906 52.730469 20.617188 52.75 20.484375 52.773438 L 20.484375 56.09375 L 21.027344 56.09375 C 21.871094 56.09375 22.484375 55.957031 22.863281 55.667969 C 23.242188 55.375 23.429688 54.953125 23.429688 54.414062 "
       id="path19" />
    <path
       style=" stroke:none;fill-rule:nonzero;fill:rgb(100%,100%,100%);fill-opacity:1;"
       d="M 36.578125 50.929688 L 36.578125 52.75 L 33.289062 52.75 L 33.289062 62 L 30.785156 62 L 30.785156 52.75 L 27.503906 52.75 L 27.503906 50.929688 L 36.578125 50.929688 "
       id="path21" />
    <path
       style=" stroke:none;fill-rule:nonzero;fill:rgb(100%,100%,100%);fill-opacity:1;"
       d="M 38.355469 62 L 38.355469 50.929688 L 46 50.929688 L 46 52.75 L 40.832031 52.75 L 40.832031 55.4375 L 45.351562 55.4375 L 45.351562 57.257812 L 40.832031 57.257812 L 40.832031 62 L 38.355469 62 "
       id="path23" />
    <text
       xml:space="preserve"
       style="font-size:30.86681175px;font-style:normal;font-variant:normal;font-weight:normal;font-stretch:normal;text-align:start;line-height:125%;letter-spacing:0px;word-spacing:0px;writing-mode:lr-tb;text-anchor:start;fill:#ffffff;fill-opacity:1;stroke:none;font-family:Ubuntu;-inkscape-font-specification:Ubuntu"
       x="11.626256"
       y="45.218857"
       id="text3043"
       sodipodi:linespacing="125%"><tspan
         sodipodi:role="line"
         id="tspan3045"
         x="11.626256"
         y="45.218857">W</tspan></text>
  </g>
</svg>
