<?xml version="1.0" encoding="UTF-8" standalone="no"?>
<svg
   xmlns:dc="http://purl.org/dc/elements/1.1/"
   xmlns:cc="http://creativecommons.org/ns#"
   xmlns:rdf="http://www.w3.org/1999/02/22-rdf-syntax-ns#"
   xmlns:svg="http://www.w3.org/2000/svg"
   xmlns="http://www.w3.org/2000/svg"
   xmlns:sodipodi="http://sodipodi.sourceforge.net/DTD/sodipodi-0.dtd"
   xmlns:inkscape="http://www.inkscape.org/namespaces/inkscape"
   width="64px"
   height="64px"
   viewBox="0 0 64 64"
   version="1.1"
   id="svg2"
   inkscape:version="0.48.4 r9939"
   sodipodi:docname="image-x-compressed-xcf.svg">
  <metadata
     id="metadata25">
    <rdf:RDF>
      <cc:Work
         rdf:about="">
        <dc:format>image/svg+xml</dc:format>
        <dc:type
           rdf:resource="http://purl.org/dc/dcmitype/StillImage" />
      </cc:Work>
    </rdf:RDF>
  </metadata>
  <defs
     id="defs23" />
  <sodipodi:namedview
     pagecolor="#ffffff"
     bordercolor="#666666"
     borderopacity="1"
     objecttolerance="10"
     gridtolerance="10"
     guidetolerance="10"
     inkscape:pageopacity="0"
     inkscape:pageshadow="2"
     inkscape:window-width="765"
     inkscape:window-height="480"
     id="namedview21"
     showgrid="false"
     inkscape:zoom="3.6875"
     inkscape:cx="33.966102"
     inkscape:cy="32"
     inkscape:window-x="612"
     inkscape:window-y="430"
     inkscape:window-maximized="0"
     inkscape:current-layer="surface1" />
  <g
     id="surface1">
    <path
       style="stroke:none;fill-rule:nonzero;fill:#3e6578;fill-opacity:1"
       d="M 10.671875 0 C 9.296875 0 8 1.355469 8 2.789062 L 8 61.210938 C 8 62.566406 9.375 64 10.671875 64 L 53.328125 64 C 54.625 64 56 62.566406 56 61.210938 L 56 18 L 38 0 Z M 10.671875 0 "
       id="path5" />
    <path
       style=" stroke:none;fill-rule:nonzero;fill:rgb(0%,0%,0%);fill-opacity:0.196078;"
       d="M 42 18 L 56 32 L 56 18 Z M 42 18 "
       id="path7" />
    <path
       style=" stroke:none;fill-rule:nonzero;fill:rgb(100%,100%,100%);fill-opacity:0.392157;"
       d="M 38 0 L 55.984375 18 L 40.757812 18 C 39.410156 18 38 16.574219 38 15.226562 Z M 38 0 "
       id="path9" />
    <path
       style=" stroke:none;fill-rule:evenodd;fill:rgb(97.647059%,97.647059%,97.647059%);fill-opacity:1;"
       d="M 18 0 L 24 0 L 24 6 L 18 6 Z M 18 0 "
       id="path11" />
    <path
       style=" stroke:none;fill-rule:evenodd;fill:rgb(97.647059%,97.647059%,97.647059%);fill-opacity:1;"
       d="M 24 6 L 30 6 L 30 12 L 24 12 Z M 24 6 "
       id="path13" />
    <path
       style=" stroke:none;fill-rule:evenodd;fill:rgb(97.647059%,97.647059%,97.647059%);fill-opacity:1;"
       d="M 18 12 L 24 12 L 24 18 L 18 18 Z M 18 12 "
       id="path15" />
    <path
       style=" stroke:none;fill-rule:evenodd;fill:rgb(97.647059%,97.647059%,97.647059%);fill-opacity:1;"
       d="M 18 20 L 30 20 L 30 32 L 18 32 Z M 18 20 "
       id="path17" />
    <path
       style=" stroke:none;fill-rule:nonzero;fill:rgb(100%,100%,100%);fill-opacity:1;"
       d="M 42.054688 34.6875 C 41.953125 34.734375 41.859375 34.898438 41.773438 35.164062 C 41.546875 35.867188 39.921875 40.726562 30.710938 40.960938 C 26.320312 41.070312 24.453125 37.148438 24.453125 37.148438 L 24.34375 42.195312 C 24.34375 42.195312 24.8125 43.3125 23.875 44.484375 C 23.820312 44.40625 23.789062 44.3125 23.734375 44.234375 C 23.398438 43.757812 23 43.359375 22.578125 43.0625 C 22.09375 42.71875 21.585938 42.492188 21.085938 42.414062 C 20.515625 42.328125 19.953125 42.453125 19.515625 42.78125 C 19.070312 43.101562 18.8125 43.601562 18.710938 44.179688 C 18.625 44.6875 18.65625 45.226562 18.828125 45.804688 C 18.96875 46.304688 19.203125 46.8125 19.539062 47.289062 C 19.898438 47.789062 20.34375 48.242188 20.8125 48.546875 C 21.335938 48.898438 21.890625 49.109375 22.4375 49.140625 C 22.609375 49.148438 22.78125 49.109375 22.9375 49.078125 C 26.46875 51.929688 33.484375 54.578125 38.132812 51.546875 C 38.234375 51.578125 38.335938 51.625 38.4375 51.65625 C 38.4375 51.710938 38.421875 51.757812 38.4375 51.796875 L 38.65625 51.710938 C 38.695312 51.726562 38.726562 51.757812 38.765625 51.773438 C 38.773438 51.773438 38.789062 51.765625 38.796875 51.773438 L 38.875 51.851562 L 40.976562 52.609375 C 40.890625 53.351562 41.25 54.1875 42.164062 54.546875 C 43.804688 55.179688 45.335938 56 45.335938 56 C 44.546875 53.296875 44.265625 51.132812 42.21875 51.320312 C 41.835938 51.359375 41.546875 51.515625 41.335938 51.742188 L 39.484375 50.539062 L 39.40625 50.539062 L 39.375 50.507812 C 41.867188 48.023438 43.320312 43.351562 42.4375 35.21875 C 42.382812 34.8125 42.21875 34.601562 42.054688 34.6875 Z M 42.054688 34.6875 "
       id="path19" />
  </g>
</svg>
