<?xml version="1.0" encoding="UTF-8" standalone="no"?>
<svg
   xmlns:dc="http://purl.org/dc/elements/1.1/"
   xmlns:cc="http://creativecommons.org/ns#"
   xmlns:rdf="http://www.w3.org/1999/02/22-rdf-syntax-ns#"
   xmlns:svg="http://www.w3.org/2000/svg"
   xmlns="http://www.w3.org/2000/svg"
   xmlns:sodipodi="http://sodipodi.sourceforge.net/DTD/sodipodi-0.dtd"
   xmlns:inkscape="http://www.inkscape.org/namespaces/inkscape"
   width="64px"
   height="64px"
   viewBox="0 0 64 64"
   version="1.1"
   id="svg2"
   inkscape:version="0.48.4 r9939"
   sodipodi:docname="wps-office-dot.svg">
  <metadata
     id="metadata33">
    <rdf:RDF>
      <cc:Work
         rdf:about="">
        <dc:format>image/svg+xml</dc:format>
        <dc:type
           rdf:resource="http://purl.org/dc/dcmitype/StillImage" />
      </cc:Work>
    </rdf:RDF>
  </metadata>
  <defs
     id="defs31" />
  <sodipodi:namedview
     pagecolor="#ffffff"
     bordercolor="#666666"
     borderopacity="1"
     objecttolerance="10"
     gridtolerance="10"
     guidetolerance="10"
     inkscape:pageopacity="0"
     inkscape:pageshadow="2"
     inkscape:window-width="765"
     inkscape:window-height="480"
     id="namedview29"
     showgrid="false"
     inkscape:zoom="3.6875"
     inkscape:cx="22.169492"
     inkscape:cy="32"
     inkscape:window-x="901"
     inkscape:window-y="227"
     inkscape:window-maximized="0"
     inkscape:current-layer="surface1" />
  <g
     id="surface1">
    <path
       style="stroke:none;fill-rule:nonzero;fill:#5062b0;fill-opacity:1"
       d="M 10.6875 0 C 9.3125 0 8 1.378906 8 2.8125 L 8 61.1875 C 8 62.539062 9.390625 64 10.6875 64 L 53.3125 64 C 54.609375 64 56 62.539062 56 61.1875 L 56 2.75 C 56 1.402344 54.597656 0 53.25 0 Z M 10.6875 0 "
       id="path5" />
    <path
       style=" stroke:none;fill-rule:nonzero;fill:rgb(0%,0%,0%);fill-opacity:0.196078;"
       d="M 8 48 L 8 61.335938 C 8 62.632812 9.375 64 10.664062 64 L 53.335938 64 C 54.625 64 56 62.632812 56 61.335938 L 56 48 Z M 8 48 "
       id="path21" />
    <path
       style=" stroke:none;fill-rule:nonzero;fill:rgb(100%,100%,100%);fill-opacity:1;"
       d="M 20.390625 60.257812 C 20.457031 60.273438 20.53125 60.273438 20.605469 60.273438 C 20.6875 60.273438 20.761719 60.273438 20.828125 60.273438 C 21.378906 60.273438 21.835938 60.183594 22.207031 59.996094 C 22.585938 59.816406 22.890625 59.5625 23.109375 59.230469 C 23.347656 58.910156 23.511719 58.535156 23.601562 58.089844 C 23.710938 57.640625 23.765625 57.144531 23.765625 56.613281 C 23.765625 56.152344 23.726562 55.699219 23.644531 55.257812 C 23.570312 54.820312 23.429688 54.4375 23.234375 54.097656 C 23.035156 53.761719 22.765625 53.5 22.421875 53.300781 C 22.082031 53.089844 21.640625 52.992188 21.097656 52.992188 C 20.992188 52.992188 20.875 52.992188 20.746094 53.007812 C 20.613281 53.007812 20.5 53.015625 20.390625 53.039062 L 20.390625 60.257812 M 26.230469 56.613281 C 26.230469 57.613281 26.082031 58.460938 25.796875 59.167969 C 25.515625 59.863281 25.128906 60.429688 24.628906 60.867188 C 24.128906 61.308594 23.539062 61.628906 22.839844 61.84375 C 22.148438 62.03125 21.394531 62.132812 20.5625 62.132812 C 20.136719 62.132812 19.710938 62.113281 19.285156 62.066406 C 18.878906 62.03125 18.4375 61.96875 17.960938 61.875 L 17.960938 51.390625 C 18.519531 51.289062 19.035156 51.214844 19.519531 51.183594 C 20.007812 51.152344 20.464844 51.125 20.882812 51.125 C 21.691406 51.125 22.414062 51.234375 23.070312 51.445312 C 23.742188 51.652344 24.308594 51.980469 24.769531 52.433594 C 25.230469 52.875 25.582031 53.441406 25.835938 54.132812 C 26.101562 54.8125 26.230469 55.644531 26.230469 56.613281 "
       id="path23" />
    <path
       style=" stroke:none;fill-rule:nonzero;fill:rgb(100%,100%,100%);fill-opacity:1;"
       d="M 29.761719 56.613281 C 29.761719 57.136719 29.78125 57.628906 29.820312 58.089844 C 29.871094 58.542969 29.96875 58.9375 30.101562 59.273438 C 30.238281 59.609375 30.4375 59.871094 30.691406 60.070312 C 30.9375 60.265625 31.273438 60.367188 31.691406 60.367188 C 32.105469 60.367188 32.433594 60.265625 32.679688 60.070312 C 32.941406 59.871094 33.136719 59.609375 33.269531 59.273438 C 33.417969 58.921875 33.507812 58.527344 33.550781 58.074219 C 33.597656 57.621094 33.632812 57.136719 33.632812 56.613281 C 33.632812 56.09375 33.597656 55.609375 33.550781 55.160156 C 33.507812 54.691406 33.417969 54.296875 33.269531 53.960938 C 33.136719 53.621094 32.949219 53.359375 32.703125 53.164062 C 32.449219 52.964844 32.113281 52.867188 31.691406 52.867188 C 31.273438 52.867188 30.9375 52.964844 30.691406 53.164062 C 30.4375 53.359375 30.238281 53.632812 30.101562 53.976562 C 29.96875 54.3125 29.871094 54.707031 29.820312 55.160156 C 29.78125 55.609375 29.761719 56.09375 29.761719 56.613281 M 27.300781 56.613281 C 27.300781 54.765625 27.683594 53.367188 28.457031 52.433594 C 29.238281 51.480469 30.3125 51.011719 31.691406 51.011719 C 33.128906 51.011719 34.222656 51.480469 34.96875 52.433594 C 35.71875 53.367188 36.09375 54.765625 36.09375 56.613281 C 36.09375 58.46875 35.710938 59.863281 34.953125 60.816406 C 34.191406 61.753906 33.105469 62.222656 31.71875 62.222656 C 30.28125 62.222656 29.179688 61.753906 28.417969 60.816406 C 27.667969 59.863281 27.300781 58.46875 27.300781 56.613281 "
       id="path25" />
    <path
       style=" stroke:none;fill-rule:nonzero;fill:rgb(100%,100%,100%);fill-opacity:1;"
       d="M 46 51.25 L 46 53.023438 L 42.78125 53.023438 L 42.78125 62 L 40.332031 62 L 40.332031 53.023438 L 37.121094 53.023438 L 37.121094 51.25 L 46 51.25 "
       id="path27" />
    <text
       xml:space="preserve"
       style="font-size:30.86681175px;font-style:normal;font-variant:normal;font-weight:normal;font-stretch:normal;text-align:start;line-height:125%;letter-spacing:0px;word-spacing:0px;writing-mode:lr-tb;text-anchor:start;fill:#ffffff;fill-opacity:1;stroke:none;font-family:Ubuntu;-inkscape-font-specification:Ubuntu"
       x="11.626256"
       y="45.218857"
       id="text3043"
       sodipodi:linespacing="125%"><tspan
         sodipodi:role="line"
         id="tspan3045"
         x="11.626256"
         y="45.218857">W</tspan></text>
  </g>
</svg>
