<?xml version="1.0" encoding="UTF-8" standalone="no"?>
<svg
   xmlns:dc="http://purl.org/dc/elements/1.1/"
   xmlns:cc="http://creativecommons.org/ns#"
   xmlns:rdf="http://www.w3.org/1999/02/22-rdf-syntax-ns#"
   xmlns:svg="http://www.w3.org/2000/svg"
   xmlns="http://www.w3.org/2000/svg"
   xmlns:sodipodi="http://sodipodi.sourceforge.net/DTD/sodipodi-0.dtd"
   xmlns:inkscape="http://www.inkscape.org/namespaces/inkscape"
   width="256px"
   height="256px"
   viewBox="0 0 256 256"
   version="1.1"
   id="svg2"
   inkscape:version="0.48.4 r9939"
   sodipodi:docname="application-x-arj.svg">
  <metadata
     id="metadata35">
    <rdf:RDF>
      <cc:Work
         rdf:about="">
        <dc:format>image/svg+xml</dc:format>
        <dc:type
           rdf:resource="http://purl.org/dc/dcmitype/StillImage" />
      </cc:Work>
    </rdf:RDF>
  </metadata>
  <defs
     id="defs33" />
  <sodipodi:namedview
     pagecolor="#ffffff"
     bordercolor="#666666"
     borderopacity="1"
     objecttolerance="10"
     gridtolerance="10"
     guidetolerance="10"
     inkscape:pageopacity="0"
     inkscape:pageshadow="2"
     inkscape:window-width="765"
     inkscape:window-height="480"
     id="namedview31"
     showgrid="false"
     inkscape:zoom="0.921875"
     inkscape:cx="128"
     inkscape:cy="128"
     inkscape:window-x="59"
     inkscape:window-y="34"
     inkscape:window-maximized="0"
     inkscape:current-layer="surface1" />
  <g
     id="surface1">
    <path
       style="stroke:none;fill-rule:nonzero;fill:#45606e;fill-opacity:1"
       d="M 42.6875 0 C 37.1875 0 32 5.421875 32 11.15625 L 32 244.84375 C 32 250.265625 37.5 256 42.6875 256 L 213.3125 256 C 218.5 256 224 250.265625 224 244.84375 L 224 72 L 152 0 Z M 42.6875 0 "
       id="path5" />
    <path
       style=" stroke:none;fill-rule:nonzero;fill:rgb(0%,0%,0%);fill-opacity:0.196078;"
       d="M 32 192 L 32 245.34375 C 32 250.53125 37.5 256 42.65625 256 L 213.34375 256 C 218.5 256 224 250.53125 224 245.34375 L 224 192 Z M 32 192 "
       id="path7" />
    <path
       style=" stroke:none;fill-rule:nonzero;fill:rgb(100%,100%,100%);fill-opacity:1;"
       d="M 99.421875 247.953125 L 97.15625 237.953125 L 84.234375 237.953125 L 82.03125 247.953125 L 72 247.953125 C 74.296875 239.421875 76.625 231.625 78.984375 224.625 C 81.34375 217.578125 83.609375 210.890625 85.8125 204.59375 L 96.3125 204.59375 C 98.609375 210.921875 100.875 217.671875 103.140625 224.828125 C 105.421875 231.953125 107.625 239.65625 109.796875 247.953125 L 99.421875 247.953125 M 90.828125 212.984375 C 90.3125 214.625 89.8125 216.203125 89.328125 217.671875 C 88.890625 219.125 88.5 220.5625 88.078125 222.046875 C 87.71875 223.421875 87.359375 224.859375 87 226.296875 C 86.671875 227.75 86.34375 229.25 86.046875 230.796875 L 95.515625 230.796875 C 95.1875 229.25 94.90625 227.75 94.578125 226.296875 C 94.28125 224.859375 93.921875 223.421875 93.484375 222.046875 C 93.125 220.5625 92.703125 219.125 92.234375 217.671875 C 91.8125 216.203125 91.359375 214.625 90.828125 212.984375 "
       id="path9" />
    <path
       style=" stroke:none;fill-rule:nonzero;fill:rgb(0%,0%,0%);fill-opacity:0.196078;"
       d="M 168 72 L 224 128 L 224 72 Z M 168 72 "
       id="path11" />
    <path
       style=" stroke:none;fill-rule:nonzero;fill:rgb(100%,100%,100%);fill-opacity:1;"
       d="M 127.25 204.09375 C 130.03125 204.09375 132.53125 204.359375 134.796875 204.921875 C 137.015625 205.46875 138.953125 206.359375 140.5625 207.5 C 142.203125 208.6875 143.421875 210.203125 144.265625 212 C 145.15625 213.765625 145.578125 215.875 145.578125 218.296875 C 145.578125 220.828125 145.03125 223.125 143.875 225.1875 C 142.734375 227.21875 140.828125 228.796875 138.140625 229.875 C 139.015625 231.09375 139.96875 232.4375 140.953125 233.953125 C 141.96875 235.390625 142.921875 236.9375 143.875 238.578125 C 144.796875 240.15625 145.6875 241.75 146.53125 243.390625 C 147.421875 245 148.171875 246.515625 148.796875 247.953125 L 138.6875 247.953125 C 137.484375 245.171875 136.0625 242.484375 134.46875 239.890625 C 132.890625 237.296875 131.21875 234.640625 129.375 231.984375 L 124.359375 231.984375 L 124.359375 247.953125 L 114.71875 247.953125 L 114.71875 205.203125 C 115.671875 205.015625 116.6875 204.84375 117.765625 204.71875 C 118.90625 204.515625 120.0625 204.421875 121.203125 204.359375 C 122.359375 204.265625 123.46875 204.1875 124.515625 204.15625 C 125.578125 204.09375 126.453125 204.09375 127.25 204.09375 M 135.8125 218.234375 C 135.8125 215.9375 135.015625 214.265625 133.453125 213.1875 C 131.875 212.125 129.796875 211.578125 127.25 211.578125 C 126.890625 211.578125 126.453125 211.609375 125.9375 211.640625 C 125.40625 211.640625 124.890625 211.703125 124.359375 211.796875 L 124.359375 224.828125 L 126.453125 224.828125 C 129.765625 224.828125 132.140625 224.265625 133.609375 223.15625 C 135.046875 221.96875 135.8125 220.328125 135.8125 218.234375 "
       id="path13" />
    <path
       style=" stroke:none;fill-rule:nonzero;fill:rgb(100%,100%,100%);fill-opacity:0.392157;"
       d="M 152 0 L 223.9375 72 L 163.03125 72 C 157.640625 72 152 66.296875 152 60.90625 Z M 152 0 "
       id="path15" />
    <path
       style=" stroke:none;fill-rule:nonzero;fill:rgb(100%,100%,100%);fill-opacity:1;"
       d="M 184 233.453125 C 184 235.5625 183.671875 237.5625 183.046875 239.421875 C 182.453125 241.296875 181.46875 242.90625 180.0625 244.3125 C 178.71875 245.71875 176.953125 246.84375 174.75 247.6875 C 172.546875 248.484375 169.890625 248.875 166.75 248.875 C 163.46875 248.875 160.703125 248.515625 158.515625 247.765625 C 156.3125 247 154.46875 246.09375 152.96875 245 L 156.640625 238.140625 C 157.953125 238.90625 159.390625 239.625 160.9375 240.3125 C 162.578125 241.03125 164.21875 241.359375 165.890625 241.359375 C 168.390625 241.359375 170.421875 240.796875 171.921875 239.625 C 173.5 238.40625 174.25 236.171875 174.25 232.96875 L 174.25 211.734375 L 158.046875 211.734375 L 158.046875 204.59375 L 184 204.59375 L 184 233.453125 "
       id="path17" />
    <path
       style=" stroke:none;fill-rule:evenodd;fill:rgb(97.647059%,97.647059%,97.647059%);fill-opacity:1;"
       d="M 72 0 L 96 0 L 96 24 L 72 24 Z M 72 0 "
       id="path19" />
    <path
       style=" stroke:none;fill-rule:evenodd;fill:rgb(97.647059%,97.647059%,97.647059%);fill-opacity:1;"
       d="M 96 24 L 120 24 L 120 48 L 96 48 Z M 96 24 "
       id="path21" />
    <path
       style=" stroke:none;fill-rule:evenodd;fill:rgb(97.647059%,97.647059%,97.647059%);fill-opacity:1;"
       d="M 72 48 L 96 48 L 96 72 L 72 72 Z M 72 48 "
       id="path23" />
    <path
       style=" stroke:none;fill-rule:evenodd;fill:rgb(97.647059%,97.647059%,97.647059%);fill-opacity:1;"
       d="M 96 72 L 120 72 L 120 96 L 96 96 Z M 96 72 "
       id="path25" />
    <path
       style=" stroke:none;fill-rule:evenodd;fill:rgb(97.647059%,97.647059%,97.647059%);fill-opacity:1;"
       d="M 72 96 L 96 96 L 96 120 L 72 120 Z M 72 96 "
       id="path27" />
    <path
       style=" stroke:none;fill-rule:evenodd;fill:rgb(97.647059%,97.647059%,97.647059%);fill-opacity:1;"
       d="M 72 128 L 120 128 L 120 176 L 72 176 Z M 72 128 "
       id="path29" />
  </g>
</svg>
