<?xml version="1.0" encoding="UTF-8" standalone="no"?>
<svg
   xmlns:dc="http://purl.org/dc/elements/1.1/"
   xmlns:cc="http://creativecommons.org/ns#"
   xmlns:rdf="http://www.w3.org/1999/02/22-rdf-syntax-ns#"
   xmlns:svg="http://www.w3.org/2000/svg"
   xmlns="http://www.w3.org/2000/svg"
   xmlns:sodipodi="http://sodipodi.sourceforge.net/DTD/sodipodi-0.dtd"
   xmlns:inkscape="http://www.inkscape.org/namespaces/inkscape"
   width="256px"
   height="256px"
   viewBox="0 0 256 256"
   version="1.1"
   id="svg2"
   inkscape:version="0.48.4 r9939"
   sodipodi:docname="application-archive-zip.svg">
  <metadata
     id="metadata35">
    <rdf:RDF>
      <cc:Work
         rdf:about="">
        <dc:format>image/svg+xml</dc:format>
        <dc:type
           rdf:resource="http://purl.org/dc/dcmitype/StillImage" />
      </cc:Work>
    </rdf:RDF>
  </metadata>
  <defs
     id="defs33" />
  <sodipodi:namedview
     pagecolor="#ffffff"
     bordercolor="#666666"
     borderopacity="1"
     objecttolerance="10"
     gridtolerance="10"
     guidetolerance="10"
     inkscape:pageopacity="0"
     inkscape:pageshadow="2"
     inkscape:window-width="765"
     inkscape:window-height="480"
     id="namedview31"
     showgrid="false"
     inkscape:zoom="0.921875"
     inkscape:cx="128"
     inkscape:cy="128"
     inkscape:window-x="59"
     inkscape:window-y="34"
     inkscape:window-maximized="0"
     inkscape:current-layer="surface1" />
  <g
     id="surface1">
    <path
       style="stroke:none;fill-rule:nonzero;fill:#45606e;fill-opacity:1"
       d="M 42.6875 0 C 37.1875 0 32 5.421875 32 11.15625 L 32 244.84375 C 32 250.265625 37.5 256 42.6875 256 L 213.3125 256 C 218.5 256 224 250.265625 224 244.84375 L 224 72 L 152 0 Z M 42.6875 0 "
       id="path5" />
    <path
       style=" stroke:none;fill-rule:nonzero;fill:rgb(0%,0%,0%);fill-opacity:0.196078;"
       d="M 168 72 L 224 128 L 224 72 Z M 168 72 "
       id="path7" />
    <path
       style=" stroke:none;fill-rule:nonzero;fill:rgb(0%,0%,0%);fill-opacity:0.196078;"
       d="M 32 192 L 32 245.34375 C 32 250.53125 37.5 256 42.65625 256 L 213.34375 256 C 218.5 256 224 250.53125 224 245.34375 L 224 192 Z M 32 192 "
       id="path9" />
    <path
       style=" stroke:none;fill-rule:nonzero;fill:rgb(100%,100%,100%);fill-opacity:0.392157;"
       d="M 152 0 L 223.9375 72 L 163.03125 72 C 157.640625 72 152 66.296875 152 60.90625 Z M 152 0 "
       id="path11" />
    <path
       style=" stroke:none;fill-rule:nonzero;fill:rgb(100%,100%,100%);fill-opacity:1;"
       d="M 103.328125 209.875 C 101.09375 213 99.03125 215.984375 97.125 218.734375 C 95.265625 221.5 93.484375 224.15625 91.875 226.671875 C 90.234375 229.171875 88.703125 231.5625 87.25 233.890625 C 85.84375 236.1875 84.46875 238.453125 83.15625 240.71875 L 104.046875 240.71875 L 104.046875 248 L 72 248 L 72 242.921875 C 73.140625 240.875 74.390625 238.71875 75.703125 236.484375 C 77.015625 234.1875 78.46875 231.765625 80.109375 229.171875 C 81.703125 226.609375 83.484375 223.828125 85.359375 220.796875 C 87.28125 217.8125 89.421875 214.53125 91.71875 211 L 73.015625 211 L 73.015625 203.71875 L 103.328125 203.71875 L 103.328125 209.875 "
       id="path13" />
    <path
       style=" stroke:none;fill-rule:evenodd;fill:rgb(97.647059%,97.647059%,97.647059%);fill-opacity:1;"
       d="M 72 0 L 96 0 L 96 24 L 72 24 Z M 72 0 "
       id="path15" />
    <path
       style=" stroke:none;fill-rule:nonzero;fill:rgb(100%,100%,100%);fill-opacity:1;"
       d="M 111.890625 248 L 111.890625 240.71875 L 122.484375 240.71875 L 122.484375 211 L 111.890625 211 L 111.890625 203.71875 L 142.765625 203.71875 L 142.765625 211 L 132.234375 211 L 132.234375 240.71875 L 142.765625 240.71875 L 142.765625 248 L 111.890625 248 "
       id="path17" />
    <path
       style=" stroke:none;fill-rule:evenodd;fill:rgb(97.647059%,97.647059%,97.647059%);fill-opacity:1;"
       d="M 96 24 L 120 24 L 120 48 L 96 48 Z M 96 24 "
       id="path19" />
    <path
       style=" stroke:none;fill-rule:nonzero;fill:rgb(100%,100%,100%);fill-opacity:1;"
       d="M 164.515625 203.21875 C 170.6875 203.21875 175.46875 204.375 178.875 206.734375 C 182.296875 209 184 212.765625 184 218.015625 C 184 223.328125 182.265625 227.171875 178.8125 229.53125 C 175.40625 231.890625 170.546875 233.046875 164.28125 233.046875 L 160.84375 233.046875 L 160.84375 248 L 151.15625 248 L 151.15625 204.265625 C 152.109375 204.109375 153.15625 203.90625 154.3125 203.78125 C 155.53125 203.640625 156.703125 203.546875 157.921875 203.484375 C 159.140625 203.390625 160.3125 203.3125 161.46875 203.28125 C 162.609375 203.21875 163.625 203.21875 164.515625 203.21875 M 165.625 210.859375 C 165.03125 210.859375 164.21875 210.890625 163.171875 210.921875 C 162.1875 210.921875 161.390625 211 160.84375 211.09375 L 160.84375 225.390625 L 164.75 225.390625 C 167.828125 225.390625 170.15625 224.84375 171.734375 223.75 C 173.3125 222.609375 174.09375 220.671875 174.09375 217.953125 C 174.09375 215.359375 173.3125 213.546875 171.734375 212.5 C 170.21875 211.421875 168.1875 210.859375 165.625 210.859375 "
       id="path21" />
    <path
       style=" stroke:none;fill-rule:evenodd;fill:rgb(97.647059%,97.647059%,97.647059%);fill-opacity:1;"
       d="M 72 48 L 96 48 L 96 72 L 72 72 Z M 72 48 "
       id="path23" />
    <path
       style=" stroke:none;fill-rule:evenodd;fill:rgb(97.647059%,97.647059%,97.647059%);fill-opacity:1;"
       d="M 96 72 L 120 72 L 120 96 L 96 96 Z M 96 72 "
       id="path25" />
    <path
       style=" stroke:none;fill-rule:evenodd;fill:rgb(97.647059%,97.647059%,97.647059%);fill-opacity:1;"
       d="M 72 96 L 96 96 L 96 120 L 72 120 Z M 72 96 "
       id="path27" />
    <path
       style=" stroke:none;fill-rule:evenodd;fill:rgb(97.647059%,97.647059%,97.647059%);fill-opacity:1;"
       d="M 72 128 L 120 128 L 120 176 L 72 176 Z M 72 128 "
       id="path29" />
  </g>
</svg>
