<?xml version="1.0" encoding="UTF-8" standalone="no"?>
<svg
   xmlns:dc="http://purl.org/dc/elements/1.1/"
   xmlns:cc="http://creativecommons.org/ns#"
   xmlns:rdf="http://www.w3.org/1999/02/22-rdf-syntax-ns#"
   xmlns:svg="http://www.w3.org/2000/svg"
   xmlns="http://www.w3.org/2000/svg"
   xmlns:sodipodi="http://sodipodi.sourceforge.net/DTD/sodipodi-0.dtd"
   xmlns:inkscape="http://www.inkscape.org/namespaces/inkscape"
   width="256px"
   height="256px"
   viewBox="0 0 256 256"
   version="1.1"
   id="svg2"
   inkscape:version="0.48.4 r9939"
   sodipodi:docname="application-x-lha.svg">
  <metadata
     id="metadata35">
    <rdf:RDF>
      <cc:Work
         rdf:about="">
        <dc:format>image/svg+xml</dc:format>
        <dc:type
           rdf:resource="http://purl.org/dc/dcmitype/StillImage" />
      </cc:Work>
    </rdf:RDF>
  </metadata>
  <defs
     id="defs33" />
  <sodipodi:namedview
     pagecolor="#ffffff"
     bordercolor="#666666"
     borderopacity="1"
     objecttolerance="10"
     gridtolerance="10"
     guidetolerance="10"
     inkscape:pageopacity="0"
     inkscape:pageshadow="2"
     inkscape:window-width="765"
     inkscape:window-height="480"
     id="namedview31"
     showgrid="false"
     inkscape:zoom="0.921875"
     inkscape:cx="128"
     inkscape:cy="128"
     inkscape:window-x="59"
     inkscape:window-y="34"
     inkscape:window-maximized="0"
     inkscape:current-layer="surface1" />
  <g
     id="surface1">
    <path
       style="stroke:none;fill-rule:nonzero;fill:#45606e;fill-opacity:1"
       d="M 42.6875 0 C 37.1875 0 32 5.421875 32 11.15625 L 32 244.84375 C 32 250.265625 37.5 256 42.6875 256 L 213.3125 256 C 218.5 256 224 250.265625 224 244.84375 L 224 72 L 152 0 Z M 42.6875 0 "
       id="path5" />
    <path
       style=" stroke:none;fill-rule:nonzero;fill:rgb(0%,0%,0%);fill-opacity:0.196078;"
       d="M 32 192 L 32 245.34375 C 32 250.53125 37.5 256 42.65625 256 L 213.34375 256 C 218.5 256 224 250.53125 224 245.34375 L 224 192 Z M 32 192 "
       id="path7" />
    <path
       style=" stroke:none;fill-rule:nonzero;fill:rgb(0%,0%,0%);fill-opacity:0.196078;"
       d="M 168 72 L 224 128 L 224 72 Z M 168 72 "
       id="path9" />
    <path
       style=" stroke:none;fill-rule:nonzero;fill:rgb(100%,100%,100%);fill-opacity:1;"
       d="M 102.828125 248 L 72 248 L 72 203 L 81.828125 203 L 81.828125 240.578125 L 102.828125 240.578125 L 102.828125 248 "
       id="path11" />
    <path
       style=" stroke:none;fill-rule:nonzero;fill:rgb(100%,100%,100%);fill-opacity:0.392157;"
       d="M 152 0 L 223.9375 72 L 163.03125 72 C 157.640625 72 152 66.296875 152 60.90625 Z M 152 0 "
       id="path13" />
    <path
       style=" stroke:none;fill-rule:nonzero;fill:rgb(100%,100%,100%);fill-opacity:1;"
       d="M 142.0625 203 L 142.0625 248 L 132.328125 248 L 132.328125 228.15625 L 119.3125 228.15625 L 119.3125 248 L 109.578125 248 L 109.578125 203 L 119.3125 203 L 119.3125 220.734375 L 132.328125 220.734375 L 132.328125 203 L 142.0625 203 "
       id="path15" />
    <path
       style=" stroke:none;fill-rule:evenodd;fill:rgb(97.647059%,97.647059%,97.647059%);fill-opacity:1;"
       d="M 72 0 L 96 0 L 96 24 L 72 24 Z M 72 0 "
       id="path17" />
    <path
       style=" stroke:none;fill-rule:nonzero;fill:rgb(100%,100%,100%);fill-opacity:1;"
       d="M 174.0625 248 L 171.796875 237.609375 L 158.703125 237.609375 L 156.5 248 L 146.34375 248 C 148.6875 239.125 151.015625 231.0625 153.390625 223.796875 C 155.765625 216.453125 158.078125 209.53125 160.28125 203 L 170.90625 203 C 173.234375 209.59375 175.515625 216.578125 177.796875 224 C 180.125 231.390625 182.375 239.359375 184.546875 248 L 174.0625 248 M 165.359375 211.703125 C 164.828125 213.421875 164.34375 215.03125 163.84375 216.578125 C 163.421875 218.09375 163.015625 219.578125 162.59375 221.09375 C 162.234375 222.546875 161.828125 224.03125 161.46875 225.515625 C 161.171875 227.03125 160.84375 228.578125 160.515625 230.203125 L 170.109375 230.203125 C 169.8125 228.578125 169.484375 227.03125 169.15625 225.515625 C 168.859375 224.03125 168.5 222.546875 168.0625 221.09375 C 167.671875 219.578125 167.28125 218.09375 166.78125 216.578125 C 166.359375 215.03125 165.890625 213.421875 165.359375 211.703125 "
       id="path19" />
    <path
       style=" stroke:none;fill-rule:evenodd;fill:rgb(97.647059%,97.647059%,97.647059%);fill-opacity:1;"
       d="M 96 24 L 120 24 L 120 48 L 96 48 Z M 96 24 "
       id="path21" />
    <path
       style=" stroke:none;fill-rule:evenodd;fill:rgb(97.647059%,97.647059%,97.647059%);fill-opacity:1;"
       d="M 72 48 L 96 48 L 96 72 L 72 72 Z M 72 48 "
       id="path23" />
    <path
       style=" stroke:none;fill-rule:evenodd;fill:rgb(97.647059%,97.647059%,97.647059%);fill-opacity:1;"
       d="M 96 72 L 120 72 L 120 96 L 96 96 Z M 96 72 "
       id="path25" />
    <path
       style=" stroke:none;fill-rule:evenodd;fill:rgb(97.647059%,97.647059%,97.647059%);fill-opacity:1;"
       d="M 72 96 L 96 96 L 96 120 L 72 120 Z M 72 96 "
       id="path27" />
    <path
       style=" stroke:none;fill-rule:evenodd;fill:rgb(97.647059%,97.647059%,97.647059%);fill-opacity:1;"
       d="M 72 128 L 120 128 L 120 176 L 72 176 Z M 72 128 "
       id="path29" />
  </g>
</svg>
