<?xml version="1.0" encoding="UTF-8" standalone="no"?>
<svg
   xmlns:dc="http://purl.org/dc/elements/1.1/"
   xmlns:cc="http://creativecommons.org/ns#"
   xmlns:rdf="http://www.w3.org/1999/02/22-rdf-syntax-ns#"
   xmlns:svg="http://www.w3.org/2000/svg"
   xmlns="http://www.w3.org/2000/svg"
   xmlns:sodipodi="http://sodipodi.sourceforge.net/DTD/sodipodi-0.dtd"
   xmlns:inkscape="http://www.inkscape.org/namespaces/inkscape"
   width="256px"
   height="256px"
   viewBox="0 0 256 256"
   version="1.1"
   id="svg2"
   inkscape:version="0.48.4 r9939"
   sodipodi:docname="application-rtf.svg">
  <metadata
     id="metadata37">
    <rdf:RDF>
      <cc:Work
         rdf:about="">
        <dc:format>image/svg+xml</dc:format>
        <dc:type
           rdf:resource="http://purl.org/dc/dcmitype/StillImage" />
      </cc:Work>
    </rdf:RDF>
  </metadata>
  <defs
     id="defs35" />
  <sodipodi:namedview
     pagecolor="#ffffff"
     bordercolor="#666666"
     borderopacity="1"
     objecttolerance="10"
     gridtolerance="10"
     guidetolerance="10"
     inkscape:pageopacity="0"
     inkscape:pageshadow="2"
     inkscape:window-width="765"
     inkscape:window-height="480"
     id="namedview33"
     showgrid="false"
     inkscape:zoom="0.921875"
     inkscape:cx="-71.59322"
     inkscape:cy="128"
     inkscape:window-x="451"
     inkscape:window-y="204"
     inkscape:window-maximized="0"
     inkscape:current-layer="surface1" />
  <g
     id="surface1">
    <path
       style="stroke:none;fill-rule:nonzero;fill:#5062b0;fill-opacity:1"
       d="M 42.6875 0 C 37.1875 0 32 5.421875 32 11.15625 L 32 244.84375 C 32 250.265625 37.5 256 42.6875 256 L 213.3125 256 C 218.5 256 224 250.265625 224 244.84375 L 224 72 L 152 0 Z M 42.6875 0 "
       id="path5" />
    <path
       style=" stroke:none;fill-rule:nonzero;fill:rgb(0%,0%,0%);fill-opacity:0.196078;"
       d="M 168 72 L 224 128 L 224 72 Z M 168 72 "
       id="path7" />
    <path
       style=" stroke:none;fill-rule:nonzero;fill:rgb(100%,100%,100%);fill-opacity:0.392157;"
       d="M 152 0 L 223.9375 72 L 163.03125 72 C 157.640625 72 152 66.296875 152 60.90625 Z M 152 0 "
       id="path9" />
    <path
       style=" stroke:none;fill-rule:nonzero;fill:rgb(0%,0%,0%);fill-opacity:0.196078;"
       d="M 32 192 L 32 245.34375 C 32 250.53125 37.5 256 42.65625 256 L 213.34375 256 C 218.5 256 224 250.53125 224 245.34375 L 224 192 Z M 32 192 "
       id="path15" />
    <path
       style=" stroke:none;fill-rule:nonzero;fill:rgb(100%,100%,100%);fill-opacity:1;"
       d="M 84.921875 203.21875 C 87.78125 203.21875 90.34375 203.484375 92.671875 204.078125 C 94.96875 204.625 96.96875 205.515625 98.640625 206.734375 C 100.3125 207.90625 101.5625 209.421875 102.40625 211.296875 C 103.328125 213.09375 103.796875 215.265625 103.796875 217.71875 C 103.796875 220.3125 103.203125 222.640625 102.015625 224.734375 C 100.84375 226.84375 98.875 228.453125 96.140625 229.53125 C 97.0625 230.78125 98.015625 232.15625 99.03125 233.703125 C 100.046875 235.171875 101.0625 236.75 102.015625 238.421875 C 103 240.03125 103.921875 241.671875 104.765625 243.34375 C 105.6875 244.984375 106.453125 246.53125 107.109375 248 L 96.703125 248 C 95.453125 245.140625 94.015625 242.390625 92.34375 239.765625 C 90.734375 237.109375 89 234.421875 87.09375 231.703125 L 81.9375 231.703125 L 81.9375 248 L 72 248 L 72 204.375 C 72.984375 204.171875 74.03125 204 75.15625 203.84375 C 76.328125 203.640625 77.515625 203.546875 78.6875 203.484375 C 79.90625 203.390625 81.015625 203.3125 82.109375 203.28125 C 83.1875 203.21875 84.109375 203.21875 84.921875 203.21875 M 93.71875 217.65625 C 93.71875 215.328125 92.890625 213.625 91.296875 212.5 C 89.6875 211.421875 87.546875 210.859375 84.921875 210.859375 C 84.53125 210.859375 84.078125 210.890625 83.546875 210.921875 C 83.015625 210.921875 82.46875 211 81.9375 211.09375 L 81.9375 224.375 L 84.109375 224.375 C 87.484375 224.375 89.9375 223.828125 91.453125 222.671875 C 92.96875 221.5 93.71875 219.8125 93.71875 217.65625 "
       id="path19" />
    <path
       style=" stroke:none;fill-rule:nonzero;fill:rgb(100%,100%,100%);fill-opacity:1;"
       d="M 146.3125 203.71875 L 146.3125 211 L 133.15625 211 L 133.15625 248 L 123.140625 248 L 123.140625 211 L 110.015625 211 L 110.015625 203.71875 L 146.3125 203.71875 "
       id="path21" />
    <path
       style=" stroke:none;fill-rule:nonzero;fill:rgb(100%,100%,100%);fill-opacity:1;"
       d="M 153.421875 248 L 153.421875 203.71875 L 184 203.71875 L 184 211 L 163.328125 211 L 163.328125 221.75 L 181.40625 221.75 L 181.40625 229.03125 L 163.328125 229.03125 L 163.328125 248 L 153.421875 248 "
       id="path23" />
    <text
       xml:space="preserve"
       style="font-size:119.30944824px;font-style:normal;font-variant:normal;font-weight:normal;font-stretch:normal;text-align:start;line-height:125%;letter-spacing:0px;word-spacing:0px;writing-mode:lr-tb;text-anchor:start;fill:#ffffff;fill-opacity:1;stroke:none;font-family:Ubuntu;-inkscape-font-specification:Ubuntu"
       x="48.003307"
       y="179.46802"
       id="text3043"
       sodipodi:linespacing="125%"><tspan
         sodipodi:role="line"
         id="tspan3045"
         x="48.003307"
         y="179.46802">W</tspan></text>
  </g>
</svg>
