<?xml version="1.0" encoding="UTF-8" standalone="no"?>
<svg
   xmlns:dc="http://purl.org/dc/elements/1.1/"
   xmlns:cc="http://creativecommons.org/ns#"
   xmlns:rdf="http://www.w3.org/1999/02/22-rdf-syntax-ns#"
   xmlns:svg="http://www.w3.org/2000/svg"
   xmlns="http://www.w3.org/2000/svg"
   xmlns:sodipodi="http://sodipodi.sourceforge.net/DTD/sodipodi-0.dtd"
   xmlns:inkscape="http://www.inkscape.org/namespaces/inkscape"
   width="256px"
   height="256px"
   viewBox="0 0 256 256"
   version="1.1"
   id="svg2"
   inkscape:version="0.48.4 r9939"
   sodipodi:docname="application-x-gzip.svg">
  <metadata
     id="metadata37">
    <rdf:RDF>
      <cc:Work
         rdf:about="">
        <dc:format>image/svg+xml</dc:format>
        <dc:type
           rdf:resource="http://purl.org/dc/dcmitype/StillImage" />
      </cc:Work>
    </rdf:RDF>
  </metadata>
  <defs
     id="defs35" />
  <sodipodi:namedview
     pagecolor="#ffffff"
     bordercolor="#666666"
     borderopacity="1"
     objecttolerance="10"
     gridtolerance="10"
     guidetolerance="10"
     inkscape:pageopacity="0"
     inkscape:pageshadow="2"
     inkscape:window-width="765"
     inkscape:window-height="480"
     id="namedview33"
     showgrid="false"
     inkscape:zoom="0.921875"
     inkscape:cx="128"
     inkscape:cy="128"
     inkscape:window-x="59"
     inkscape:window-y="34"
     inkscape:window-maximized="0"
     inkscape:current-layer="surface1" />
  <g
     id="surface1">
    <path
       style="stroke:none;fill-rule:nonzero;fill:#45606e;fill-opacity:1"
       d="M 42.6875 0 C 37.1875 0 32 5.421875 32 11.15625 L 32 244.84375 C 32 250.265625 37.5 256 42.6875 256 L 213.3125 256 C 218.5 256 224 250.265625 224 244.84375 L 224 72 L 152 0 Z M 42.6875 0 "
       id="path5" />
    <path
       style=" stroke:none;fill-rule:nonzero;fill:rgb(0%,0%,0%);fill-opacity:0.196078;"
       d="M 32 192 L 32 245.34375 C 32 250.53125 37.5 256 42.65625 256 L 213.34375 256 C 218.5 256 224 250.53125 224 245.34375 L 224 192 Z M 32 192 "
       id="path7" />
    <path
       style=" stroke:none;fill-rule:nonzero;fill:rgb(100%,100%,100%);fill-opacity:1;"
       d="M 82.75 213.203125 C 80.8125 213.203125 79.1875 213.546875 77.875 214.265625 C 76.5625 214.953125 75.46875 215.953125 74.59375 217.234375 C 73.75 218.453125 73.15625 219.953125 72.75 221.703125 C 72.40625 223.421875 72.21875 225.359375 72.21875 227.453125 C 72.21875 232.359375 73 235.953125 74.53125 238.296875 C 76.0625 240.578125 78.3125 241.734375 81.3125 241.734375 C 81.78125 241.734375 82.3125 241.703125 82.875 241.671875 C 83.46875 241.609375 83.96875 241.546875 84.46875 241.453125 L 84.46875 226.546875 L 92.5625 226.546875 L 92.5625 246.953125 C 91.59375 247.296875 90.09375 247.703125 88.03125 248.140625 C 86 248.578125 83.53125 248.796875 80.65625 248.796875 C 78.09375 248.796875 75.8125 248.359375 73.75 247.484375 C 71.71875 246.546875 70 245.203125 68.53125 243.453125 C 67.09375 241.640625 65.96875 239.421875 65.1875 236.765625 C 64.40625 234.078125 64 230.984375 64 227.453125 C 64 223.984375 64.46875 220.921875 65.375 218.296875 C 66.3125 215.609375 67.5625 213.359375 69.125 211.546875 C 70.71875 209.734375 72.5625 208.390625 74.71875 207.515625 C 76.875 206.578125 79.1875 206.140625 81.625 206.140625 C 83.21875 206.140625 84.625 206.265625 85.84375 206.515625 C 87.125 206.734375 88.21875 207.015625 89.125 207.328125 C 90.0625 207.640625 90.8125 207.953125 91.375 208.296875 C 92 208.671875 92.4375 208.921875 92.75 209.109375 L 90.65625 215.578125 C 89.6875 214.953125 88.5 214.421875 87.09375 213.921875 C 85.6875 213.453125 84.25 213.203125 82.75 213.203125 "
       id="path9" />
    <path
       style=" stroke:none;fill-rule:nonzero;fill:rgb(0%,0%,0%);fill-opacity:0.196078;"
       d="M 168 72 L 224 128 L 224 72 Z M 168 72 "
       id="path11" />
    <path
       style=" stroke:none;fill-rule:nonzero;fill:rgb(100%,100%,100%);fill-opacity:1;"
       d="M 124.40625 212.734375 C 122.53125 215.640625 120.78125 218.359375 119.21875 220.921875 C 117.625 223.484375 116.15625 225.921875 114.8125 228.265625 C 113.4375 230.546875 112.15625 232.765625 110.9375 234.921875 C 109.75 237.046875 108.59375 239.140625 107.5 241.203125 L 125 241.203125 L 125 247.921875 L 98.15625 247.921875 L 98.15625 243.234375 C 99.125 241.359375 100.15625 239.359375 101.25 237.296875 C 102.34375 235.203125 103.5625 232.953125 104.9375 230.578125 C 106.28125 228.203125 107.75 225.609375 109.34375 222.828125 C 110.96875 220.078125 112.75 217.046875 114.6875 213.796875 L 99 213.796875 L 99 207.046875 L 124.40625 207.046875 L 124.40625 212.734375 "
       id="path13" />
    <path
       style=" stroke:none;fill-rule:nonzero;fill:rgb(100%,100%,100%);fill-opacity:0.392157;"
       d="M 152 0 L 223.9375 72 L 163.03125 72 C 157.640625 72 152 66.296875 152 60.90625 Z M 152 0 "
       id="path15" />
    <path
       style=" stroke:none;fill-rule:nonzero;fill:rgb(100%,100%,100%);fill-opacity:1;"
       d="M 131.59375 247.921875 L 131.59375 241.203125 L 140.46875 241.203125 L 140.46875 213.796875 L 131.59375 213.796875 L 131.59375 207.046875 L 157.4375 207.046875 L 157.4375 213.796875 L 148.625 213.796875 L 148.625 241.203125 L 157.4375 241.203125 L 157.4375 247.921875 L 131.59375 247.921875 "
       id="path17" />
    <path
       style=" stroke:none;fill-rule:evenodd;fill:rgb(97.647059%,97.647059%,97.647059%);fill-opacity:1;"
       d="M 72 0 L 96 0 L 96 24 L 72 24 Z M 72 0 "
       id="path19" />
    <path
       style=" stroke:none;fill-rule:nonzero;fill:rgb(100%,100%,100%);fill-opacity:1;"
       d="M 175.6875 206.578125 C 180.84375 206.578125 184.875 207.671875 187.71875 209.828125 C 190.5625 211.953125 192 215.421875 192 220.265625 C 192 225.140625 190.5625 228.703125 187.65625 230.890625 C 184.8125 233.046875 180.75 234.140625 175.46875 234.140625 L 172.59375 234.140625 L 172.59375 247.921875 L 164.5 247.921875 L 164.5 207.578125 C 165.28125 207.421875 166.15625 207.265625 167.125 207.109375 C 168.125 206.984375 169.15625 206.890625 170.15625 206.859375 C 171.15625 206.765625 172.15625 206.703125 173.125 206.671875 C 174.0625 206.609375 174.9375 206.578125 175.6875 206.578125 M 176.59375 213.671875 C 176.125 213.671875 175.4375 213.671875 174.5625 213.734375 C 173.71875 213.734375 173.0625 213.765625 172.59375 213.859375 L 172.59375 227.078125 L 175.875 227.078125 C 178.46875 227.078125 180.40625 226.546875 181.71875 225.546875 C 183.0625 224.484375 183.71875 222.703125 183.71875 220.203125 C 183.71875 217.828125 183.0625 216.140625 181.71875 215.171875 C 180.46875 214.171875 178.75 213.671875 176.59375 213.671875 "
       id="path21" />
    <path
       style=" stroke:none;fill-rule:evenodd;fill:rgb(97.647059%,97.647059%,97.647059%);fill-opacity:1;"
       d="M 96 24 L 120 24 L 120 48 L 96 48 Z M 96 24 "
       id="path23" />
    <path
       style=" stroke:none;fill-rule:evenodd;fill:rgb(97.647059%,97.647059%,97.647059%);fill-opacity:1;"
       d="M 72 48 L 96 48 L 96 72 L 72 72 Z M 72 48 "
       id="path25" />
    <path
       style=" stroke:none;fill-rule:evenodd;fill:rgb(97.647059%,97.647059%,97.647059%);fill-opacity:1;"
       d="M 96 72 L 120 72 L 120 96 L 96 96 Z M 96 72 "
       id="path27" />
    <path
       style=" stroke:none;fill-rule:evenodd;fill:rgb(97.647059%,97.647059%,97.647059%);fill-opacity:1;"
       d="M 72 96 L 96 96 L 96 120 L 72 120 Z M 72 96 "
       id="path29" />
    <path
       style=" stroke:none;fill-rule:evenodd;fill:rgb(97.647059%,97.647059%,97.647059%);fill-opacity:1;"
       d="M 72 128 L 120 128 L 120 176 L 72 176 Z M 72 128 "
       id="path31" />
  </g>
</svg>
