<?xml version="1.0" encoding="UTF-8" standalone="no"?>
<svg
   xmlns:dc="http://purl.org/dc/elements/1.1/"
   xmlns:cc="http://creativecommons.org/ns#"
   xmlns:rdf="http://www.w3.org/1999/02/22-rdf-syntax-ns#"
   xmlns:svg="http://www.w3.org/2000/svg"
   xmlns="http://www.w3.org/2000/svg"
   xmlns:sodipodi="http://sodipodi.sourceforge.net/DTD/sodipodi-0.dtd"
   xmlns:inkscape="http://www.inkscape.org/namespaces/inkscape"
   width="256px"
   height="256px"
   viewBox="0 0 256 256"
   version="1.1"
   id="svg2"
   inkscape:version="0.48.4 r9939"
   sodipodi:docname="application-vnd.oasis.opendocument.text-template.svg">
  <metadata
     id="metadata33">
    <rdf:RDF>
      <cc:Work
         rdf:about="">
        <dc:format>image/svg+xml</dc:format>
        <dc:type
           rdf:resource="http://purl.org/dc/dcmitype/StillImage" />
      </cc:Work>
    </rdf:RDF>
  </metadata>
  <defs
     id="defs31" />
  <sodipodi:namedview
     pagecolor="#ffffff"
     bordercolor="#666666"
     borderopacity="1"
     objecttolerance="10"
     gridtolerance="10"
     guidetolerance="10"
     inkscape:pageopacity="0"
     inkscape:pageshadow="2"
     inkscape:window-width="765"
     inkscape:window-height="480"
     id="namedview29"
     showgrid="false"
     inkscape:zoom="0.65186406"
     inkscape:cx="-183.96372"
     inkscape:cy="87.079886"
     inkscape:window-x="179"
     inkscape:window-y="234"
     inkscape:window-maximized="0"
     inkscape:current-layer="surface1" />
  <g
     id="surface1">
    <path
       style="stroke:none;fill-rule:nonzero;fill:#5062b0;fill-opacity:1"
       d="M 42.75 0 C 37.25 0 32 5.515625 32 11.25 L 32 244.75 C 32 250.15625 37.5625 256 42.75 256 L 213.25 256 C 218.4375 256 224 250.15625 224 244.75 L 224 11 C 224 5.609375 218.390625 0 213 0 Z M 42.75 0 "
       id="path5" />
    <path
       style=" stroke:none;fill-rule:nonzero;fill:rgb(0%,0%,0%);fill-opacity:0.196078;"
       d="M 32 192 L 32 245.34375 C 32 250.53125 37.5 256 42.65625 256 L 213.34375 256 C 218.5 256 224 250.53125 224 245.34375 L 224 192 Z M 32 192 "
       id="path21" />
    <path
       style=" stroke:none;fill-rule:nonzero;fill:rgb(100%,100%,100%);fill-opacity:1;"
       d="M 81.25 226.390625 C 81.25 228.484375 81.3125 230.46875 81.484375 232.3125 C 81.6875 234.125 82.046875 235.703125 82.578125 237.0625 C 83.125 238.40625 83.921875 239.46875 84.90625 240.25 C 85.90625 241.046875 87.21875 241.4375 88.859375 241.4375 C 90.484375 241.4375 91.765625 241.046875 92.75 240.25 C 93.78125 239.46875 94.5625 238.40625 95.09375 237.0625 C 95.65625 235.640625 96.015625 234.0625 96.1875 232.25 C 96.375 230.4375 96.46875 228.484375 96.46875 226.390625 C 96.46875 224.3125 96.375 222.359375 96.1875 220.546875 C 96.015625 218.671875 95.65625 217.09375 95.09375 215.734375 C 94.5625 214.390625 93.8125 213.328125 92.8125 212.546875 C 91.828125 211.75 90.515625 211.359375 88.859375 211.359375 C 87.21875 211.359375 85.90625 211.75 84.90625 212.546875 C 83.921875 213.328125 83.125 214.421875 82.578125 215.8125 C 82.046875 217.15625 81.6875 218.734375 81.484375 220.546875 C 81.3125 222.359375 81.25 224.3125 81.25 226.390625 M 71.53125 226.390625 C 71.53125 218.96875 73.078125 213.359375 76.109375 209.609375 C 79.171875 205.78125 83.421875 203.90625 88.859375 203.90625 C 94.5 203.90625 98.8125 205.78125 101.75 209.609375 C 104.71875 213.359375 106.203125 218.96875 106.203125 226.390625 C 106.203125 233.828125 104.6875 239.4375 101.6875 243.25 C 98.6875 247.015625 94.4375 248.890625 88.9375 248.890625 C 83.296875 248.890625 78.984375 247.015625 75.984375 243.25 C 73.015625 239.4375 71.53125 233.828125 71.53125 226.390625 "
       id="path23" />
    <path
       style=" stroke:none;fill-rule:nonzero;fill:rgb(100%,100%,100%);fill-opacity:1;"
       d="M 145.1875 204.859375 L 145.1875 211.984375 L 132.53125 211.984375 L 132.53125 248 L 122.875 248 L 122.875 211.984375 L 110.21875 211.984375 L 110.21875 204.859375 L 145.1875 204.859375 "
       id="path25" />
    <path
       style=" stroke:none;fill-rule:nonzero;fill:rgb(100%,100%,100%);fill-opacity:1;"
       d="M 184.03125 204.859375 L 184.03125 211.984375 L 171.34375 211.984375 L 171.34375 248 L 161.71875 248 L 161.71875 211.984375 L 149.0625 211.984375 L 149.0625 204.859375 L 184.03125 204.859375 "
       id="path27" />
    <text
       xml:space="preserve"
       style="font-size:119.30944824px;font-style:normal;font-variant:normal;font-weight:normal;font-stretch:normal;text-align:start;line-height:125%;letter-spacing:0px;word-spacing:0px;writing-mode:lr-tb;text-anchor:start;fill:#ffffff;fill-opacity:1;stroke:none;font-family:Ubuntu;-inkscape-font-specification:Ubuntu"
       x="48.003307"
       y="179.46802"
       id="text3043"
       sodipodi:linespacing="125%"><tspan
         sodipodi:role="line"
         id="tspan3045"
         x="48.003307"
         y="179.46802">W</tspan></text>
  </g>
</svg>
