<?xml version="1.0" encoding="UTF-8" standalone="no"?>
<svg
   xmlns:dc="http://purl.org/dc/elements/1.1/"
   xmlns:cc="http://creativecommons.org/ns#"
   xmlns:rdf="http://www.w3.org/1999/02/22-rdf-syntax-ns#"
   xmlns:svg="http://www.w3.org/2000/svg"
   xmlns="http://www.w3.org/2000/svg"
   xmlns:sodipodi="http://sodipodi.sourceforge.net/DTD/sodipodi-0.dtd"
   xmlns:inkscape="http://www.inkscape.org/namespaces/inkscape"
   width="256px"
   height="256px"
   viewBox="0 0 256 256"
   version="1.1"
   id="svg2"
   inkscape:version="0.48.4 r9939"
   sodipodi:docname="application-x-7z-compressed.svg">
  <metadata
     id="metadata33">
    <rdf:RDF>
      <cc:Work
         rdf:about="">
        <dc:format>image/svg+xml</dc:format>
        <dc:type
           rdf:resource="http://purl.org/dc/dcmitype/StillImage" />
      </cc:Work>
    </rdf:RDF>
  </metadata>
  <defs
     id="defs31" />
  <sodipodi:namedview
     pagecolor="#ffffff"
     bordercolor="#666666"
     borderopacity="1"
     objecttolerance="10"
     gridtolerance="10"
     guidetolerance="10"
     inkscape:pageopacity="0"
     inkscape:pageshadow="2"
     inkscape:window-width="765"
     inkscape:window-height="480"
     id="namedview29"
     showgrid="false"
     inkscape:zoom="0.921875"
     inkscape:cx="128"
     inkscape:cy="128"
     inkscape:window-x="59"
     inkscape:window-y="34"
     inkscape:window-maximized="0"
     inkscape:current-layer="surface1" />
  <g
     id="surface1">
    <path
       style="stroke:none;fill-rule:nonzero;fill:#45606e;fill-opacity:1"
       d="M 42.6875 0 C 37.1875 0 32 5.421875 32 11.15625 L 32 244.84375 C 32 250.265625 37.5 256 42.6875 256 L 213.3125 256 C 218.5 256 224 250.265625 224 244.84375 L 224 72 L 152 0 Z M 42.6875 0 "
       id="path5" />
    <path
       style=" stroke:none;fill-rule:nonzero;fill:rgb(0%,0%,0%);fill-opacity:0.196078;"
       d="M 32 192 L 32 245.34375 C 32 250.53125 37.5 256 42.65625 256 L 213.34375 256 C 218.5 256 224 250.53125 224 245.34375 L 224 192 Z M 32 192 "
       id="path7" />
    <path
       style=" stroke:none;fill-rule:nonzero;fill:rgb(0%,0%,0%);fill-opacity:0.196078;"
       d="M 168 72 L 224 128 L 224 72 Z M 168 72 "
       id="path9" />
    <path
       style=" stroke:none;fill-rule:nonzero;fill:rgb(100%,100%,100%);fill-opacity:0.392157;"
       d="M 152 0 L 223.9375 72 L 163.03125 72 C 157.640625 72 152 66.296875 152 60.90625 Z M 152 0 "
       id="path11" />
    <path
       style=" stroke:none;fill-rule:evenodd;fill:rgb(97.647059%,97.647059%,97.647059%);fill-opacity:1;"
       d="M 72 0 L 96 0 L 96 24 L 72 24 Z M 72 0 "
       id="path13" />
    <path
       style=" stroke:none;fill-rule:evenodd;fill:rgb(97.647059%,97.647059%,97.647059%);fill-opacity:1;"
       d="M 96 24 L 120 24 L 120 48 L 96 48 Z M 96 24 "
       id="path15" />
    <path
       style=" stroke:none;fill-rule:evenodd;fill:rgb(97.647059%,97.647059%,97.647059%);fill-opacity:1;"
       d="M 72 48 L 96 48 L 96 72 L 72 72 Z M 72 48 "
       id="path17" />
    <path
       style=" stroke:none;fill-rule:evenodd;fill:rgb(97.647059%,97.647059%,97.647059%);fill-opacity:1;"
       d="M 96 72 L 120 72 L 120 96 L 96 96 Z M 96 72 "
       id="path19" />
    <path
       style=" stroke:none;fill-rule:evenodd;fill:rgb(97.647059%,97.647059%,97.647059%);fill-opacity:1;"
       d="M 72 96 L 96 96 L 96 120 L 72 120 Z M 72 96 "
       id="path21" />
    <path
       style=" stroke:none;fill-rule:evenodd;fill:rgb(97.647059%,97.647059%,97.647059%);fill-opacity:1;"
       d="M 72 128 L 120 128 L 120 176 L 72 176 Z M 72 128 "
       id="path23" />
    <path
       style=" stroke:none;fill-rule:nonzero;fill:rgb(100%,100%,100%);fill-opacity:1;"
       d="M 91.65625 248 C 91.875 244.6875 92.5 241.21875 93.625 237.515625 C 94.75 233.796875 96.046875 230.140625 97.59375 226.515625 C 99.21875 222.890625 100.9375 219.484375 102.796875 216.28125 C 104.671875 213.015625 106.421875 210.234375 108.109375 207.90625 L 83.953125 207.90625 L 83.953125 200 L 121.484375 200 L 121.484375 207.203125 C 119.78125 208.796875 118 211.046875 115.984375 213.953125 C 114.015625 216.84375 112.125 220.109375 110.328125 223.8125 C 108.609375 227.46875 107.0625 231.40625 105.6875 235.59375 C 104.390625 239.734375 103.578125 243.84375 103.265625 248 L 91.65625 248 "
       id="path25" />
    <path
       style=" stroke:none;fill-rule:nonzero;fill:rgb(100%,100%,100%);fill-opacity:1;"
       d="M 167.15625 206.640625 C 164.484375 210.0625 162.0625 213.296875 159.8125 216.28125 C 157.59375 219.265625 155.515625 222.15625 153.578125 224.890625 C 151.6875 227.5625 149.859375 230.171875 148.125 232.703125 C 146.4375 235.203125 144.828125 237.65625 143.28125 240.09375 L 168 240.09375 L 168 248 L 130.09375 248 L 130.09375 242.484375 C 131.46875 240.265625 132.9375 237.9375 134.484375 235.515625 C 136.03125 233.015625 137.765625 230.375 139.65625 227.609375 C 141.59375 224.828125 143.671875 221.765625 145.875 218.53125 C 148.171875 215.265625 150.703125 211.703125 153.40625 207.90625 L 131.328125 207.90625 L 131.328125 200 L 167.15625 200 L 167.15625 206.640625 "
       id="path27" />
  </g>
</svg>
