<?xml version="1.0" encoding="UTF-8" standalone="no"?>
<svg
   xmlns:dc="http://purl.org/dc/elements/1.1/"
   xmlns:cc="http://creativecommons.org/ns#"
   xmlns:rdf="http://www.w3.org/1999/02/22-rdf-syntax-ns#"
   xmlns:svg="http://www.w3.org/2000/svg"
   xmlns="http://www.w3.org/2000/svg"
   xmlns:sodipodi="http://sodipodi.sourceforge.net/DTD/sodipodi-0.dtd"
   xmlns:inkscape="http://www.inkscape.org/namespaces/inkscape"
   width="256px"
   height="256px"
   viewBox="0 0 256 256"
   version="1.1"
   id="svg2"
   inkscape:version="0.48.4 r9939"
   sodipodi:docname="application-image-tiff.svg">
  <metadata
     id="metadata27">
    <rdf:RDF>
      <cc:Work
         rdf:about="">
        <dc:format>image/svg+xml</dc:format>
        <dc:type
           rdf:resource="http://purl.org/dc/dcmitype/StillImage" />
      </cc:Work>
    </rdf:RDF>
  </metadata>
  <defs
     id="defs25" />
  <sodipodi:namedview
     pagecolor="#ffffff"
     bordercolor="#666666"
     borderopacity="1"
     objecttolerance="10"
     gridtolerance="10"
     guidetolerance="10"
     inkscape:pageopacity="0"
     inkscape:pageshadow="2"
     inkscape:window-width="765"
     inkscape:window-height="480"
     id="namedview23"
     showgrid="false"
     inkscape:zoom="0.921875"
     inkscape:cx="128"
     inkscape:cy="128"
     inkscape:window-x="59"
     inkscape:window-y="34"
     inkscape:window-maximized="0"
     inkscape:current-layer="surface1" />
  <g
     id="surface1">
    <path
       style="stroke:none;fill-rule:nonzero;fill:#075e65;fill-opacity:1"
       d="M 42.6875 0 C 37.1875 0 32 5.421875 32 11.15625 L 32 244.84375 C 32 250.265625 37.5 256 42.6875 256 L 213.3125 256 C 218.5 256 224 250.265625 224 244.84375 L 224 72 L 152 0 Z M 42.6875 0 "
       id="path5" />
    <path
       style=" stroke:none;fill-rule:nonzero;fill:rgb(0%,0%,0%);fill-opacity:0.196078;"
       d="M 168 72 L 224 128 L 224 72 Z M 168 72 "
       id="path7" />
    <path
       style=" stroke:none;fill-rule:nonzero;fill:rgb(100%,100%,100%);fill-opacity:0.392157;"
       d="M 152 0 L 223.9375 72 L 163.03125 72 C 157.640625 72 152 66.296875 152 60.90625 Z M 152 0 "
       id="path9" />
    <path
       style=" stroke:none;fill-rule:nonzero;fill:rgb(100%,100%,100%);fill-opacity:1;"
       d="M 93.15625 88 C 90.34375 88.265625 87.9375 91.25 88 94.421875 L 88 161.734375 C 88.03125 165.046875 90.671875 168.03125 93.625 168 L 162.515625 168 C 165.421875 167.9375 167.96875 165.015625 168 161.734375 L 168 94.421875 C 168.0625 91.078125 165.484375 88.03125 162.515625 88 Z M 96 96 L 160 96 L 160 141.609375 L 141.1875 120.34375 L 136.46875 124.875 L 129.265625 131.4375 L 124.859375 127.046875 L 113.546875 111.75 L 96 134.390625 Z M 96 96 "
       id="path11" />
    <path
       style=" stroke:none;fill-rule:nonzero;fill:rgb(0%,0%,0%);fill-opacity:0.196078;"
       d="M 32 192 L 32 245.34375 C 32 250.53125 37.5 256 42.65625 256 L 213.34375 256 C 218.5 256 224 250.53125 224 245.34375 L 224 192 Z M 32 192 "
       id="path13" />
    <path
       style=" stroke:none;fill-rule:nonzero;fill:rgb(100%,100%,100%);fill-opacity:1;"
       d="M 89.859375 203.734375 L 89.859375 211.03125 L 77.625 211.03125 L 77.625 248 L 68.3125 248 L 68.3125 211.03125 L 56.0625 211.03125 L 56.0625 203.734375 L 89.859375 203.734375 "
       id="path15" />
    <path
       style=" stroke:none;fill-rule:nonzero;fill:rgb(100%,100%,100%);fill-opacity:1;"
       d="M 95.78125 248 L 95.78125 240.703125 L 105.90625 240.703125 L 105.90625 211.03125 L 95.78125 211.03125 L 95.78125 203.734375 L 125.296875 203.734375 L 125.296875 211.03125 L 115.21875 211.03125 L 115.21875 240.703125 L 125.296875 240.703125 L 125.296875 248 L 95.78125 248 "
       id="path17" />
    <path
       style=" stroke:none;fill-rule:nonzero;fill:rgb(100%,100%,100%);fill-opacity:1;"
       d="M 134 248 L 134 203.734375 L 162.4375 203.734375 L 162.4375 211.03125 L 143.234375 211.03125 L 143.234375 221.765625 L 160.046875 221.765625 L 160.046875 229.0625 L 143.234375 229.0625 L 143.234375 248 L 134 248 "
       id="path19" />
    <path
       style=" stroke:none;fill-rule:nonzero;fill:rgb(100%,100%,100%);fill-opacity:1;"
       d="M 171.515625 248 L 171.515625 203.734375 L 200 203.734375 L 200 211.03125 L 180.765625 211.03125 L 180.765625 221.765625 L 197.59375 221.765625 L 197.59375 229.0625 L 180.765625 229.0625 L 180.765625 248 L 171.515625 248 "
       id="path21" />
  </g>
</svg>
